  0
SECTION
  2
HEADER
  9
$ACADVER
  1
AC1024
  9
$ACADMAINTVER
 70
6
  9
$DWGCODEPAGE
  3
ANSI_1252
  9
$LASTSAVEDBY
  1
ezdxf
  9
$INSBASE
 10
0.0
 20
0.0
 30
0.0
  9
$EXTMIN
 10
-100
 20
-100
 30
-100
  9
$EXTMAX
 10
100
 20
100
 30
100
  9
$LIMMIN
 10
0.0
 20
0.0
  9
$LIMMAX
 10
420.0
 20
297.0
  9
$ORTHOMODE
 70
0
  9
$REGENMODE
 70
1
  9
$FILLMODE
 70
1
  9
$QTEXTMODE
 70
0
  9
$MIRRTEXT
 70
1
  9
$LTSCALE
 40
1.0
  9
$ATTMODE
 70
1
  9
$TEXTSIZE
 40
2.5
  9
$TRACEWID
 40
1.0
  9
$TEXTSTYLE
  7
Standard
  9
$CLAYER
  8
0
  9
$CELTYPE
  6
ByLayer
  9
$CECOLOR
 62
256
  9
$CELTSCALE
 40
1.0
  9
$DISPSILH
 70
0
  9
$DIMSCALE
 40
1.0
  9
$DIMASZ
 40
2.5
  9
$DIMEXO
 40
0.625
  9
$DIMDLI
 40
3.75
  9
$DIMRND
 40
0.0
  9
$DIMDLE
 40
0.0
  9
$DIMEXE
 40
1.25
  9
$DIMTP
 40
0.0
  9
$DIMTM
 40
0.0
  9
$DIMTXT
 40
2.5
  9
$DIMCEN
 40
2.5
  9
$DIMTSZ
 40
0.0
  9
$DIMTOL
 70
0
  9
$DIMLIM
 70
0
  9
$DIMTIH
 70
0
  9
$DIMTOH
 70
0
  9
$DIMSE1
 70
0
  9
$DIMSE2
 70
0
  9
$DIMTAD
 70
1
  9
$DIMZIN
 70
8
  9
$DIMBLK
  1

  9
$DIMASO
 70
1
  9
$DIMSHO
 70
1
  9
$DIMPOST
  1

  9
$DIMAPOST
  1

  9
$DIMALT
 70
0
  9
$DIMALTD
 70
3
  9
$DIMALTF
 40
0.03937007874
  9
$DIMLFAC
 40
1.0
  9
$DIMTOFL
 70
1
  9
$DIMTVP
 40
0.0
  9
$DIMTIX
 70
0
  9
$DIMSOXD
 70
0
  9
$DIMSAH
 70
0
  9
$DIMBLK1
  1

  9
$DIMBLK2
  1

  9
$DIMSTYLE
  2
ISO-25
  9
$DIMCLRD
 70
0
  9
$DIMCLRE
 70
0
  9
$DIMCLRT
 70
0
  9
$DIMTFAC
 40
1.0
  9
$DIMGAP
 40
0.625
  9
$DIMJUST
 70
0
  9
$DIMSD1
 70
0
  9
$DIMSD2
 70
0
  9
$DIMTOLJ
 70
0
  9
$DIMTZIN
 70
8
  9
$DIMALTZ
 70
0
  9
$DIMALTTZ
 70
0
  9
$DIMUPT
 70
0
  9
$DIMDEC
 70
2
  9
$DIMTDEC
 70
2
  9
$DIMALTU
 70
2
  9
$DIMALTTD
 70
3
  9
$DIMTXSTY
  7
Standard
  9
$DIMAUNIT
 70
0
  9
$DIMADEC
 70
0
  9
$DIMALTRND
 40
0.0
  9
$DIMAZIN
 70
0
  9
$DIMDSEP
 70
44
  9
$DIMATFIT
 70
3
  9
$DIMFRAC
 70
0
  9
$DIMLDRBLK
  1

  9
$DIMLUNIT
 70
2
  9
$DIMLWD
 70
-2
  9
$DIMLWE
 70
-2
  9
$DIMTMOVE
 70
0
  9
$DIMFXL
 40
1.0
  9
$DIMFXLON
 70
0
  9
$DIMJOGANG
 40
0.785398163397
  9
$DIMTFILL
 70
0
  9
$DIMTFILLCLR
 70
0
  9
$DIMARCSYM
 70
0
  9
$DIMLTYPE
  6

  9
$DIMLTEX1
  6

  9
$DIMLTEX2
  6

  9
$DIMTXTDIRECTION
 70
0
  9
$LUNITS
 70
2
  9
$LUPREC
 70
4
  9
$SKETCHINC
 40
1.0
  9
$FILLETRAD
 40
10.0
  9
$AUNITS
 70
0
  9
$AUPREC
 70
2
  9
$MENU
  1
.
  9
$ELEVATION
 40
0.0
  9
$PELEVATION
 40
0.0
  9
$THICKNESS
 40
0.0
  9
$LIMCHECK
 70
0
  9
$CHAMFERA
 40
0.0
  9
$CHAMFERB
 40
0.0
  9
$CHAMFERC
 40
0.0
  9
$CHAMFERD
 40
0.0
  9
$SKPOLY
 70
0
  9
$TDCREATE
 40
2459315.8228703705
  9
$TDUCREATE
 40
2458532.153996898
  9
$TDUPDATE
 40
2459315.8228703705
  9
$TDUUPDATE
 40
2458532.1544311
  9
$TDINDWG
 40
0.0
  9
$TDUSRTIMER
 40
0.0
  9
$USRTIMER
 70
1
  9
$ANGBASE
 50
0.0
  9
$ANGDIR
 70
0
  9
$PDMODE
 70
0
  9
$PDSIZE
 40
0.0
  9
$PLINEWID
 40
0.0
  9
$SPLFRAME
 70
0
  9
$SPLINETYPE
 70
6
  9
$SPLINESEGS
 70
8
  9
$HANDSEED
  5
6A
  9
$SURFTAB1
 70
6
  9
$SURFTAB2
 70
6
  9
$SURFTYPE
 70
6
  9
$SURFU
 70
6
  9
$SURFV
 70
6
  9
$UCSBASE
  2

  9
$UCSNAME
  2

  9
$UCSORG
 10
0.0
 20
0.0
 30
0.0
  9
$UCSXDIR
 10
1.0
 20
0.0
 30
0.0
  9
$UCSYDIR
 10
0.0
 20
1.0
 30
0.0
  9
$UCSORTHOREF
  2

  9
$UCSORTHOVIEW
 70
0
  9
$UCSORGTOP
 10
0.0
 20
0.0
 30
0.0
  9
$UCSORGBOTTOM
 10
0.0
 20
0.0
 30
0.0
  9
$UCSORGLEFT
 10
0.0
 20
0.0
 30
0.0
  9
$UCSORGRIGHT
 10
0.0
 20
0.0
 30
0.0
  9
$UCSORGFRONT
 10
0.0
 20
0.0
 30
0.0
  9
$UCSORGBACK
 10
0.0
 20
0.0
 30
0.0
  9
$PUCSBASE
  2

  9
$PUCSNAME
  2

  9
$PUCSORG
 10
0.0
 20
0.0
 30
0.0
  9
$PUCSXDIR
 10
1.0
 20
0.0
 30
0.0
  9
$PUCSYDIR
 10
0.0
 20
1.0
 30
0.0
  9
$PUCSORTHOREF
  2

  9
$PUCSORTHOVIEW
 70
0
  9
$PUCSORGTOP
 10
0.0
 20
0.0
 30
0.0
  9
$PUCSORGBOTTOM
 10
0.0
 20
0.0
 30
0.0
  9
$PUCSORGLEFT
 10
0.0
 20
0.0
 30
0.0
  9
$PUCSORGRIGHT
 10
0.0
 20
0.0
 30
0.0
  9
$PUCSORGFRONT
 10
0.0
 20
0.0
 30
0.0
  9
$PUCSORGBACK
 10
0.0
 20
0.0
 30
0.0
  9
$USERI1
 70
0
  9
$USERI2
 70
0
  9
$USERI3
 70
0
  9
$USERI4
 70
0
  9
$USERI5
 70
0
  9
$USERR1
 40
0.0
  9
$USERR2
 40
0.0
  9
$USERR3
 40
0.0
  9
$USERR4
 40
0.0
  9
$USERR5
 40
0.0
  9
$WORLDVIEW
 70
1
  9
$SHADEDGE
 70
3
  9
$SHADEDIF
 70
70
  9
$TILEMODE
 70
1
  9
$MAXACTVP
 70
64
  9
$PINSBASE
 10
0.0
 20
0.0
 30
0.0
  9
$PLIMCHECK
 70
0
  9
$PEXTMIN
 10
1e+20
 20
1e+20
 30
1e+20
  9
$PEXTMAX
 10
-1e+20
 20
-1e+20
 30
-1e+20
  9
$PLIMMIN
 10
0.0
 20
0.0
  9
$PLIMMAX
 10
420.0
 20
297.0
  9
$UNITMODE
 70
0
  9
$VISRETAIN
 70
1
  9
$PLINEGEN
 70
0
  9
$PSLTSCALE
 70
1
  9
$TREEDEPTH
 70
3020
  9
$CMLSTYLE
  2
Standard
  9
$CMLJUST
 70
0
  9
$CMLSCALE
 40
20.0
  9
$PROXYGRAPHICS
 70
1
  9
$MEASUREMENT
 70
1
  9
$CELWEIGHT
370
-1
  9
$ENDCAPS
280
0
  9
$JOINSTYLE
280
0
  9
$LWDISPLAY
290
0
  9
$INSUNITS
 70
6
  9
$HYPERLINKBASE
  1

  9
$STYLESHEET
  1

  9
$XEDIT
290
1
  9
$CEPSNTYPE
380
0
  9
$PSTYLEMODE
290
1
  9
$FINGERPRINTGUID
  2
E6A7458D-9A6F-11EB-BC72-00E04C6F5033
  9
$VERSIONGUID
  2
E6A8A570-9A6F-11EB-BA58-00E04C6F5033
  9
$EXTNAMES
290
1
  9
$PSVPSCALE
 40
0.0
  9
$OLESTARTUP
290
0
  9
$SORTENTS
280
127
  9
$INDEXCTL
280
0
  9
$HIDETEXT
280
1
  9
$XCLIPFRAME
280
2
  9
$HALOGAP
280
0
  9
$OBSCOLOR
 70
257
  9
$OBSLTYPE
280
0
  9
$INTERSECTIONDISPLAY
280
0
  9
$INTERSECTIONCOLOR
 70
257
  9
$DIMASSOC
280
2
  9
$PROJECTNAME
  1

  9
$CAMERADISPLAY
290
0
  9
$LENSLENGTH
 40
50.0
  9
$CAMERAHEIGHT
 40
0.0
  9
$STEPSPERSEC
 40
24.0
  9
$STEPSIZE
 40
100.0
  9
$3DDWFPREC
 40
2.0
  9
$PSOLWIDTH
 40
0.005
  9
$PSOLHEIGHT
 40
0.08
  9
$LOFTANG1
 40
1.570796326795
  9
$LOFTANG2
 40
1.570796326795
  9
$LOFTMAG1
 40
0.0
  9
$LOFTMAG2
 40
0.0
  9
$LOFTPARAM
 70
7
  9
$LOFTNORMALS
280
1
  9
$LATITUDE
 40
37.795
  9
$LONGITUDE
 40
-122.394
  9
$NORTHDIRECTION
 40
0.0
  9
$TIMEZONE
 70
-8000
  9
$LIGHTGLYPHDISPLAY
280
1
  9
$TILEMODELIGHTSYNCH
280
1
  9
$CMATERIAL
347
20
  9
$SOLIDHIST
280
0
  9
$SHOWHIST
280
1
  9
$DWFFRAME
280
2
  9
$DGNFRAME
280
2
  9
$REALWORLDSCALE
290
1
  9
$INTERFERECOLOR
 62
256
  9
$CSHADOW
280
0
  9
$SHADOWPLANELOCATION
 40
0.0
  0
ENDSEC
  0
SECTION
  2
CLASSES
  0
CLASS
  1
ACDBDICTIONARYWDFLT
  2
AcDbDictionaryWithDefault
  3
ObjectDBX Classes
 90
0
 91
0
280
0
281
0
  0
CLASS
  1
SUN
  2
AcDbSun
  3
SCENEOE
 90
1153
 91
0
280
0
281
0
  0
CLASS
  1
VISUALSTYLE
  2
AcDbVisualStyle
  3
ObjectDBX Classes
 90
4095
 91
0
280
0
281
0
  0
CLASS
  1
MATERIAL
  2
AcDbMaterial
  3
ObjectDBX Classes
 90
1153
 91
0
280
0
281
0
  0
CLASS
  1
SCALE
  2
AcDbScale
  3
ObjectDBX Classes
 90
1153
 91
0
280
0
281
0
  0
CLASS
  1
TABLESTYLE
  2
AcDbTableStyle
  3
ObjectDBX Classes
 90
4095
 91
0
280
0
281
0
  0
CLASS
  1
MLEADERSTYLE
  2
AcDbMLeaderStyle
  3
ACDB_MLEADERSTYLE_CLASS
 90
4095
 91
0
280
0
281
0
  0
CLASS
  1
DICTIONARYVAR
  2
AcDbDictionaryVar
  3
ObjectDBX Classes
 90
0
 91
0
280
0
281
0
  0
CLASS
  1
CELLSTYLEMAP
  2
AcDbCellStyleMap
  3
ObjectDBX Classes
 90
1152
 91
0
280
0
281
0
  0
CLASS
  1
MENTALRAYRENDERSETTINGS
  2
AcDbMentalRayRenderSettings
  3
SCENEOE
 90
1024
 91
0
280
0
281
0
  0
CLASS
  1
ACDBDETAILVIEWSTYLE
  2
AcDbDetailViewStyle
  3
ObjectDBX Classes
 90
1025
 91
0
280
0
281
0
  0
CLASS
  1
ACDBSECTIONVIEWSTYLE
  2
AcDbSectionViewStyle
  3
ObjectDBX Classes
 90
1025
 91
0
280
0
281
0
  0
CLASS
  1
RASTERVARIABLES
  2
AcDbRasterVariables
  3
ISM
 90
0
 91
0
280
0
281
0
  0
CLASS
  1
LAYOUT
  2
AcDbLayout
  3
ObjectDBX Classes
 90
0
 91
0
280
0
281
0
  0
CLASS
  1
ACDBPLACEHOLDER
  2
AcDbPlaceHolder
  3
ObjectDBX Classes
 90
0
 91
0
280
0
281
0
  0
ENDSEC
  0
SECTION
  2
TABLES
  0
TABLE
  2
VPORT
  5
8
330
0
100
AcDbSymbolTable
 70
1
  0
VPORT
  5
23
330
8
100
AcDbSymbolTableRecord
100
AcDbViewportTableRecord
  2
*Active
 70
0
 10
0.0
 20
0.0
 11
1.0
 21
1.0
 12
70.0
 22
50.0
 13
0.0
 23
0.0
 14
0.5
 24
0.5
 15
0.5
 25
0.5
 16
0.0
 26
0.0
 36
1.0
 17
0.0
 27
0.0
 37
0.0
 40
1.0
 41
1.34
 42
50.0
 43
0.0
 44
0.0
 50
0.0
 51
0.0
 71
0
 72
1000
 73
1
 74
3
 75
0
 76
0
 77
0
 78
0
281
0
 65
0
146
0.0
  0
ENDTAB
  0
TABLE
  2
LTYPE
  5
2
330
0
100
AcDbSymbolTable
 70
3
  0
LTYPE
  5
24
330
2
100
AcDbSymbolTableRecord
100
AcDbLinetypeTableRecord
  2
ByBlock
 70
0
  3

 72
65
 73
0
 40
0.0
  0
LTYPE
  5
25
330
2
100
AcDbSymbolTableRecord
100
AcDbLinetypeTableRecord
  2
ByLayer
 70
0
  3

 72
65
 73
0
 40
0.0
  0
LTYPE
  5
26
330
2
100
AcDbSymbolTableRecord
100
AcDbLinetypeTableRecord
  2
Continuous
 70
0
  3

 72
65
 73
0
 40
0.0
  0
ENDTAB
  0
TABLE
  2
LAYER
  5
1
330
0
100
AcDbSymbolTable
 70
2
  0
LAYER
  5
27
330
1
100
AcDbSymbolTableRecord
100
AcDbLayerTableRecord
  2
0
 70
0
 62
7
  6
Continuous
370
-3
390
13
347
21
  0
LAYER
  5
28
330
1
100
AcDbSymbolTableRecord
100
AcDbLayerTableRecord
  2
Defpoints
 70
0
 62
7
  6
Continuous
290
0
370
-3
390
13
347
21
  0
ENDTAB
  0
TABLE
  2
STYLE
  5
5
330
0
100
AcDbSymbolTable
 70
1
  0
STYLE
  5
29
330
5
100
AcDbSymbolTableRecord
100
AcDbTextStyleTableRecord
  2
Standard
 70
0
 40
0.0
 41
1.0
 50
0.0
 71
0
 42
2.5
  3
txt
  4

  0
ENDTAB
  0
TABLE
  2
VIEW
  5
7
330
0
100
AcDbSymbolTable
 70
0
  0
ENDTAB
  0
TABLE
  2
UCS
  5
6
330
0
100
AcDbSymbolTable
 70
0
  0
ENDTAB
  0
TABLE
  2
APPID
  5
3
330
0
100
AcDbSymbolTable
 70
2
  0
APPID
  5
2A
330
3
100
AcDbSymbolTableRecord
100
AcDbRegAppTableRecord
  2
ACAD
 70
0
  0
APPID
  5
69
330
3
100
AcDbSymbolTableRecord
100
AcDbRegAppTableRecord
  2
HATCHBACKGROUNDCOLOR
 70
0
  0
ENDTAB
  0
TABLE
  2
DIMSTYLE
  5
4
330
0
100
AcDbSymbolTable
 70
1
100
AcDbDimStyleTable
  0
DIMSTYLE
105
2B
330
4
100
AcDbSymbolTableRecord
100
AcDbDimStyleTableRecord
  2
Standard
 70
0
 40
1.0
 41
2.5
 42
0.625
 43
3.75
 44
1.25
 45
0.0
 46
0.0
 47
0.0
 48
0.0
 49
2.5
140
2.5
141
2.5
142
0.0
143
0.03937007874
144
1.0
145
0.0
146
1.0
147
0.625
148
0.0
 69
0
 70
0
 71
0
 72
0
 73
0
 74
0
 75
0
 76
0
 77
1
 78
8
 79
0
170
0
171
3
172
1
173
0
174
0
175
0
176
0
177
0
178
0
179
0
271
0
272
2
273
2
274
3
275
0
276
0
277
2
278
44
279
0
280
0
281
0
282
0
283
0
284
8
285
0
286
0
288
0
289
3
290
0
371
-2
372
-2
  0
ENDTAB
  0
TABLE
  2
BLOCK_RECORD
  5
9
330
0
100
AcDbSymbolTable
 70
2
  0
BLOCK_RECORD
  5
17
330
9
100
AcDbSymbolTableRecord
100
AcDbBlockTableRecord
  2
*Model_Space
340
1A
 70
0
280
1
281
0
  0
BLOCK_RECORD
  5
1B
330
9
100
AcDbSymbolTableRecord
100
AcDbBlockTableRecord
  2
*Paper_Space
340
1E
 70
0
280
1
281
0
  0
ENDTAB
  0
ENDSEC
  0
SECTION
  2
BLOCKS
  0
BLOCK
  5
18
330
17
100
AcDbEntity
  8
0
100
AcDbBlockBegin
  2
*Model_Space
 70
0
 10
0.0
 20
0.0
 30
0.0
  3
*Model_Space
  1

  0
ENDBLK
  5
19
330
17
100
AcDbEntity
  8
0
100
AcDbBlockEnd
  0
BLOCK
  5
1C
330
1B
100
AcDbEntity
  8
0
100
AcDbBlockBegin
  2
*Paper_Space
 70
0
 10
0.0
 20
0.0
 30
0.0
  3
*Paper_Space
  1

  0
ENDBLK
  5
1D
330
1B
100
AcDbEntity
  8
0
100
AcDbBlockEnd
  0
ENDSEC
  0
SECTION
  2
ENTITIES
  0
LWPOLYLINE
  5
2D
330
17
100
AcDbEntity
  8
0
100
AcDbPolyline
 90
92
 70
0
 10
-0.23408203124999982
 20
-11.19843750000003
 10
-0.23408203124999982
 20
-11.360156250000028
 10
-0.2347929687499999
 20
-11.416718750000028
 10
-0.2369257812499992
 20
-11.470468750000029
 10
-0.2404804687500004
 20
-11.521406250000028
 10
-0.24545703124999996
 20
-11.56953125000003
 10
-0.25185546874999964
 20
-11.614843750000029
 10
-0.25967578125000035
 20
-11.657343750000027
 10
-0.2689179687500003
 20
-11.697031250000029
 10
-0.2795820312499986
 20
-11.733906250000029
 10
-0.2916679687499997
 20
-11.767968750000028
 10
-0.30517578125
 20
-11.799218750000028
 10
-0.3248164062500001
 20
-11.836992187500028
 10
-0.3465507812499995
 20
-11.873125000000028
 10
-0.37037890625000003
 20
-11.907617187500028
 10
-0.3963007812499999
 20
-11.94046875000003
 10
-0.42431640625
 20
-11.971679687500028
 10
-0.4544257812500003
 20
-12.001250000000029
 10
-0.48662890625
 20
-12.029179687500028
 10
-0.520925781249999
 20
-12.055468750000028
 10
-0.5573164062499991
 20
-12.08011718750003
 10
-0.5958007812499995
 20
-12.103125000000029
 10
-0.6358945312499991
 20
-12.124203125000028
 10
-0.6771132812499996
 20
-12.143062500000028
 10
-0.7194570312500002
 20
-12.159703125000028
 10
-0.7629257812499999
 20
-12.174125000000029
 10
-0.8075195312499996
 20
-12.186328125000028
 10
-0.8532382812500003
 20
-12.196312500000028
 10
-0.9000820312500002
 20
-12.204078125000029
 10
-0.9480507812499992
 20
-12.209625000000027
 10
-0.99714453125
 20
-12.212953125000029
 10
-1.04736328125
 20
-12.21406250000003
 10
-1.0973867187499997
 20
-12.212890625000028
 10
-1.1449570312499997
 20
-12.209375000000028
 10
-1.1900742187499995
 20
-12.203515625000028
 10
-1.23273828125
 20
-12.195312500000028
 10
-1.27294921875
 20
-12.18476562500003
 10
-1.3107070312499998
 20
-12.171875000000028
 10
-1.3460117187499998
 20
-12.156640625000028
 10
-1.3788632812499988
 20
-12.139062500000028
 10
-1.4092617187499994
 20
-12.119140625000028
 10
-1.4372070312499998
 20
-12.09687500000003
 10
-1.4624414062499995
 20
-12.072851562500029
 10
-1.4850195312499994
 20
-12.047656250000028
 10
-1.50494140625
 20
-12.021289062500028
 10
-1.5222070312499998
 20
-11.993750000000029
 10
-1.5368164062499998
 20
-11.96503906250003
 10
-1.5487695312499996
 20
-11.935156250000029
 10
-1.5580664062499996
 20
-11.904101562500028
 10
-1.5647070312499989
 20
-11.871875000000028
 10
-1.5686914062499997
 20
-11.838476562500029
 10
-1.5700195312499998
 20
-11.80390625000003
 10
-1.56941015625
 20
-11.781148437500029
 10
-1.5675820312499993
 20
-11.758812500000028
 10
-1.5645351562499998
 20
-11.73689843750003
 10
-1.5602695312499995
 20
-11.71540625000003
 10
-1.5547851562499995
 20
-11.694335937500028
 10
-1.5480820312499994
 20
-11.673687500000028
 10
-1.5401601562499998
 20
-11.653460937500029
 10
-1.5310195312499992
 20
-11.633656250000028
 10
-1.5206601562499995
 20
-11.614273437500028
 10
-1.5090820312499997
 20
-11.595312500000029
 10
-1.4962382812499997
 20
-11.577015625000028
 10
-1.4823945312499998
 20
-11.559625000000029
 10
-1.46755078125
 20
-11.543140625000028
 10
-1.4517070312499998
 20
-11.527562500000029
 10
-1.4348632812499997
 20
-11.51289062500003
 10
-1.4170195312499998
 20
-11.499125000000028
 10
-1.39817578125
 20
-11.486265625000028
 10
-1.3783320312499994
 20
-11.474312500000028
 10
-1.3574882812499998
 20
-11.463265625000028
 10
-1.3356445312499998
 20
-11.453125000000028
 10
-1.31155859375
 20
-11.443382812500028
 10
-1.2843007812499998
 20
-11.433843750000028
 10
-1.25387109375
 20
-11.424507812500028
 10
-1.2202695312499996
 20
-11.41537500000003
 10
-1.1834960937499996
 20
-11.40644531250003
 10
-1.14355078125
 20
-11.397718750000028
 10
-1.10043359375
 20
-11.389195312500028
 10
-1.054144531249999
 20
-11.380875000000028
 10
-1.0046835937499994
 20
-11.372757812500028
 10
-0.9520507812499996
 20
-11.364843750000029
 10
-0.8588085937500001
 20
-11.350804687500029
 10
-0.7703320312499997
 20
-11.336187500000028
 10
-0.6866210937500004
 20
-11.320992187500028
 10
-0.6076757812500002
 20
-11.305218750000028
 10
-0.5334960937499993
 20
-11.288867187500028
 10
-0.46408203125000025
 20
-11.271937500000028
 10
-0.39943359374999954
 20
-11.254429687500028
 10
-0.33955078124999893
 20
-11.236343750000028
 10
-0.2844335937499993
 20
-11.217679687500029
 10
-0.23408203124999982
 20
-11.19843750000003
  0
LWPOLYLINE
  5
2E
330
17
100
AcDbEntity
  8
0
100
AcDbPolyline
 90
92
 70
0
 10
575.1377765646939
 20
-11.19843750000003
 10
575.188128127194
 20
-11.217679687500029
 10
575.2432453146939
 20
-11.236343750000028
 10
575.303128127194
 20
-11.254429687500028
 10
575.3677765646939
 20
-11.271937500000028
 10
575.437190627194
 20
-11.288867187500028
 10
575.511370314694
 20
-11.305218750000028
 10
575.590315627194
 20
-11.320992187500028
 10
575.6740265646939
 20
-11.336187500000028
 10
575.762503127194
 20
-11.350804687500029
 10
575.855745314694
 20
-11.364843750000029
 10
575.9083781271939
 20
-11.372757812500028
 10
575.957839064694
 20
-11.380875000000028
 10
576.004128127194
 20
-11.389195312500028
 10
576.047245314694
 20
-11.397718750000028
 10
576.087190627194
 20
-11.40644531250003
 10
576.123964064694
 20
-11.41537500000003
 10
576.157565627194
 20
-11.424507812500028
 10
576.1879953146939
 20
-11.433843750000028
 10
576.2152531271939
 20
-11.443382812500028
 10
576.2393390646939
 20
-11.453125000000028
 10
576.2611828146939
 20
-11.463265625000028
 10
576.282026564694
 20
-11.474312500000028
 10
576.3018703146939
 20
-11.486265625000028
 10
576.320714064694
 20
-11.499125000000028
 10
576.338557814694
 20
-11.51289062500003
 10
576.3554015646939
 20
-11.527562500000029
 10
576.371245314694
 20
-11.543140625000028
 10
576.3860890646939
 20
-11.559625000000029
 10
576.399932814694
 20
-11.577015625000028
 10
576.412776564694
 20
-11.595312500000029
 10
576.4243546896939
 20
-11.614273437500028
 10
576.4347140646939
 20
-11.633656250000028
 10
576.4438546896939
 20
-11.653460937500029
 10
576.451776564694
 20
-11.673687500000028
 10
576.458479689694
 20
-11.694335937500028
 10
576.463964064694
 20
-11.71540625000003
 10
576.468229689694
 20
-11.73689843750003
 10
576.471276564694
 20
-11.758812500000028
 10
576.473104689694
 20
-11.781148437500029
 10
576.4737140646939
 20
-11.80390625000003
 10
576.4723859396939
 20
-11.838476562500029
 10
576.468401564694
 20
-11.871875000000028
 10
576.4617609396939
 20
-11.904101562500028
 10
576.4524640646939
 20
-11.935156250000029
 10
576.4405109396939
 20
-11.96503906250003
 10
576.425901564694
 20
-11.993750000000029
 10
576.408635939694
 20
-12.021289062500028
 10
576.388714064694
 20
-12.047656250000028
 10
576.366135939694
 20
-12.072851562500029
 10
576.3409015646939
 20
-12.09687500000003
 10
576.312956252194
 20
-12.119140625000028
 10
576.282557814694
 20
-12.139062500000028
 10
576.249706252194
 20
-12.156640625000028
 10
576.214401564694
 20
-12.171875000000028
 10
576.176643752194
 20
-12.18476562500003
 10
576.136432814694
 20
-12.195312500000028
 10
576.093768752194
 20
-12.203515625000028
 10
576.048651564694
 20
-12.209375000000028
 10
576.001081252194
 20
-12.212890625000028
 10
575.951057814694
 20
-12.21406250000003
 10
575.900839064694
 20
-12.212953125000029
 10
575.851745314694
 20
-12.209625000000027
 10
575.803776564694
 20
-12.204078125000029
 10
575.756932814694
 20
-12.196312500000028
 10
575.711214064694
 20
-12.186328125000028
 10
575.666620314694
 20
-12.174125000000029
 10
575.623151564694
 20
-12.159703125000028
 10
575.5808078146939
 20
-12.143062500000028
 10
575.5395890646939
 20
-12.124203125000028
 10
575.499495314694
 20
-12.103125000000029
 10
575.461010939694
 20
-12.08011718750003
 10
575.4246203146939
 20
-12.055468750000028
 10
575.3903234396939
 20
-12.029179687500028
 10
575.358120314694
 20
-12.001250000000029
 10
575.328010939694
 20
-11.971679687500028
 10
575.299995314694
 20
-11.94046875000003
 10
575.274073439694
 20
-11.907617187500028
 10
575.250245314694
 20
-11.873125000000028
 10
575.2285109396939
 20
-11.836992187500028
 10
575.208870314694
 20
-11.799218750000028
 10
575.1953625021939
 20
-11.767968750000028
 10
575.183276564694
 20
-11.733906250000029
 10
575.1726125021939
 20
-11.697031250000029
 10
575.163370314694
 20
-11.657343750000027
 10
575.155550002194
 20
-11.614843750000029
 10
575.149151564694
 20
-11.56953125000003
 10
575.144175002194
 20
-11.521406250000028
 10
575.1406203146939
 20
-11.470468750000029
 10
575.1384875021939
 20
-11.416718750000028
 10
575.1377765646939
 20
-11.360156250000028
 10
575.1377765646939
 20
-11.19843750000003
  0
LWPOLYLINE
  5
2F
330
17
100
AcDbEntity
  8
0
100
AcDbPolyline
 90
42
 70
0
 10
3.7232421875000004
 20
-10.954687500000029
 10
3.7294609375000007
 20
-10.888093750000028
 10
3.739367187500001
 20
-10.824250000000028
 10
3.7529609374999993
 20
-10.763156250000028
 10
3.770242187500001
 20
-10.704812500000028
 10
3.7912109375000007
 20
-10.649218750000028
 10
3.8158671875000003
 20
-10.596375000000029
 10
3.8442109375000015
 20
-10.546281250000028
 10
3.876242187500001
 20
-10.498937500000029
 10
3.9119609375000017
 20
-10.454343750000028
 10
3.9513671875000007
 20
-10.412500000000028
 10
3.9935859375000007
 20
-10.374054687500028
 10
4.037742187500001
 20
-10.33965625000003
 10
4.0838359375
 20
-10.309304687500028
 10
4.131867187500001
 20
-10.283000000000028
 10
4.181835937500001
 20
-10.260742187500028
 10
4.233742187500001
 20
-10.242531250000027
 10
4.287585937500001
 20
-10.228367187500028
 10
4.343367187500002
 20
-10.218250000000028
 10
4.401085937500001
 20
-10.212179687500027
 10
4.460742187500001
 20
-10.21015625000003
 10
4.526375000000002
 20
-10.212695312500028
 10
4.589523437500002
 20
-10.220312500000027
 10
4.650187500000001
 20
-10.233007812500029
 10
4.7083671875
 20
-10.250781250000028
 10
4.764062500000001
 20
-10.27363281250003
 10
4.817273437500001
 20
-10.301562500000028
 10
4.868
 20
-10.334570312500029
 10
4.9162421875000035
 20
-10.372656250000027
 10
4.9620000000000015
 20
-10.415820312500028
 10
5.005273437500001
 20
-10.46406250000003
 10
5.031539062500002
 20
-10.498359375000028
 10
5.055648437500002
 20
-10.535937500000028
 10
5.077601562500002
 20
-10.576796875000028
 10
5.0973984375000025
 20
-10.620937500000029
 10
5.115039062500001
 20
-10.668359375000028
 10
5.130523437500001
 20
-10.719062500000028
 10
5.143851562500002
 20
-10.773046875000029
 10
5.155023437500002
 20
-10.830312500000028
 10
5.1640390625000006
 20
-10.890859375000028
 10
5.1708984375
 20
-10.954687500000029
 10
3.7232421875000004
 20
-10.954687500000029
  0
LWPOLYLINE
  5
30
330
17
100
AcDbEntity
  8
0
100
AcDbPolyline
 90
5
 70
0
 10
282.451847266722
 20
-22.451847266721998
 10
-22.45184726672197
 20
-22.451847266721998
 10
-22.45184726672197
 20
742.451847266722
 10
282.451847266722
 20
742.451847266722
 10
282.451847266722
 20
-22.451847266721998
  0
LWPOLYLINE
  5
31
330
17
100
AcDbEntity
  8
0
100
AcDbPolyline
 90
28
 70
0
 10
80.0000000000001
 20
45.514424634841745
 10
80.0035796047809
 20
45.5164203952193
 10
80.02000000000008
 20
45.50000000000012
 10
80.02000000000008
 20
45.50000000000009
 10
80.02000000000022
 20
45.499999999999986
 10
80.05349710192127
 20
45.46650289807893
 10
80.0200000000001
 20
45.452627944162984
 10
80.0200000000001
 20
45.412866898110686
 10
80.0000000000001
 20
45.41611245131405
 10
80.0000000000001
 20
45.0200000000001
 10
80.0100000000001
 20
45.0200000000001
 10
80.01381966011259
 20
45.02618033988758
 10
80.02000000000008
 20
45.00000000000009
 10
109.97171572875261
 20
45.00000000000011
 10
110.00000000000007
 20
44.97171572875265
 10
110.00000000000007
 20
44.550024417161616
 10
110.0001950903221
 20
44.5501845236512
 10
110.18953218175996
 20
44.51252303456021
 10
110.19067889098632
 20
44.51299801707386
 10
110.49900008609193
 20
44.97420756113519
 10
110.49943304239032
 20
45.9318358853602
 10
110.43858012553227
 20
45.931863397760324
 10
110.4375997923649
 20
45.93305848798014
 10
110.44149239922254
 20
45.952627944163005
 10
110.00000000000006
 20
45.952627944163005
 10
80.0200000000001
 20
45.952627944162984
 10
80.0000000000001
 20
45.93262794416298
 10
80.0000000000001
 20
45.514424634841745
  0
LWPOLYLINE
  5
32
330
17
100
AcDbEntity
  8
0
100
AcDbPolyline
 90
48
 70
0
 10
140.00000000000009
 20
44.54890649945816
 10
140.00000000000009
 20
44.971715728752685
 10
140.02828427124751
 20
45.00000000000013
 10
169.97171572875254
 20
45.00000000000014
 10
169.99999999999997
 20
44.9717157287527
 10
169.99999999999997
 20
44.06737205583727
 10
170.01999999999998
 20
44.047372055837265
 10
199.98000000000002
 20
44.04737205583728
 10
199.99999999999997
 20
44.067372055837225
 10
199.99999999999997
 20
43.552452286543335
 10
200.1706358133778
 20
43.58639386014174
 10
200.17116093177557
 20
43.586611371303945
 10
200.33320882096996
 20
43.69488830918307
 10
200.3524837466539
 20
43.71416323486699
 10
200.46076068453266
 20
43.876211124060056
 10
200.46097819569485
 20
43.876736242457795
 10
200.49899999999997
 20
44.06788476080294
 10
200.49899999999997
 20
44.2748930505862
 10
199.98000000000002
 20
44.48986988945787
 10
199.98000000000002
 20
44.50000000000018
 10
199.9228168701603
 20
44.52368602791873
 10
199.98000000000002
 20
44.54737205583728
 10
199.98000000000002
 20
44.557502166379585
 10
200.49899999999997
 20
44.772479005251256
 10
200.49899999999997
 20
44.97948729503452
 10
200.46097819569485
 20
45.17063581337966
 10
200.46076068453266
 20
45.1711609317774
 10
200.3524837466539
 20
45.33320882097047
 10
200.33320882096996
 20
45.352483746654386
 10
200.17116093177557
 20
45.46076068453351
 10
200.1706358100021
 20
45.46097819709398
 10
199.99999999999997
 20
45.49492105384533
 10
199.99999999999997
 20
44.98000000000023
 10
199.98000000000002
 20
45.00000000000018
 10
170.02828427124746
 20
45.000000000000156
 10
170.00000000000003
 20
45.0282842712476
 10
170.00000000000003
 20
45.93262794416304
 10
169.98000000000002
 20
45.95262794416304
 10
140.00000000000006
 20
45.95262794416303
 10
139.55688408806603
 20
45.95262794416303
 10
139.56077239927149
 20
45.93220181992597
 10
139.55979003968002
 20
45.931014818233294
 10
139.5010000000001
 20
45.931014818233294
 10
139.5010000000001
 20
44.97443328899868
 10
139.8093212230435
 20
44.5129979698413
 10
139.8104706918169
 20
44.512521844285835
 10
139.99981050466613
 20
44.54906292040445
 10
140.00000000000009
 20
44.54890649945816
  0
LWPOLYLINE
  5
33
330
17
100
AcDbEntity
  8
0
100
AcDbPolyline
 90
48
 70
0
 10
50.00000000000001
 20
193.55245228654314
 10
50.00000000000001
 20
194.06737205583704
 10
50.019999999999996
 20
194.04737205583706
 10
79.97999999999999
 20
194.04737205583706
 10
79.99999999999999
 20
194.06737205583707
 10
79.99999999999999
 20
194.97171572875249
 10
80.02828427124744
 20
194.99999999999994
 10
109.97171572875256
 20
194.99999999999994
 10
110.00000000000001
 20
194.97171572875249
 10
110.00000000000001
 20
194.55002441716212
 10
110.00019509032202
 20
194.5501845236517
 10
110.18953218176156
 20
194.51252303456073
 10
110.1906788909879
 20
194.51299801707438
 10
110.49900008609187
 20
194.97420756113505
 10
110.49943304239025
 20
195.93183588536007
 10
110.43858012553271
 20
195.93186339776022
 10
110.43759979236535
 20
195.93305848798005
 10
110.441492399223
 20
195.95262794416288
 10
80.02000000000001
 20
195.95262794416288
 10
80.00000000000001
 20
195.93262794416287
 10
80.00000000000001
 20
195.02828427124746
 10
79.97171572875256
 20
195.0
 10
50.019999999999996
 20
195.0
 10
50.00000000000001
 20
194.98000000000002
 10
50.00000000000001
 20
194.99999999999997
 10
50.00000000000001
 20
195.49491976929392
 10
49.82936418662056
 20
195.46097819569488
 10
49.82883906822282
 20
195.46076068453266
 10
49.666791179029815
 20
195.352483746654
 10
49.64751625334586
 20
195.33320882097004
 10
49.53923931546667
 20
195.17116093177557
 10
49.53902180430447
 20
195.1706358133778
 10
49.50100000000001
 20
194.97948729503426
 10
49.50100000000001
 20
194.77247900525103
 10
50.019999999999996
 20
194.55750216637935
 10
50.019999999999996
 20
194.54737205583706
 10
50.07718312983967
 20
194.52368602791853
 10
50.019999999999996
 20
194.5
 10
50.019999999999996
 20
194.4898698894577
 10
49.50100000000001
 20
194.27489305058603
 10
49.50100000000001
 20
194.0678847608028
 10
49.53902180430447
 20
193.87673624245926
 10
49.53923931546667
 20
193.87621112406148
 10
49.64751625334586
 20
193.71416323486702
 10
49.666791179029815
 20
193.69488830918306
 10
49.82883906822282
 20
193.5866113713044
 10
49.82936418662056
 20
193.58639386014218
 10
50.00000000000001
 20
193.55245228654314
  0
LWPOLYLINE
  5
34
330
17
100
AcDbEntity
  8
0
100
AcDbPolyline
 90
47
 70
0
 10
140.00000000000003
 20
194.5489064994587
 10
140.00000000000003
 20
194.9717157287525
 10
140.02828427124746
 20
194.99999999999994
 10
169.97171572875254
 20
194.99999999999994
 10
169.99999999999997
 20
194.9717157287525
 10
169.99999999999997
 20
194.06737205583707
 10
170.01999999999998
 20
194.04737205583706
 10
199.98000000000002
 20
194.04737205583706
 10
199.99999999999997
 20
194.067372055837
 10
199.99999999999997
 20
193.55245228654312
 10
200.17063581337783
 20
193.58639386014153
 10
200.17116093177552
 20
193.5866113713037
 10
200.3332088209701
 20
193.69488830918297
 10
200.35248374665406
 20
193.71416323486693
 10
200.46076068453334
 20
193.8762111240615
 10
200.4609781956955
 20
193.8767362424592
 10
200.49899999999997
 20
194.06788476080274
 10
200.49899999999997
 20
194.27489305058594
 10
199.98000000000002
 20
194.48986988945757
 10
199.98000000000002
 20
194.5
 10
199.92281687016035
 20
194.52368602791853
 10
199.98000000000002
 20
194.54737205583706
 10
199.98000000000002
 20
194.5575021663795
 10
200.49899999999997
 20
194.7724790052511
 10
200.49899999999997
 20
194.97948729503432
 10
200.4609781956955
 20
195.17063581337786
 10
200.46076068453334
 20
195.17116093177555
 10
200.35248374665406
 20
195.33320882097013
 10
200.3332088209701
 20
195.3524837466541
 10
200.17116093177552
 20
195.46076068453337
 10
200.17063581000218
 20
195.46097819709377
 10
199.99999999999997
 20
195.49492105384516
 10
199.99999999999997
 20
194.98000000000005
 10
199.98000000000002
 20
195.0
 10
170.02828427124746
 20
195.0
 10
170.00000000000003
 20
195.02828427124743
 10
170.00000000000003
 20
195.93262794416287
 10
169.98000000000002
 20
195.95262794416288
 10
139.55688408806546
 20
195.95262794416288
 10
139.56077239927095
 20
195.93220181992584
 10
139.55979003967948
 20
195.93101481823314
 10
139.50100000000003
 20
195.93101481823314
 10
139.50100000000003
 20
194.9744332889985
 10
139.8093212230418
 20
194.51299796984182
 10
139.8104706918152
 20
194.51252184428634
 10
139.99981050466607
 20
194.549062920405
 10
140.00000000000003
 20
194.5489064994587
  0
LWPOLYLINE
  5
35
330
17
100
AcDbEntity
  8
0
100
AcDbPolyline
 90
9
 70
0
 10
50.020000000000095
 20
44.04737205583719
 10
79.98000000000008
 20
44.04737205583721
 10
80.00000000000007
 20
44.06737205583721
 10
80.00000000000009
 20
44.9800000000001
 10
79.98000000000009
 20
45.00000000000011
 10
50.020000000000095
 20
45.000000000000085
 10
50.00000000000009
 20
44.98000000000008
 10
50.00000000000009
 20
44.06737205583719
 10
50.020000000000095
 20
44.04737205583719
  0
LWPOLYLINE
  5
36
330
17
100
AcDbEntity
  8
0
100
AcDbPolyline
 90
34
 70
0
 10
200.49899999999997
 20
344.2748930505862
 10
199.98000000000002
 20
344.489869889458
 10
199.98000000000002
 20
344.4999999999999
 10
199.9228168701601
 20
344.5236860279185
 10
199.98000000000002
 20
344.5473720558371
 10
199.98000000000002
 20
344.557502166379
 10
200.49899999999997
 20
344.77247900525083
 10
200.49899999999997
 20
344.9794872950343
 10
200.46097819569553
 20
345.1706358133778
 10
200.46076068453334
 20
345.17116093177555
 10
200.3524837466538
 20
345.33320882097036
 10
200.33320882096984
 20
345.3524837466543
 10
200.1711609317599
 20
345.46076068453965
 10
200.1706358133621
 20
345.4609781957019
 10
199.99999999999997
 20
345.49491976929414
 10
199.99999999999997
 20
344.97999999999996
 10
199.98000000000002
 20
344.9999999999999
 10
170.02
 20
344.9999999999999
 10
170.02
 20
344.9899999999999
 10
170.0261803398874
 20
344.9861803398875
 10
169.99999999999997
 20
344.97999999999996
 10
169.99999999999997
 20
344.0673720558371
 10
170.01999999999998
 20
344.0473720558371
 10
199.98000000000002
 20
344.0473720558371
 10
199.99999999999997
 20
344.06737205583704
 10
199.99999999999997
 20
343.55245228654286
 10
200.1706358133621
 20
343.5863938601351
 10
200.1711609317599
 20
343.58661137129735
 10
200.33320882096984
 20
343.6948883091827
 10
200.3524837466538
 20
343.71416323486665
 10
200.46076068453334
 20
343.87621112406146
 10
200.46097819569553
 20
343.8767362424592
 10
200.49899999999997
 20
344.0678847608027
 10
200.49899999999997
 20
344.2748930505862
  0
LWPOLYLINE
  5
37
330
17
100
AcDbEntity
  8
0
100
AcDbPolyline
 90
34
 70
0
 10
200.49899999999997
 20
509.27489305058623
 10
199.98000000000002
 20
509.4898698894581
 10
199.98000000000002
 20
509.49999999999994
 10
199.9228168701601
 20
509.5236860279186
 10
199.98000000000002
 20
509.5473720558372
 10
199.98000000000002
 20
509.55750216637904
 10
200.49899999999997
 20
509.7724790052509
 10
200.49899999999997
 20
509.97948729503435
 10
200.46097819569553
 20
510.1706358133779
 10
200.46076068453334
 20
510.1711609317756
 10
200.3524837466538
 20
510.3332088209704
 10
200.33320882096984
 20
510.35248374665434
 10
200.1711609317599
 20
510.4607606845397
 10
200.1706358133621
 20
510.46097819570195
 10
199.99999999999997
 20
510.4949197692942
 10
199.99999999999997
 20
509.98
 10
199.98000000000002
 20
509.99999999999994
 10
170.02
 20
509.99999999999994
 10
170.02
 20
509.98999999999995
 10
170.02618033988745
 20
509.98618033988754
 10
169.99999999999997
 20
509.98
 10
169.99999999999997
 20
509.06737205583715
 10
170.01999999999998
 20
509.0473720558372
 10
199.98000000000002
 20
509.0473720558372
 10
199.99999999999997
 20
509.0673720558371
 10
199.99999999999997
 20
508.5524522865429
 10
200.1706358133621
 20
508.58639386013516
 10
200.1711609317599
 20
508.5866113712974
 10
200.33320882096984
 20
508.6948883091828
 10
200.3524837466538
 20
508.7141632348667
 10
200.46076068453334
 20
508.8762111240615
 10
200.46097819569553
 20
508.87673624245923
 10
200.49899999999997
 20
509.06788476080277
 10
200.49899999999997
 20
509.27489305058623
  0
LWPOLYLINE
  5
38
330
17
100
AcDbEntity
  8
0
100
AcDbPolyline
 90
32
 70
0
 10
49.50100000000011
 20
674.7724790052511
 10
50.020000000000095
 20
674.5575021663793
 10
50.020000000000095
 20
674.5473720558372
 10
50.07718312983991
 20
674.5236860279186
 10
50.020000000000095
 20
674.5
 10
50.020000000000095
 20
674.4898698894579
 10
49.50100000000011
 20
674.2748930505861
 10
49.50100000000011
 20
674.0678847608028
 10
49.539021804304554
 20
673.8767362424594
 10
49.53923931546677
 20
673.8762111240616
 10
49.647516253346545
 20
673.7141632348664
 10
49.666791179030525
 20
673.6948883091825
 10
49.82883906823887
 20
673.5866113712977
 10
49.82936418663645
 20
673.5863938601357
 10
50.00000000000011
 20
673.5524522865429
 10
50.00000000000011
 20
674.0673720558372
 10
50.020000000000095
 20
674.0473720558372
 10
79.98000000000008
 20
674.0473720558372
 10
80.00000000000007
 20
674.0673720558372
 10
80.00000000000007
 20
674.98
 10
79.98000000000008
 20
675.0
 10
50.020000000000095
 20
675.0
 10
50.00000000000011
 20
674.98
 10
50.00000000000011
 20
675.4949197692943
 10
49.82936418663645
 20
675.4609781957015
 10
49.82883906823887
 20
675.4607606845394
 10
49.666791179030525
 20
675.3524837466547
 10
49.647516253346545
 20
675.3332088209708
 10
49.53923931546677
 20
675.1711609317756
 10
49.539021804304554
 20
675.1706358133778
 10
49.50100000000011
 20
674.9794872950343
 10
49.50100000000011
 20
674.7724790052511
  0
LWPOLYLINE
  5
39
330
17
100
AcDbEntity
  8
0
100
AcDbPolyline
 90
33
 70
0
 10
49.50100000000011
 20
509.772479005251
 10
50.020000000000095
 20
509.5575021663793
 10
50.020000000000095
 20
509.5473720558372
 10
50.07718312983997
 20
509.52368602791853
 10
50.020000000000095
 20
509.49999999999994
 10
50.020000000000095
 20
509.4898698894578
 10
49.50100000000011
 20
509.2748930505861
 10
49.50100000000011
 20
509.06788476080294
 10
49.539021804304554
 20
508.8767362424594
 10
49.53923931546677
 20
508.87621112406157
 10
49.647516253346026
 20
508.7141632348671
 10
49.666791179030014
 20
508.6948883091831
 10
49.82883906823864
 20
508.5866113712981
 10
49.82936418663645
 20
508.58639386013584
 10
50.00000000000011
 20
508.552452286543
 10
50.00000000000011
 20
509.06737205583715
 10
50.020000000000095
 20
509.0473720558372
 10
79.98000000000008
 20
509.0473720558372
 10
80.00000000000007
 20
509.06737205583715
 10
80.00000000000007
 20
509.97999999999996
 10
79.98000000000008
 20
509.99999999999994
 10
50.020000000000095
 20
509.99999999999994
 10
50.00000000000011
 20
509.97999999999996
 10
50.00000000000011
 20
510.0
 10
50.00000000000011
 20
510.49491976929414
 10
49.82936418663645
 20
510.4609781957013
 10
49.82883906823864
 20
510.460760684539
 10
49.666791179030014
 20
510.352483746654
 10
49.647516253346026
 20
510.33320882097
 10
49.53923931546677
 20
510.17116093177555
 10
49.539021804304554
 20
510.1706358133777
 10
49.50100000000011
 20
509.9794872950342
 10
49.50100000000011
 20
509.772479005251
  0
LWPOLYLINE
  5
3A
330
17
100
AcDbEntity
  8
0
100
AcDbPolyline
 90
33
 70
0
 10
49.50100000000001
 20
344.77247900525094
 10
50.019999999999996
 20
344.55750216637927
 10
50.019999999999996
 20
344.5473720558371
 10
50.077183129839874
 20
344.52368602791853
 10
50.019999999999996
 20
344.4999999999999
 10
50.019999999999996
 20
344.48986988945774
 10
49.50100000000001
 20
344.27489305058606
 10
49.50100000000001
 20
344.0678847608029
 10
49.539021804304454
 20
343.87673624245934
 10
49.53923931546667
 20
343.8762111240615
 10
49.64751625334593
 20
343.71416323486704
 10
49.666791179029914
 20
343.69488830918306
 10
49.828839068238544
 20
343.58661137129803
 10
49.82936418663635
 20
343.5863938601358
 10
50.00000000000001
 20
343.5524522865429
 10
50.00000000000001
 20
344.0673720558371
 10
50.019999999999996
 20
344.0473720558371
 10
79.97999999999999
 20
344.0473720558371
 10
79.99999999999999
 20
344.0673720558371
 10
79.99999999999999
 20
344.9799999999999
 10
79.97999999999999
 20
344.9999999999999
 10
50.019999999999996
 20
344.9999999999999
 10
50.00000000000001
 20
344.9799999999999
 10
50.00000000000001
 20
344.99999999999994
 10
50.00000000000001
 20
345.4949197692941
 10
49.82936418663635
 20
345.4609781957012
 10
49.828839068238544
 20
345.46076068453897
 10
49.666791179029914
 20
345.35248374665395
 10
49.64751625334593
 20
345.33320882096996
 10
49.53923931546667
 20
345.1711609317755
 10
49.539021804304454
 20
345.17063581337766
 10
49.50100000000001
 20
344.9794872950341
 10
49.50100000000001
 20
344.77247900525094
  0
LWPOLYLINE
  5
3B
330
17
100
AcDbEntity
  8
0
100
AcDbPolyline
 90
33
 70
0
 10
272.5
 20
-10.000000000000028
 10
272.4519632010081
 20
-9.512274194959701
 10
272.30969883127824
 20
-9.043291419087298
 10
272.07867403075636
 20
-8.611074417451018
 10
271.7677669529664
 20
-8.232233047033654
 10
271.388925582549
 20
-7.921325969243661
 10
270.95670858091273
 20
-7.690301168721808
 10
270.4877258050403
 20
-7.548036798991951
 10
270.0
 20
-7.500000000000028
 10
269.5122741949597
 20
-7.548036798991954
 10
269.04329141908727
 20
-7.690301168721815
 10
268.611074417451
 20
-7.9213259692436715
 10
268.2322330470336
 20
-8.232233047033667
 10
267.92132596924364
 20
-8.61107441745103
 10
267.69030116872176
 20
-9.043291419087312
 10
267.5480367989919
 20
-9.512274194959716
 10
267.5
 20
-10.000000000000037
 10
267.5480367989919
 20
-10.487725805040357
 10
267.69030116872176
 20
-10.956708580912759
 10
267.92132596924364
 20
-11.388925582549039
 10
268.2322330470336
 20
-11.7677669529664
 10
268.611074417451
 20
-12.078674030756394
 10
269.04329141908727
 20
-12.309698831278247
 10
269.5122741949597
 20
-12.451963201008105
 10
270.0
 20
-12.500000000000028
 10
270.4877258050403
 20
-12.451963201008104
 10
270.95670858091273
 20
-12.309698831278244
 10
271.388925582549
 20
-12.07867403075639
 10
271.7677669529664
 20
-11.767766952966396
 10
272.07867403075636
 20
-11.388925582549033
 10
272.30969883127824
 20
-10.956708580912752
 10
272.4519632010081
 20
-10.487725805040348
 10
272.5
 20
-10.000000000000028
  0
LWPOLYLINE
  5
3C
330
17
100
AcDbEntity
  8
0
100
AcDbPolyline
 90
33
 70
0
 10
-7.5
 20
-10.000000000000028
 10
-7.548036798991925
 20
-9.512274194959701
 10
-7.690301168721785
 20
-9.043291419087298
 10
-7.92132596924364
 20
-8.611074417451018
 10
-8.232233047033636
 20
-8.232233047033654
 10
-8.611074417451
 20
-7.921325969243661
 10
-9.043291419087284
 20
-7.690301168721808
 10
-9.512274194959687
 20
-7.548036798991951
 10
-10.000000000000009
 20
-7.500000000000028
 10
-10.48772580504033
 20
-7.548036798991954
 10
-10.956708580912734
 20
-7.690301168721815
 10
-11.388925582549014
 20
-7.9213259692436715
 10
-11.767766952966376
 20
-8.232233047033667
 10
-12.078674030756368
 20
-8.61107441745103
 10
-12.30969883127822
 20
-9.043291419087312
 10
-12.451963201008077
 20
-9.512274194959716
 10
-12.5
 20
-10.000000000000037
 10
-12.451963201008075
 20
-10.487725805040357
 10
-12.309698831278215
 20
-10.956708580912759
 10
-12.07867403075636
 20
-11.388925582549039
 10
-11.767766952966365
 20
-11.7677669529664
 10
-11.388925582549001
 20
-12.078674030756394
 10
-10.95670858091272
 20
-12.309698831278247
 10
-10.487725805040316
 20
-12.451963201008105
 10
-9.999999999999996
 20
-12.500000000000028
 10
-9.512274194959677
 20
-12.451963201008104
 10
-9.043291419087273
 20
-12.309698831278244
 10
-8.611074417450993
 20
-12.07867403075639
 10
-8.23223304703363
 20
-11.767766952966396
 10
-7.921325969243636
 20
-11.388925582549033
 10
-7.690301168721783
 20
-10.956708580912752
 10
-7.548036798991923
 20
-10.487725805040348
 10
-7.5
 20
-10.000000000000028
  0
LWPOLYLINE
  5
3D
330
17
100
AcDbEntity
  8
0
100
AcDbPolyline
 90
33
 70
0
 10
272.5
 20
730.0
 10
272.4519632010081
 20
730.4877258050403
 10
272.30969883127824
 20
730.9567085809127
 10
272.07867403075636
 20
731.3889255825491
 10
271.7677669529664
 20
731.7677669529663
 10
271.388925582549
 20
732.0786740307564
 10
270.95670858091273
 20
732.3096988312782
 10
270.4877258050403
 20
732.4519632010081
 10
270.0
 20
732.5
 10
269.5122741949597
 20
732.4519632010081
 10
269.04329141908727
 20
732.3096988312782
 10
268.611074417451
 20
732.0786740307564
 10
268.2322330470336
 20
731.7677669529663
 10
267.92132596924364
 20
731.388925582549
 10
267.69030116872176
 20
730.9567085809127
 10
267.5480367989919
 20
730.4877258050403
 10
267.5
 20
730.0
 10
267.5480367989919
 20
729.5122741949597
 10
267.69030116872176
 20
729.0432914190873
 10
267.92132596924364
 20
728.6110744174509
 10
268.2322330470336
 20
728.2322330470337
 10
268.611074417451
 20
727.9213259692436
 10
269.04329141908727
 20
727.6903011687218
 10
269.5122741949597
 20
727.5480367989919
 10
270.0
 20
727.5
 10
270.4877258050403
 20
727.5480367989919
 10
270.95670858091273
 20
727.6903011687218
 10
271.388925582549
 20
727.9213259692436
 10
271.7677669529664
 20
728.2322330470337
 10
272.07867403075636
 20
728.611074417451
 10
272.30969883127824
 20
729.0432914190873
 10
272.4519632010081
 20
729.5122741949597
 10
272.5
 20
730.0
  0
LWPOLYLINE
  5
3E
330
17
100
AcDbEntity
  8
0
100
AcDbPolyline
 90
33
 70
0
 10
-7.5
 20
730.0
 10
-7.548036798991925
 20
730.4877258050403
 10
-7.690301168721785
 20
730.9567085809127
 10
-7.92132596924364
 20
731.3889255825491
 10
-8.232233047033636
 20
731.7677669529663
 10
-8.611074417451
 20
732.0786740307564
 10
-9.043291419087284
 20
732.3096988312782
 10
-9.512274194959687
 20
732.4519632010081
 10
-10.000000000000009
 20
732.5
 10
-10.48772580504033
 20
732.4519632010081
 10
-10.956708580912734
 20
732.3096988312782
 10
-11.388925582549014
 20
732.0786740307564
 10
-11.767766952966376
 20
731.7677669529663
 10
-12.078674030756368
 20
731.388925582549
 10
-12.30969883127822
 20
730.9567085809127
 10
-12.451963201008077
 20
730.4877258050403
 10
-12.5
 20
730.0
 10
-12.451963201008075
 20
729.5122741949597
 10
-12.309698831278215
 20
729.0432914190873
 10
-12.07867403075636
 20
728.6110744174509
 10
-11.767766952966365
 20
728.2322330470337
 10
-11.388925582549001
 20
727.9213259692436
 10
-10.95670858091272
 20
727.6903011687218
 10
-10.487725805040316
 20
727.5480367989919
 10
-9.999999999999996
 20
727.5
 10
-9.512274194959677
 20
727.5480367989919
 10
-9.043291419087273
 20
727.6903011687218
 10
-8.611074417450993
 20
727.9213259692436
 10
-8.23223304703363
 20
728.2322330470337
 10
-7.921325969243636
 20
728.611074417451
 10
-7.690301168721783
 20
729.0432914190873
 10
-7.548036798991923
 20
729.5122741949597
 10
-7.5
 20
730.0
  0
LWPOLYLINE
  5
3F
330
17
100
AcDbEntity
  8
0
100
AcDbPolyline
 90
7
 70
0
 10
-4.63359375
 20
-12.500000000000028
 10
-2.39765625
 20
-12.500000000000028
 10
-2.39765625
 20
-12.07734375000003
 10
-4.16015625
 20
-12.07734375000003
 10
-4.16015625
 20
-8.92109375000003
 10
-4.63359375
 20
-8.92109375000003
 10
-4.63359375
 20
-12.500000000000028
  0
LWPOLYLINE
  5
40
330
17
100
AcDbEntity
  8
0
100
AcDbPolyline
 90
46
 70
0
 10
10.758984375
 20
-12.500000000000028
 10
10.758984375
 20
-8.906250000000028
 10
10.476171875
 20
-8.906250000000028
 10
10.45159375
 20
-8.952804687500029
 10
10.423796875
 20
-8.99965625000003
 10
10.39278125
 20
-9.046804687500028
 10
10.358546875000002
 20
-9.094250000000027
 10
10.32109375
 20
-9.141992187500028
 10
10.280421875
 20
-9.190031250000029
 10
10.23653125
 20
-9.238367187500028
 10
10.189421875000003
 20
-9.287000000000027
 10
10.13909375
 20
-9.335929687500027
 10
10.085546875
 20
-9.385156250000028
 10
10.0294609375
 20
-9.433648437500029
 10
9.971515625000002
 20
-9.480687500000027
 10
9.9117109375
 20
-9.526273437500027
 10
9.850046875
 20
-9.570406250000028
 10
9.7865234375
 20
-9.613085937500028
 10
9.721140625000002
 20
-9.654312500000028
 10
9.6538984375
 20
-9.694085937500027
 10
9.584796875000004
 20
-9.732406250000029
 10
9.513835937500003
 20
-9.769273437500027
 10
9.441015625
 20
-9.804687500000028
 10
9.441015625
 20
-10.22968750000003
 10
9.482484375000002
 20
-10.213773437500029
 10
9.525015625000002
 20
-10.196343750000029
 10
9.568609375000001
 20
-10.177398437500027
 10
9.613265625
 20
-10.156937500000028
 10
9.658984375000001
 20
-10.13496093750003
 10
9.705765625000002
 20
-10.111468750000029
 10
9.753609375
 20
-10.086460937500028
 10
9.802515625000003
 20
-10.059937500000029
 10
9.852484375000003
 20
-10.031898437500027
 10
9.903515625
 20
-10.002343750000028
 10
9.9540859375
 20
-9.972039062500027
 10
10.002671875
 20
-9.941750000000027
 10
10.0492734375
 20
-9.911476562500027
 10
10.093890625
 20
-9.881218750000027
 10
10.1365234375
 20
-9.850976562500028
 10
10.177171875000003
 20
-9.820750000000029
 10
10.215835937500001
 20
-9.790539062500027
 10
10.252515625000004
 20
-9.760343750000027
 10
10.287210937500001
 20
-9.730164062500029
 10
10.319921875
 20
-9.700000000000028
 10
10.319921875
 20
-12.500000000000028
 10
10.758984375
 20
-12.500000000000028
  0
LWPOLYLINE
  5
41
330
17
100
AcDbEntity
  8
0
100
AcDbPolyline
 90
77
 70
0
 10
6.167285156250001
 20
-12.500000000000028
 10
6.606347656250001
 20
-12.500000000000028
 10
6.606347656250001
 20
-11.142187500000029
 10
6.607082031250002
 20
-11.087000000000028
 10
6.609285156250003
 20
-11.032687500000028
 10
6.6129570312500014
 20
-10.979250000000029
 10
6.618097656250001
 20
-10.926687500000028
 10
6.624707031250001
 20
-10.875000000000028
 10
6.632785156250003
 20
-10.82418750000003
 10
6.64233203125
 20
-10.774250000000029
 10
6.653347656250004
 20
-10.725187500000029
 10
6.665832031250002
 20
-10.677000000000028
 10
6.67978515625
 20
-10.629687500000028
 10
6.690136718750001
 20
-10.59957812500003
 10
6.70181640625
 20
-10.570812500000027
 10
6.71482421875
 20
-10.543390625000029
 10
6.729160156250002
 20
-10.517312500000028
 10
6.744824218750001
 20
-10.492578125000028
 10
6.76181640625
 20
-10.469187500000029
 10
6.780136718750001
 20
-10.447140625000028
 10
6.799785156250003
 20
-10.426437500000027
 10
6.820761718750001
 20
-10.407078125000028
 10
6.843066406250001
 20
-10.389062500000028
 10
6.866332031250002
 20
-10.372585937500029
 10
6.890191406250002
 20
-10.357843750000029
 10
6.914644531250001
 20
-10.34483593750003
 10
6.939691406250002
 20
-10.333562500000028
 10
6.965332031250002
 20
-10.324023437500028
 10
6.991566406250001
 20
-10.31621875000003
 10
7.018394531250001
 20
-10.310148437500029
 10
7.045816406250005
 20
-10.305812500000028
 10
7.073832031250001
 20
-10.303210937500028
 10
7.102441406250001
 20
-10.302343750000029
 10
7.134628906250001
 20
-10.30329687500003
 10
7.166816406250003
 20
-10.30615625000003
 10
7.199003906250001
 20
-10.310921875000028
 10
7.231191406250002
 20
-10.317593750000029
 10
7.263378906250001
 20
-10.326171875000028
 10
7.295566406250002
 20
-10.33665625000003
 10
7.327753906250001
 20
-10.349046875000028
 10
7.359941406250002
 20
-10.363343750000027
 10
7.392128906250001
 20
-10.379546875000027
 10
7.42431640625
 20
-10.39765625000003
 10
7.575878906250001
 20
-9.989843750000029
 10
7.530019531250002
 20
-9.962976562500028
 10
7.484316406250002
 20
-9.938937500000028
 10
7.438769531249999
 20
-9.917726562500029
 10
7.39337890625
 20
-9.899343750000028
 10
7.34814453125
 20
-9.883789062500028
 10
7.30306640625
 20
-9.87106250000003
 10
7.25814453125
 20
-9.861164062500027
 10
7.2133789062500036
 20
-9.854093750000029
 10
7.1687695312500015
 20
-9.849851562500028
 10
7.124316406250001
 20
-9.848437500000028
 10
7.093792968750002
 20
-9.849320312500028
 10
7.0637851562500025
 20
-9.851968750000028
 10
7.034292968750002
 20
-9.856382812500028
 10
7.0053164062499995
 20
-9.862562500000028
 10
6.976855468750001
 20
-9.870507812500028
 10
6.948910156250001
 20
-9.880218750000028
 10
6.921480468750001
 20
-9.891695312500028
 10
6.894566406250004
 20
-9.904937500000027
 10
6.868167968750001
 20
-9.919945312500028
 10
6.84228515625
 20
-9.93671875000003
 10
6.81642578125
 20
-9.956101562500027
 10
6.790097656250001
 20
-9.979250000000029
 10
6.763300781250001
 20
-10.006164062500028
 10
6.736035156250001
 20
-10.036843750000028
 10
6.708300781250001
 20
-10.071289062500028
 10
6.68009765625
 20
-10.109500000000029
 10
6.6514257812499995
 20
-10.15147656250003
 10
6.622285156250003
 20
-10.197218750000028
 10
6.592675781250001
 20
-10.246726562500028
 10
6.56259765625
 20
-10.30000000000003
 10
6.56259765625
 20
-9.907031250000028
 10
6.167285156250001
 20
-9.907031250000028
 10
6.167285156250001
 20
-12.500000000000028
  0
LWPOLYLINE
  5
42
330
17
100
AcDbEntity
  8
0
100
AcDbPolyline
 90
133
 70
0
 10
5.166210937500001
 20
-11.664843750000028
 10
5.1455
 20
-11.718960937500029
 10
5.123367187500001
 20
-11.770062500000028
 10
5.0998125000000005
 20
-11.818148437500028
 10
5.074835937500001
 20
-11.863218750000028
 10
5.048437500000002
 20
-11.905273437500028
 10
5.020617187500001
 20
-11.944312500000029
 10
4.991375
 20
-11.980335937500028
 10
4.960710937500002
 20
-12.013343750000029
 10
4.928625000000002
 20
-12.043335937500029
 10
4.8951171875
 20
-12.070312500000028
 10
4.8601953125
 20
-12.094359375000028
 10
4.823867187500001
 20
-12.115875000000027
 10
4.7861328125
 20
-12.134859375000028
 10
4.746992187500002
 20
-12.151312500000028
 10
4.706445312500001
 20
-12.16523437500003
 10
4.6644921875000005
 20
-12.176625000000028
 10
4.621132812500001
 20
-12.185484375000028
 10
4.5763671875000025
 20
-12.191812500000028
 10
4.530195312500002
 20
-12.195609375000029
 10
4.482617187500001
 20
-12.196875000000029
 10
4.418695312500001
 20
-12.194609375000029
 10
4.356929687500001
 20
-12.187812500000028
 10
4.2973203125
 20
-12.176484375000028
 10
4.2398671875
 20
-12.160625000000028
 10
4.1845703125
 20
-12.140234375000029
 10
4.131429687499999
 20
-12.115312500000028
 10
4.0804453125
 20
-12.085859375000028
 10
4.0316171875
 20
-12.051875000000027
 10
3.9849453125000007
 20
-12.013359375000029
 10
3.9404296875
 20
-11.970312500000029
 10
3.898921874999999
 20
-11.922843750000029
 10
3.8612734374999995
 20
-11.871375000000029
 10
3.827484375000001
 20
-11.815906250000028
 10
3.7975546875
 20
-11.756437500000029
 10
3.771484375
 20
-11.692968750000029
 10
3.749273437500001
 20
-11.625500000000029
 10
3.7309218750000017
 20
-11.554031250000028
 10
3.7164296875000034
 20
-11.478562500000029
 10
3.7057968750000008
 20
-11.399093750000029
 10
3.699023437500001
 20
-11.31562500000003
 10
5.632617187500001
 20
-11.31562500000003
 10
5.633062500000001
 20
-11.300390625000029
 10
5.633460937500001
 20
-11.285937500000028
 10
5.633812500000001
 20
-11.272265625000028
 10
5.634117187500001
 20
-11.259375000000029
 10
5.634375
 20
-11.24726562500003
 10
5.6345859375000025
 20
-11.235937500000029
 10
5.63475
 20
-11.225390625000028
 10
5.634867187500003
 20
-11.215625000000028
 10
5.634937500000003
 20
-11.206640625000029
 10
5.634960937500001
 20
-11.19843750000003
 10
5.6316640625000005
 20
-11.072882812500028
 10
5.621773437500002
 20
-10.95309375000003
 10
5.605289062500001
 20
-10.839070312500029
 10
5.582210937500001
 20
-10.730812500000027
 10
5.552539062499999
 20
-10.628320312500028
 10
5.516273437500002
 20
-10.531593750000027
 10
5.4734140625
 20
-10.440632812500029
 10
5.423960937500002
 20
-10.35543750000003
 10
5.367914062500002
 20
-10.276007812500028
 10
5.3052734375
 20
-10.20234375000003
 10
5.237429687500001
 20
-10.13510156250003
 10
5.1657734375
 20
-10.07493750000003
 10
5.0903046875
 20
-10.021851562500029
 10
5.0110234375000005
 20
-9.975843750000028
 10
4.927929687500001
 20
-9.936914062500028
 10
4.8410234375000005
 20
-9.905062500000028
 10
4.7503046875
 20
-9.880289062500028
 10
4.655773437500002
 20
-9.862593750000027
 10
4.557429687500001
 20
-9.851976562500028
 10
4.455273437500001
 20
-9.848437500000028
 10
4.3499218750000015
 20
-9.85205468750003
 10
4.248554687500002
 20
-9.862906250000028
 10
4.151171874999999
 20
-9.880992187500027
 10
4.0577734375
 20
-9.906312500000027
 10
3.9683593750000004
 20
-9.938867187500028
 10
3.882929687500001
 20
-9.978656250000029
 10
3.801484375000001
 20
-10.025679687500029
 10
3.7240234375000014
 20
-10.079937500000028
 10
3.650546875
 20
-10.141429687500029
 10
3.5810546875
 20
-10.21015625000003
 10
3.5170781249999994
 20
-10.285281250000029
 10
3.459835937500001
 20
-10.366281250000029
 10
3.409328125
 20
-10.453156250000028
 10
3.3655546875000013
 20
-10.545906250000028
 10
3.3285156250000014
 20
-10.644531250000028
 10
3.2982109375000004
 20
-10.749031250000028
 10
3.2746406250000017
 20
-10.859406250000028
 10
3.257804687500002
 20
-10.975656250000029
 10
3.247703125000001
 20
-11.097781250000029
 10
3.2443359375000007
 20
-11.22578125000003
 10
3.247671875
 20
-11.349375000000029
 10
3.2576796875000014
 20
-11.467343750000028
 10
3.2743593749999995
 20
-11.579687500000029
 10
3.2977109374999998
 20
-11.686406250000028
 10
3.327734375000002
 20
-11.787500000000028
 10
3.3644296875000013
 20
-11.882968750000028
 10
3.4077968750000007
 20
-11.972812500000028
 10
3.4578359375000023
 20
-12.057031250000028
 10
3.5145468750000024
 20
-12.135625000000028
 10
3.577929687500001
 20
-12.208593750000029
 10
3.647000000000002
 20
-12.275093750000028
 10
3.7207734375
 20
-12.334593750000028
 10
3.7992500000000007
 20
-12.387093750000028
 10
3.8824296875
 20
-12.432593750000029
 10
3.9703125000000004
 20
-12.471093750000028
 10
4.0628984374999995
 20
-12.50259375000003
 10
4.160187499999999
 20
-12.527093750000029
 10
4.262179687500003
 20
-12.544593750000029
 10
4.368875000000001
 20
-12.555093750000028
 10
4.480273437500001
 20
-12.558593750000028
 10
4.568976562500001
 20
-12.556398437500029
 10
4.6544609375000014
 20
-12.549812500000028
 10
4.736726562500001
 20
-12.538835937500028
 10
4.815773437500001
 20
-12.523468750000028
 10
4.891601562500002
 20
-12.503710937500028
 10
4.964210937499999
 20
-12.479562500000029
 10
5.033601562500003
 20
-12.451023437500028
 10
5.0997734375000014
 20
-12.418093750000029
 10
5.162726562500001
 20
-12.380773437500029
 10
5.222460937500001
 20
-12.33906250000003
 10
5.278750000000002
 20
-12.293226562500028
 10
5.3313671875000015
 20
-12.243843750000028
 10
5.3803125000000005
 20
-12.190914062500028
 10
5.425585937500001
 20
-12.134437500000029
 10
5.467187500000001
 20
-12.07441406250003
 10
5.5051171875
 20
-12.010843750000028
 10
5.5393750000000015
 20
-11.943726562500029
 10
5.569960937500001
 20
-11.873062500000028
 10
5.596875000000001
 20
-11.798851562500028
 10
5.6201171875
 20
-11.721093750000028
 10
5.166210937500001
 20
-11.664843750000028
  0
LWPOLYLINE
  5
43
330
17
100
AcDbEntity
  8
0
100
AcDbPolyline
 90
244
 70
0
 10
-0.19736328124999947
 20
-12.180468750000028
 10
-0.19297265624999937
 20
-12.216570312500028
 10
-0.1876132812499991
 20
-12.251750000000028
 10
-0.18128515624999952
 20
-12.286007812500028
 10
-0.17398828124999888
 20
-12.319343750000028
 10
-0.16572265624999982
 20
-12.35175781250003
 10
-0.1564882812499988
 20
-12.383250000000029
 10
-0.14628515624999938
 20
-12.413820312500029
 10
-0.13511328124999888
 20
-12.443468750000028
 10
-0.12297265624999909
 20
-12.472195312500029
 10
-0.10986328125
 20
-12.500000000000028
 10
0.34951171875000053
 20
-12.500000000000028
 10
0.33334765625000085
 20
-12.470031250000028
 10
0.3182929687500007
 20
-12.439812500000029
 10
0.30434765625000004
 20
-12.409343750000028
 10
0.2915117187500007
 20
-12.378625000000028
 10
0.27978515625
 20
-12.347656250000028
 10
0.2691679687499997
 20
-12.316437500000028
 10
0.25966015624999983
 20
-12.28496875000003
 10
0.25126171875000125
 20
-12.253250000000028
 10
0.2439726562500013
 20
-12.221281250000029
 10
0.23779296875
 20
-12.189062500000029
 10
0.23244921875000024
 20
-12.152054687500028
 10
0.2276679687500005
 20
-12.10603125000003
 10
0.2234492187500008
 20
-12.050992187500029
 10
0.2197929687500002
 20
-11.986937500000028
 10
0.21669921875000053
 20
-11.913867187500028
 10
0.21416796875000088
 20
-11.831781250000029
 10
0.21219921875000125
 20
-11.740679687500029
 10
0.21079296875000164
 20
-11.640562500000028
 10
0.20994921875000117
 20
-11.531429687500028
 10
0.2096679687500007
 20
-11.41328125000003
 10
0.2096679687500007
 20
-10.82734375000003
 10
0.20944921875000055
 20
-10.770562500000029
 10
0.20879296875000097
 20
-10.717406250000028
 10
0.20769921875000108
 20
-10.667875000000029
 10
0.20616796875000087
 20
-10.621968750000029
 10
0.20419921875000036
 20
-10.579687500000029
 10
0.2017929687500013
 20
-10.541031250000028
 10
0.19894921875000104
 20
-10.506000000000029
 10
0.19566796875000136
 20
-10.474593750000029
 10
0.19194921875000048
 20
-10.446812500000028
 10
0.18779296875000018
 20
-10.422656250000028
 10
0.1793945312500007
 20
-10.387039062500028
 10
0.16982421875000053
 20
-10.352687500000028
 10
0.15908203124999964
 20
-10.31960156250003
 10
0.1471679687500007
 20
-10.287781250000029
 10
0.13408203125000018
 20
-10.257226562500028
 10
0.11982421874999982
 20
-10.227937500000028
 10
0.10439453124999964
 20
-10.199914062500028
 10
0.08779296875000142
 20
-10.173156250000028
 10
0.07001953124999982
 20
-10.147664062500027
 10
0.05107421875000018
 20
-10.123437500000028
 10
0.03044140625000047
 20
-10.100093750000028
 10
0.007605468750000455
 20
-10.077562500000028
 10
-0.017433593749999865
 20
-10.05584375000003
 10
-0.0446757812499996
 20
-10.034937500000028
 10
-0.07412109374999964
 20
-10.01484375000003
 10
-0.10576953124999999
 20
-9.995562500000029
 10
-0.13962109374999887
 20
-9.977093750000028
 10
-0.17567578124999983
 20
-9.959437500000028
 10
-0.2139335937500002
 20
-9.942593750000029
 10
-0.25439453125
 20
-9.926562500000028
 10
-0.2970507812500003
 20
-9.911718750000029
 10
-0.34220703125000007
 20
-9.898437500000028
 10
-0.38986328124999936
 20
-9.886718750000028
 10
-0.44001953124999993
 20
-9.876562500000027
 10
-0.49267578125
 20
-9.867968750000028
 10
-0.5478320312499996
 20
-9.860937500000029
 10
-0.6054882812499995
 20
-9.855468750000028
 10
-0.665644531249999
 20
-9.851562500000028
 10
-0.7283007812499998
 20
-9.849218750000027
 10
-0.79345703125
 20
-9.848437500000028
 10
-0.85952734375
 20
-9.849359375000027
 10
-0.9239882812499998
 20
-9.852125000000028
 10
-0.9868398437499994
 20
-9.856734375000029
 10
-1.0480820312499999
 20
-9.863187500000027
 10
-1.1077148437499997
 20
-9.871484375000028
 10
-1.16573828125
 20
-9.881625000000028
 10
-1.2221523437499995
 20
-9.893609375000029
 10
-1.276957031249999
 20
-9.907437500000029
 10
-1.33015234375
 20
-9.923109375000028
 10
-1.3817382812499996
 20
-9.94062500000003
 10
-1.43132421875
 20
-9.959687500000028
 10
-1.4785195312499995
 20
-9.980312500000029
 10
-1.52332421875
 20
-10.002500000000028
 10
-1.5657382812499998
 20
-10.026250000000028
 10
-1.6057617187499997
 20
-10.051562500000028
 10
-1.6433945312499998
 20
-10.078437500000028
 10
-1.6786367187499995
 20
-10.106875000000027
 10
-1.711488281249999
 20
-10.136875000000028
 10
-1.7419492187499999
 20
-10.168437500000028
 10
-1.77001953125
 20
-10.201562500000028
 10
-1.7961367187499997
 20
-10.236531250000029
 10
-1.8207382812499997
 20
-10.273625000000028
 10
-1.84382421875
 20
-10.312843750000027
 10
-1.8653945312499998
 20
-10.354187500000029
 10
-1.8854492187499998
 20
-10.39765625000003
 10
-1.9039882812499997
 20
-10.443250000000027
 10
-1.92101171875
 20
-10.490968750000029
 10
-1.9365195312499992
 20
-10.540812500000028
 10
-1.95051171875
 20
-10.592781250000028
 10
-1.96298828125
 20
-10.646875000000028
 10
-1.53330078125
 20
-10.705468750000028
 10
-1.5183164062499999
 20
-10.651984375000028
 10
-1.5018007812499996
 20
-10.601843750000029
 10
-1.4837539062499996
 20
-10.555046875000029
 10
-1.4641757812499998
 20
-10.511593750000028
 10
-1.4430664062499998
 20
-10.471484375000028
 10
-1.4204257812499996
 20
-10.434718750000028
 10
-1.3962539062500001
 20
-10.401296875000028
 10
-1.370550781249999
 20
-10.371218750000029
 10
-1.3433164062499996
 20
-10.344484375000029
 10
-1.31455078125
 20
-10.321093750000028
 10
-1.28339453125
 20
-10.300460937500027
 10
-1.2489882812499995
 20
-10.282000000000028
 10
-1.2113320312499996
 20
-10.265710937500028
 10
-1.1704257812499996
 20
-10.251593750000028
 10
-1.1262695312499997
 20
-10.239648437500028
 10
-1.0788632812499999
 20
-10.229875000000028
 10
-1.0282070312499996
 20
-10.222273437500029
 10
-0.9743007812499993
 20
-10.216843750000027
 10
-0.91714453125
 20
-10.213585937500028
 10
-0.8567382812500002
 20
-10.212500000000029
 10
-0.7919726562500005
 20
-10.213984375000027
 10
-0.7304882812500004
 20
-10.218437500000029
 10
-0.6722851562500001
 20
-10.225859375000027
 10
-0.6173632812500003
 20
-10.236250000000028
 10
-0.5657226562500002
 20
-10.249609375000029
 10
-0.5173632812499998
 20
-10.265937500000028
 10
-0.4722851562500008
 20
-10.285234375000028
 10
-0.4304882812500006
 20
-10.307500000000028
 10
-0.3919726562500001
 20
-10.332734375000028
 10
-0.3567382812500002
 20
-10.360937500000029
 10
-0.3329882812499996
 20
-10.384554687500028
 10
-0.31173828125000025
 20
-10.411343750000029
 10
-0.2929882812500004
 20
-10.441304687500029
 10
-0.2767382812500001
 20
-10.474437500000029
 10
-0.2629882812500002
 20
-10.510742187500028
 10
-0.25173828124999975
 20
-10.550218750000028
 10
-0.2429882812500006
 20
-10.592867187500028
 10
-0.23673828125000007
 20
-10.638687500000028
 10
-0.23298828125000082
 20
-10.687679687500028
 10
-0.23173828125000018
 20
-10.739843750000029
 10
-0.2317617187500005
 20
-10.745351562500028
 10
-0.23183203125000063
 20
-10.752187500000028
 10
-0.23194921874999963
 20
-10.760351562500029
 10
-0.2321132812500002
 20
-10.769843750000028
 10
-0.23232421874999964
 20
-10.780664062500028
 10
-0.23258203125000065
 20
-10.792812500000029
 10
-0.23288671874999967
 20
-10.806289062500028
 10
-0.23323828124999935
 20
-10.821093750000028
 10
-0.2336367187499997
 20
-10.837226562500028
 10
-0.23408203124999982
 20
-10.85468750000003
 10
-0.28719921874999965
 20
-10.871945312500028
 10
-0.3459257812499992
 20
-10.888718750000027
 10
-0.41026171875000017
 20
-10.905007812500028
 10
-0.48020703124999997
 20
-10.920812500000029
 10
-0.5557617187500004
 20
-10.936132812500029
 10
-0.6369257812500004
 20
-10.950968750000028
 10
-0.7236992187500002
 20
-10.965320312500028
 10
-0.8160820312499988
 20
-10.979187500000029
 10
-0.9140742187499997
 20
-10.992570312500028
 10
-1.01767578125
 20
-11.005468750000029
 10
-1.0686914062500001
 20
-11.011898437500028
 10
-1.1170507812499997
 20
-11.018375000000027
 10
-1.1627539062499999
 20
-11.024898437500028
 10
-1.2058007812499998
 20
-11.031468750000029
 10
-1.24619140625
 20
-11.038085937500028
 10
-1.2839257812499998
 20
-11.044750000000029
 10
-1.3190039062499999
 20
-11.051460937500028
 10
-1.3514257812499992
 20
-11.058218750000028
 10
-1.3811914062499997
 20
-11.065023437500027
 10
-1.40830078125
 20
-11.071875000000029
 10
-1.4431054687499998
 20
-11.082031250000028
 10
-1.4772070312499999
 20
-11.093125000000029
 10
-1.5106054687499997
 20
-11.105156250000029
 10
-1.5433007812500001
 20
-11.118125000000028
 10
-1.57529296875
 20
-11.13203125000003
 10
-1.6065820312500003
 20
-11.146875000000028
 10
-1.63716796875
 20
-11.162656250000028
 10
-1.6670507812499995
 20
-11.179375000000029
 10
-1.69623046875
 20
-11.197031250000029
 10
-1.72470703125
 20
-11.215625000000028
 10
-1.75229296875
 20
-11.235312500000028
 10
-1.7788007812499993
 20
-11.256250000000028
 10
-1.8042304687500001
 20
-11.278437500000027
 10
-1.8285820312499999
 20
-11.301875000000027
 10
-1.8518554687499997
 20
-11.326562500000028
 10
-1.8740507812499998
 20
-11.352500000000028
 10
-1.8951679687499996
 20
-11.379687500000028
 10
-1.9152070312499996
 20
-11.408125000000028
 10
-1.9341679687499993
 20
-11.437812500000028
 10
-1.9520507812499996
 20
-11.468750000000028
 10
-1.96852734375
 20
-11.50049218750003
 10
-1.9832695312499995
 20
-11.532906250000028
 10
-1.99627734375
 20
-11.56599218750003
 10
-2.00755078125
 20
-11.599750000000029
 10
-2.0170898437499996
 20
-11.634179687500028
 10
-2.0248945312499997
 20
-11.669281250000028
 10
-2.0309648437499996
 20
-11.705054687500029
 10
-2.0353007812499992
 20
-11.741500000000029
 10
-2.0379023437499995
 20
-11.778617187500029
 10
-2.03876953125
 20
-11.816406250000028
 10
-2.0364726562499995
 20
-11.880242187500029
 10
-2.0295820312499995
 20
-11.941750000000027
 10
-2.01809765625
 20
-12.000929687500028
 10
-2.00201953125
 20
-12.057781250000028
 10
-1.9813476562499996
 20
-12.112304687500028
 10
-1.9560820312499998
 20
-12.164500000000029
 10
-1.9262226562499998
 20
-12.214367187500029
 10
-1.8917695312499996
 20
-12.261906250000028
 10
-1.8527226562499997
 20
-12.307117187500028
 10
-1.80908203125
 20
-12.350000000000028
 10
-1.7611679687499997
 20
-12.389632812500029
 10
-1.70930078125
 20
-12.425093750000029
 10
-1.6534804687500002
 20
-12.456382812500028
 10
-1.5937070312500001
 20
-12.483500000000028
 10
-1.5299804687499998
 20
-12.506445312500029
 10
-1.4623007812499997
 20
-12.525218750000029
 10
-1.3906679687499994
 20
-12.539820312500028
 10
-1.3150820312499993
 20
-12.550250000000029
 10
-1.235542968749999
 20
-12.556507812500028
 10
-1.1520507812499998
 20
-12.558593750000028
 10
-1.1006601562499996
 20
-12.557742187500029
 10
-1.0499257812499994
 20
-12.555187500000029
 10
-0.99984765625
 20
-12.550929687500028
 10
-0.9504257812499999
 20
-12.544968750000029
 10
-0.9016601562500002
 20
-12.53730468750003
 10
-0.8535507812500001
 20
-12.527937500000029
 10
-0.8060976562499995
 20
-12.51686718750003
 10
-0.7593007812499986
 20
-12.504093750000028
 10
-0.7131601562499998
 20
-12.489617187500029
 10
-0.6676757812499998
 20
-12.473437500000028
 10
-0.62233203125
 20
-12.455039062500028
 10
-0.5766132812499993
 20
-12.434218750000028
 10
-0.5305195312499995
 20
-12.410976562500029
 10
-0.4840507812499997
 20
-12.385312500000028
 10
-0.4372070312499998
 20
-12.357226562500028
 10
-0.38998828124999996
 20
-12.326718750000028
 10
-0.3423945312500001
 20
-12.293789062500029
 10
-0.2944257812499984
 20
-12.258437500000028
 10
-0.2460820312499994
 20
-12.220664062500028
 10
-0.19736328124999947
 20
-12.180468750000028
  0
LWPOLYLINE
  5
44
330
17
100
AcDbEntity
  8
0
100
AcDbPolyline
 90
118
 70
0
 10
0.8716796875000004
 20
-13.498437500000028
 10
0.9026328125000003
 20
-13.50867968750003
 10
0.9329921875
 20
-13.51784375000003
 10
0.9627578125000005
 20
-13.525929687500028
 10
0.9919296875000008
 20
-13.532937500000028
 10
1.0205078125
 20
-13.538867187500028
 10
1.0484921875000017
 20
-13.543718750000028
 10
1.0758828125000006
 20
-13.547492187500028
 10
1.1026796875000011
 20
-13.550187500000028
 10
1.1288828125000014
 20
-13.551804687500029
 10
1.1544921875000007
 20
-13.552343750000029
 10
1.1959375000000012
 20
-13.551328125000028
 10
1.236210937500001
 20
-13.548281250000029
 10
1.2753125
 20
-13.543203125000028
 10
1.313242187500001
 20
-13.536093750000028
 10
1.3500000000000005
 20
-13.526953125000029
 10
1.3855859375000001
 20
-13.515781250000028
 10
1.42
 20
-13.502578125000028
 10
1.4532421875000008
 20
-13.48734375000003
 10
1.485312500000001
 20
-13.470078125000029
 10
1.5162109375000004
 20
-13.450781250000029
 10
1.5461796875000005
 20
-13.429453125000029
 10
1.5754609375000008
 20
-13.405781250000029
 10
1.6040546875000006
 20
-13.37976562500003
 10
1.6319609375000006
 20
-13.351406250000029
 10
1.6591796875
 20
-13.320703125000028
 10
1.6857109375000006
 20
-13.287656250000028
 10
1.7115546875000005
 20
-13.252265625000028
 10
1.7367109375000016
 20
-13.214531250000029
 10
1.7611796875000003
 20
-13.174453125000028
 10
1.7849609375000002
 20
-13.13203125000003
 10
1.8031718750000003
 20
-13.097179687500029
 10
1.8228046874999997
 20
-13.057000000000029
 10
1.843859375000001
 20
-13.011492187500028
 10
1.8663359375000006
 20
-12.960656250000028
 10
1.8902343750000004
 20
-12.90449218750003
 10
1.9155546875000011
 20
-12.843000000000028
 10
1.9422968750000003
 20
-12.77617968750003
 10
1.9704609375000022
 20
-12.704031250000028
 10
2.0000468750000007
 20
-12.626554687500029
 10
2.0310546875
 20
-12.543750000000028
 10
3.0177734375000007
 20
-9.907031250000028
 10
2.5779296875
 20
-9.907031250000028
 10
2.0240234375000004
 20
-11.418750000000028
 10
2.003375
 20
-11.476406250000029
 10
1.9833046875000004
 20
-11.53437500000003
 10
1.9638125000000004
 20
-11.592656250000028
 10
1.944898437500001
 20
-11.651250000000028
 10
1.926562500000001
 20
-11.71015625000003
 10
1.9088046875
 20
-11.769375000000029
 10
1.8916250000000003
 20
-11.828906250000028
 10
1.8750234375000012
 20
-11.888750000000028
 10
1.8590000000000009
 20
-11.948906250000029
 10
1.8435546875000002
 20
-12.009375000000029
 10
1.826625
 20
-11.946695312500028
 10
1.8092734375000008
 20
-11.884593750000029
 10
1.791500000000001
 20
-11.823070312500029
 10
1.7733046875000014
 20
-11.762125000000028
 10
1.7546875000000002
 20
-11.701757812500029
 10
1.735648437500001
 20
-11.641968750000029
 10
1.7161874999999993
 20
-11.582757812500029
 10
1.6963046875000014
 20
-11.524125000000028
 10
1.676000000000001
 20
-11.466070312500028
 10
1.6552734375
 20
-11.408593750000028
 10
1.1154296875000007
 20
-9.907031250000028
 10
0.6419921875000005
 20
-9.907031250000028
 10
1.6263671875000005
 20
-12.504687500000028
 10
1.621054687500001
 20
-12.518562500000028
 10
1.6160546875000001
 20
-12.531750000000029
 10
1.6113671875000009
 20
-12.544250000000028
 10
1.6069921875000013
 20
-12.556062500000028
 10
1.6029296875000005
 20
-12.567187500000028
 10
1.5991796875000013
 20
-12.577625000000028
 10
1.5957421875000009
 20
-12.587375000000028
 10
1.592617187500002
 20
-12.596437500000029
 10
1.5898046875000018
 20
-12.604812500000028
 10
1.5873046875000005
 20
-12.61250000000003
 10
1.5692265625000008
 20
-12.662742187500028
 10
1.5521796875000007
 20
-12.709093750000028
 10
1.536164062500001
 20
-12.751554687500029
 10
1.521179687500001
 20
-12.790125000000028
 10
1.5072265625000005
 20
-12.824804687500029
 10
1.4943046875000006
 20
-12.855593750000029
 10
1.4824140625000002
 20
-12.882492187500029
 10
1.4715546875000012
 20
-12.905500000000028
 10
1.4617265625
 20
-12.92461718750003
 10
1.4529296875000002
 20
-12.939843750000028
 10
1.4413593750000002
 20
-12.956953125000028
 10
1.4291484375000003
 20
-12.973281250000028
 10
1.4162968750000005
 20
-12.988828125000028
 10
1.4028046875000006
 20
-13.003593750000029
 10
1.388671875
 20
-13.017578125000028
 10
1.3738984375000003
 20
-13.030781250000029
 10
1.3584843750000006
 20
-13.043203125000028
 10
1.342429687500001
 20
-13.054843750000028
 10
1.3257343750000006
 20
-13.065703125000029
 10
1.3083984375000002
 20
-13.075781250000029
 10
1.2903046875
 20
-13.085132812500028
 10
1.2710234375000002
 20
-13.093500000000029
 10
1.2505546875000002
 20
-13.100882812500029
 10
1.2288984374999998
 20
-13.107281250000028
 10
1.2060546875
 20
-13.112695312500028
 10
1.1820234375000007
 20
-13.117125000000028
 10
1.1568046875000002
 20
-13.120570312500028
 10
1.1303984375000011
 20
-13.123031250000029
 10
1.1028046875000008
 20
-13.124507812500028
 10
1.0740234375000002
 20
-13.125000000000028
 10
1.052242187500001
 20
-13.124609375000029
 10
1.0297109375000009
 20
-13.123437500000028
 10
1.0064296875000007
 20
-13.121484375000028
 10
0.9823984375000006
 20
-13.118750000000029
 10
0.9576171875000004
 20
-13.115234375000028
 10
0.932085937500001
 20
-13.110937500000029
 10
0.9058046875000008
 20
-13.105859375000028
 10
0.8787734375000023
 20
-13.100000000000028
 10
0.850992187500001
 20
-13.093359375000029
 10
0.8224609375000007
 20
-13.085937500000028
 10
0.8716796875000004
 20
-13.498437500000028
  0
LWPOLYLINE
  5
45
330
17
100
AcDbEntity
  8
0
100
AcDbPolyline
 90
11
 70
0
 10
200.48549688151985
 20
674.0
 10
200.01414213562379
 20
674.0
 10
199.99999999999997
 20
673.9858578643762
 10
199.99999999999997
 20
673.5524522865428
 10
200.17063581336205
 20
673.586393860135
 10
200.17116093175954
 20
673.5866113712971
 10
200.33320882097036
 20
673.6948883091834
 10
200.35248374665437
 20
673.7141632348673
 10
200.4607606845334
 20
673.8762111240617
 10
200.4609781956956
 20
673.8767362424594
 10
200.48549688151985
 20
674.0
  0
LWPOLYLINE
  5
46
330
17
100
AcDbEntity
  8
0
100
AcDbPolyline
 90
16
 70
0
 10
80.02000000000001
 20
345.0
 10
109.97171572875253
 20
345.0
 10
110.00000000000001
 20
344.9717157287525
 10
110.00000000000001
 20
344.55002441716215
 10
110.00019509032204
 20
344.55018452365175
 10
110.18953218176148
 20
344.51252303456073
 10
110.19067889098795
 20
344.51299801707444
 10
110.49900008609187
 20
344.974207561135
 10
110.49943304239025
 20
345.93183588536
 10
110.43858012553177
 20
345.9318633977601
 10
110.43759979236441
 20
345.93305848797985
 10
110.441492399222
 20
345.95262794416277
 10
80.02000000000001
 20
345.95262794416277
 10
80.00000000000001
 20
345.9326279441628
 10
80.00000000000001
 20
345.02
 10
80.02000000000001
 20
345.0
  0
LWPOLYLINE
  5
47
330
17
100
AcDbEntity
  8
0
100
AcDbPolyline
 90
16
 70
0
 10
140.00000000000003
 20
344.54890649945855
 10
140.00000000000003
 20
344.97171572875254
 10
140.0282842712475
 20
345.0
 10
169.98000000000002
 20
344.99999999999994
 10
170.00000000000003
 20
345.0199999999999
 10
170.00000000000003
 20
345.9326279441628
 10
169.98000000000002
 20
345.95262794416277
 10
139.5568840880665
 20
345.95262794416277
 10
139.56077239927194
 20
345.9322018199257
 10
139.55979003968048
 20
345.93101481823305
 10
139.50100000000003
 20
345.93101481823305
 10
139.50100000000003
 20
344.97443328899857
 10
139.80932122304176
 20
344.51299796984193
 10
139.81047069181525
 20
344.5125218442864
 10
139.99981050466607
 20
344.5490629204048
 10
140.00000000000003
 20
344.54890649945855
  0
LWPOLYLINE
  5
48
330
17
100
AcDbEntity
  8
0
100
AcDbPolyline
 90
16
 70
0
 10
80.0200000000001
 20
510.00000000000006
 10
109.97171572875259
 20
510.00000000000006
 10
110.00000000000007
 20
509.97171572875254
 10
110.00000000000007
 20
509.5500244171622
 10
110.0001950903221
 20
509.5501845236518
 10
110.18953218176154
 20
509.5125230345608
 10
110.19067889098801
 20
509.5129980170745
 10
110.49900008609193
 20
509.9742075611351
 10
110.49943304239031
 20
510.93183588536004
 10
110.43858012553183
 20
510.93186339776014
 10
110.43759979236447
 20
510.9330584879799
 10
110.44149239922206
 20
510.9526279441628
 10
80.0200000000001
 20
510.9526279441628
 10
80.0000000000001
 20
510.93262794416285
 10
80.0000000000001
 20
510.02000000000004
 10
80.0200000000001
 20
510.00000000000006
  0
LWPOLYLINE
  5
49
330
17
100
AcDbEntity
  8
0
100
AcDbPolyline
 90
16
 70
0
 10
140.00000000000009
 20
509.5489064994586
 10
140.00000000000009
 20
509.9717157287526
 10
140.02828427124754
 20
510.00000000000006
 10
169.98000000000002
 20
510.0
 10
170.00000000000003
 20
510.02
 10
170.00000000000003
 20
510.93262794416285
 10
169.98000000000002
 20
510.9526279441628
 10
139.55688408806657
 20
510.9526279441628
 10
139.560772399272
 20
510.93220181992575
 10
139.55979003968054
 20
510.9310148182331
 10
139.5010000000001
 20
510.9310148182331
 10
139.5010000000001
 20
509.9744332889986
 10
139.80932122304182
 20
509.512997969842
 10
139.8104706918153
 20
509.5125218442865
 10
139.99981050466613
 20
509.5490629204049
 10
140.00000000000009
 20
509.5489064994586
  0
LWPOLYLINE
  5
4A
330
17
100
AcDbEntity
  8
0
100
AcDbPolyline
 90
16
 70
0
 10
80.0200000000001
 20
675.0
 10
109.97171572875259
 20
675.0
 10
110.00000000000007
 20
674.9717157287525
 10
110.00000000000007
 20
674.5500244171619
 10
110.00019509032208
 20
674.5501845236515
 10
110.18953218176162
 20
674.5125230345607
 10
110.19067889098795
 20
674.5129980170743
 10
110.49900008609193
 20
674.9742075611351
 10
110.49943304239031
 20
675.93183588536
 10
110.43858012553184
 20
675.9318633977601
 10
110.43759979236448
 20
675.9330584879799
 10
110.44149239922207
 20
675.9526279441628
 10
80.0200000000001
 20
675.9526279441628
 10
80.0000000000001
 20
675.9326279441628
 10
80.0000000000001
 20
675.02
 10
80.0200000000001
 20
675.0
  0
LWPOLYLINE
  5
4B
330
17
100
AcDbEntity
  8
0
100
AcDbPolyline
 90
24
 70
0
 10
140.00000000000009
 20
674.5489064994587
 10
140.00000000000009
 20
674.9717157287525
 10
140.02828427124754
 20
675.0
 10
169.9717157287525
 20
675.0
 10
169.99999999999997
 20
674.9717157287525
 10
169.99999999999997
 20
674.0673720558372
 10
170.01999999999998
 20
674.0473720558372
 10
199.98000000000002
 20
674.0473720558372
 10
200.00000000000003
 20
674.0673720558372
 10
200.00000000000003
 20
674.98
 10
199.98000000000002
 20
675.0
 10
170.0282842712475
 20
675.0
 10
170.00000000000003
 20
675.0282842712475
 10
170.00000000000003
 20
675.9326279441628
 10
169.98000000000002
 20
675.9526279441628
 10
139.55688408806668
 20
675.9526279441628
 10
139.5607723992721
 20
675.9322018199258
 10
139.55979003968065
 20
675.9310148182332
 10
139.5010000000001
 20
675.9310148182332
 10
139.5010000000001
 20
674.9744332889985
 10
139.80932122304188
 20
674.5129979698418
 10
139.8104706918153
 20
674.5125218442862
 10
139.99981050466613
 20
674.5490629204049
 10
140.00000000000009
 20
674.5489064994587
  0
LWPOLYLINE
  5
4C
330
17
100
AcDbEntity
  8
0
100
AcDbPolyline
 90
42
 70
0
 10
571.180452345944
 20
-10.954687500000029
 10
569.732796095944
 20
-10.954687500000029
 10
569.739655470944
 20
-10.890859375000028
 10
569.748671095944
 20
-10.830312500000028
 10
569.759842970944
 20
-10.773046875000029
 10
569.773171095944
 20
-10.719062500000028
 10
569.7886554709439
 20
-10.668359375000028
 10
569.8062960959439
 20
-10.620937500000029
 10
569.8260929709439
 20
-10.576796875000028
 10
569.8480460959439
 20
-10.535937500000028
 10
569.872155470944
 20
-10.498359375000028
 10
569.898421095944
 20
-10.46406250000003
 10
569.941694533444
 20
-10.415820312500028
 10
569.987452345944
 20
-10.372656250000027
 10
570.0356945334439
 20
-10.334570312500029
 10
570.0864210959439
 20
-10.301562500000028
 10
570.139632033444
 20
-10.27363281250003
 10
570.195327345944
 20
-10.250781250000028
 10
570.253507033444
 20
-10.233007812500029
 10
570.314171095944
 20
-10.220312500000027
 10
570.3773195334439
 20
-10.212695312500028
 10
570.4429523459439
 20
-10.21015625000003
 10
570.5026085959439
 20
-10.212179687500027
 10
570.560327345944
 20
-10.218250000000028
 10
570.616108595944
 20
-10.228367187500028
 10
570.669952345944
 20
-10.242531250000027
 10
570.721858595944
 20
-10.260742187500028
 10
570.771827345944
 20
-10.283000000000028
 10
570.819858595944
 20
-10.309304687500028
 10
570.8659523459439
 20
-10.33965625000003
 10
570.9101085959439
 20
-10.374054687500028
 10
570.952327345944
 20
-10.412500000000028
 10
570.991733595944
 20
-10.454343750000028
 10
571.027452345944
 20
-10.498937500000029
 10
571.059483595944
 20
-10.546281250000028
 10
571.087827345944
 20
-10.596375000000029
 10
571.112483595944
 20
-10.649218750000028
 10
571.133452345944
 20
-10.704812500000028
 10
571.150733595944
 20
-10.763156250000028
 10
571.164327345944
 20
-10.824250000000028
 10
571.174233595944
 20
-10.888093750000028
 10
571.180452345944
 20
-10.954687500000029
  0
LWPOLYLINE
  5
4D
330
17
100
AcDbEntity
  8
0
100
AcDbPolyline
 90
5
 70
0
 10
292.451847266722
 20
-22.451847266721998
 10
292.451847266722
 20
742.451847266722
 10
597.355541800166
 20
742.451847266722
 10
597.355541800166
 20
-22.451847266721998
 10
292.451847266722
 20
-22.451847266721998
  0
LWPOLYLINE
  5
4E
330
17
100
AcDbEntity
  8
0
100
AcDbPolyline
 90
11
 70
0
 10
525.3891914149635
 20
46.00000000000007
 10
525.3646727291388
 20
46.12326375754237
 10
525.3644552179765
 20
46.1237888759402
 10
525.256178280098
 20
46.285836765133084
 10
525.236903354414
 20
46.305111690817036
 10
525.0748554652212
 20
46.41338862869561
 10
525.0743303468232
 20
46.41360613985784
 10
524.9036945334439
 20
46.44754771345687
 10
524.9036945334439
 20
46.01414213562381
 10
524.9178366690676
 20
46.00000000000007
 10
525.3891914149635
 20
46.00000000000007
  0
LWPOLYLINE
  5
4F
330
17
100
AcDbEntity
  8
0
100
AcDbPolyline
 90
48
 70
0
 10
524.903694533444
 20
194.50507894615484
 10
525.0743303434477
 20
194.53902180290683
 10
525.0748554652212
 20
194.53923931546728
 10
525.2369033544142
 20
194.64751625334594
 10
525.2561782800981
 20
194.6667911790299
 10
525.3644552179773
 20
194.82883906822437
 10
525.3646727291396
 20
194.82936418662214
 10
525.402694533444
 20
195.02051270496568
 10
525.402694533444
 20
195.22752099474891
 10
524.883694533444
 20
195.4424978336206
 10
524.883694533444
 20
195.45262794416288
 10
524.8265114036043
 20
195.4763139720814
 10
524.883694533444
 20
195.49999999999994
 10
524.883694533444
 20
195.51013011054224
 10
525.402694533444
 20
195.7251069494139
 10
525.402694533444
 20
195.93211523919715
 10
525.3646727291396
 20
196.12326375754068
 10
525.3644552179773
 20
196.12378887593846
 10
525.2561782800981
 20
196.28583676513293
 10
525.2369033544142
 20
196.3051116908169
 10
525.0748554652212
 20
196.41338862869554
 10
525.0743303468234
 20
196.41360613985776
 10
524.903694533444
 20
196.4475477134568
 10
524.903694533444
 20
195.9326279441629
 10
524.883694533444
 20
195.95262794416288
 10
494.92369453344395
 20
195.95262794416288
 10
494.90369453344397
 20
195.93262794416287
 10
494.90369453344397
 20
195.02828427124746
 10
494.8754102621965
 20
195.0
 10
464.9319788046914
 20
195.0
 10
464.90369453344397
 20
195.02828427124746
 10
464.90369453344397
 20
195.45109350054125
 10
464.90350503811
 20
195.45093707959495
 10
464.7141652252591
 20
195.48747815571366
 10
464.7130157564857
 20
195.48700203015818
 10
464.40469453344394
 20
195.0255667110015
 10
464.40469453344394
 20
194.0689851817668
 10
464.46348457312337
 20
194.0689851817668
 10
464.4644669327148
 20
194.0677981800741
 10
464.46057862150934
 20
194.04737205583706
 10
494.883694533444
 20
194.04737205583706
 10
494.90369453344397
 20
194.06737205583707
 10
494.90369453344397
 20
194.97171572875249
 10
494.9319788046914
 20
194.99999999999994
 10
524.883694533444
 20
194.99999999999994
 10
524.903694533444
 20
195.01999999999992
 10
524.903694533444
 20
194.99999999999997
 10
524.903694533444
 20
194.50507894615484
  0
LWPOLYLINE
  5
50
330
17
100
AcDbEntity
  8
0
100
AcDbPolyline
 90
47
 70
0
 10
435.34518693266693
 20
194.04737205583706
 10
435.34129432580926
 20
194.06694151201992
 10
435.34227465897663
 20
194.06813660223975
 10
435.4031275758342
 20
194.0681641146399
 10
435.40269461953574
 20
195.02579243886487
 10
435.09437342443186
 20
195.48700198292548
 10
435.09322671520545
 20
195.48747696543916
 10
434.90388962376596
 20
195.44981547634822
 10
434.90369453344397
 20
195.4499755828378
 10
434.90369453344397
 20
195.02828427124743
 10
434.8754102621965
 20
195.0
 10
404.9319788046914
 20
195.0
 10
404.90369453344397
 20
195.02828427124743
 10
404.90369453344397
 20
195.93262794416287
 10
404.883694533444
 20
195.95262794416288
 10
374.92369453344395
 20
195.95262794416288
 10
374.90369453344397
 20
195.93262794416293
 10
374.90369453344397
 20
196.44754771345683
 10
374.73305872006614
 20
196.41360613985842
 10
374.7325336016685
 20
196.41338862869625
 10
374.5704857124739
 20
196.30511169081697
 10
374.5512107867899
 20
196.285836765133
 10
374.4429338489106
 20
196.12378887593843
 10
374.4427163377485
 20
196.12326375754074
 10
374.404694533444
 20
195.9321152391972
 10
374.404694533444
 20
195.725106949414
 10
374.92369453344395
 20
195.51013011054238
 10
374.92369453344395
 20
195.49999999999994
 10
374.98087766328365
 20
195.4763139720814
 10
374.92369453344395
 20
195.45262794416288
 10
374.92369453344395
 20
195.44249783362045
 10
374.404694533444
 20
195.22752099474883
 10
374.404694533444
 20
195.02051270496563
 10
374.4427163377485
 20
194.8293641866221
 10
374.4429338489106
 20
194.8288390682244
 10
374.5512107867899
 20
194.66679117902981
 10
374.5704857124739
 20
194.64751625334586
 10
374.7325336016685
 20
194.53923931546657
 10
374.73305872006614
 20
194.5390218043044
 10
374.90369453344397
 20
194.505080230706
 10
374.90369453344397
 20
195.0199999999999
 10
374.92369453344395
 20
194.99999999999994
 10
404.8754102621965
 20
194.99999999999994
 10
404.90369453344397
 20
194.9717157287525
 10
404.90369453344397
 20
194.06737205583707
 10
404.92369453344395
 20
194.04737205583706
 10
435.34518693266693
 20
194.04737205583706
  0
LWPOLYLINE
  5
51
330
17
100
AcDbEntity
  8
0
100
AcDbPolyline
 90
48
 70
0
 10
374.90369453344397
 20
46.447547713457006
 10
374.7330587200662
 20
46.4136061398586
 10
374.73253360166837
 20
46.413388628696396
 10
374.570485712474
 20
46.30511169081727
 10
374.5512107867901
 20
46.285836765133354
 10
374.4429338489113
 20
46.123788875940285
 10
374.4427163377491
 20
46.123263757542546
 10
374.404694533444
 20
45.9321152391974
 10
374.404694533444
 20
45.72510694941414
 10
374.92369453344395
 20
45.51013011054247
 10
374.92369453344395
 20
45.50000000000016
 10
374.98087766328365
 20
45.47631397208161
 10
374.92369453344395
 20
45.45262794416306
 10
374.92369453344395
 20
45.442497833620756
 10
374.404694533444
 20
45.227520994749085
 10
374.404694533444
 20
45.020512704965824
 10
374.4427163377491
 20
44.82936418662068
 10
374.4429338489113
 20
44.82883906822294
 10
374.5512107867901
 20
44.66679117902987
 10
374.570485712474
 20
44.647516253345955
 10
374.73253360166837
 20
44.53923931546683
 10
374.7330587200662
 20
44.539021804304625
 10
374.90369453344397
 20
44.50508023070622
 10
374.90369453344397
 20
45.02000000000011
 10
374.92369453344395
 20
45.00000000000016
 10
404.8754102621965
 20
45.00000000000014
 10
404.90369453344397
 20
44.9717157287527
 10
404.90369453344397
 20
44.06737205583727
 10
404.92369453344395
 20
44.047372055837265
 10
434.9036945334439
 20
44.04737205583724
 10
435.3451869326663
 20
44.04737205583724
 10
435.3412943258087
 20
44.06694151202011
 10
435.34227465897607
 20
44.068136602239925
 10
435.4031275758341
 20
44.06816411464005
 10
435.40269461953574
 20
45.02579243886503
 10
435.09437342443016
 20
45.48700198292634
 10
435.09322671520374
 20
45.48747696543999
 10
434.9038896237659
 20
45.44981547634901
 10
434.90369453344385
 20
45.44997558283859
 10
434.90369453344385
 20
45.028284271247585
 10
434.87541026219645
 20
45.00000000000014
 10
404.9319788046914
 20
45.000000000000156
 10
404.90369453344397
 20
45.0282842712476
 10
404.90369453344397
 20
45.93262794416304
 10
404.883694533444
 20
45.95262794416304
 10
374.92369453344395
 20
45.95262794416306
 10
374.90369453344397
 20
45.932627944163116
 10
374.90369453344397
 20
46.447547713457006
  0
LWPOLYLINE
  5
52
330
17
100
AcDbEntity
  8
0
100
AcDbPolyline
 90
19
 70
0
 10
464.9036945334439
 20
45.45109350054207
 10
464.9035050381099
 20
45.45093707959578
 10
464.71416522526073
 20
45.48747815571446
 10
464.71301575648727
 20
45.48700203015899
 10
464.4046945334439
 20
45.025566711001616
 10
464.4046945334439
 20
44.068985181766955
 10
464.4634845731238
 20
44.068985181766955
 10
464.46446693271525
 20
44.06779818007428
 10
464.46057862150985
 20
44.04737205583722
 10
464.9036945334439
 20
44.04737205583722
 10
494.8836945334439
 20
44.04737205583721
 10
494.90369453344385
 20
44.06737205583721
 10
494.90369453344385
 20
44.980000000000096
 10
494.89369453344386
 20
44.980000000000096
 10
494.8898748733314
 20
44.97381966011262
 10
494.8836945334439
 20
45.00000000000011
 10
464.93197880469137
 20
45.00000000000012
 10
464.9036945334439
 20
45.02828427124758
 10
464.9036945334439
 20
45.45109350054207
  0
LWPOLYLINE
  5
53
330
17
100
AcDbEntity
  8
0
100
AcDbPolyline
 90
11
 70
0
 10
524.8836945334439
 20
45.00000000000007
 10
524.9036945334439
 20
45.020000000000074
 10
524.9036945334439
 20
45.93262794416297
 10
524.8836945334439
 20
45.95262794416297
 10
494.9236945334439
 20
45.952627944162984
 10
494.9036945334439
 20
45.93262794416298
 10
494.9036945334439
 20
45.0200000000001
 10
494.9136945334439
 20
45.0200000000001
 10
494.91751419355637
 20
45.026180339887595
 10
494.9236945334439
 20
45.00000000000009
 10
524.8836945334439
 20
45.00000000000007
  0
LWPOLYLINE
  5
54
330
17
100
AcDbEntity
  8
0
100
AcDbPolyline
 90
34
 70
0
 10
374.404694533444
 20
345.22752099474906
 10
374.404694533444
 20
345.0205127049656
 10
374.44271633774844
 20
344.82936418662206
 10
374.4429338489106
 20
344.82883906822434
 10
374.5512107867902
 20
344.66679117902953
 10
374.5704857124741
 20
344.6475162533456
 10
374.73253360168405
 20
344.53923931546024
 10
374.7330587200819
 20
344.539021804298
 10
374.90369453344397
 20
344.50508023070574
 10
374.90369453344397
 20
345.0199999999999
 10
374.92369453344395
 20
345.0
 10
404.883694533444
 20
345.0
 10
404.883694533444
 20
345.01
 10
404.8775141935566
 20
345.0138196601124
 10
404.90369453344397
 20
345.0199999999999
 10
404.90369453344397
 20
345.9326279441628
 10
404.883694533444
 20
345.95262794416277
 10
374.92369453344395
 20
345.95262794416277
 10
374.90369453344397
 20
345.93262794416285
 10
374.90369453344397
 20
346.447547713457
 10
374.7330587200819
 20
346.4136061398648
 10
374.73253360168405
 20
346.41338862870253
 10
374.5704857124741
 20
346.30511169081717
 10
374.5512107867902
 20
346.28583676513324
 10
374.4429338489106
 20
346.12378887593843
 10
374.44271633774844
 20
346.1232637575407
 10
374.404694533444
 20
345.9321152391972
 10
374.404694533444
 20
345.7251069494137
 10
374.92369453344395
 20
345.51013011054187
 10
374.92369453344395
 20
345.5
 10
374.9808776632839
 20
345.4763139720814
 10
374.92369453344395
 20
345.45262794416277
 10
374.92369453344395
 20
345.4424978336209
 10
374.404694533444
 20
345.22752099474906
  0
LWPOLYLINE
  5
55
330
17
100
AcDbEntity
  8
0
100
AcDbPolyline
 90
34
 70
0
 10
374.404694533444
 20
510.2275209947491
 10
374.404694533444
 20
510.02051270496565
 10
374.44271633774844
 20
509.8293641866221
 10
374.4429338489106
 20
509.8288390682244
 10
374.5512107867902
 20
509.6667911790296
 10
374.5704857124741
 20
509.64751625334566
 10
374.73253360168405
 20
509.5392393154603
 10
374.7330587200819
 20
509.53902180429805
 10
374.90369453344397
 20
509.5050802307058
 10
374.90369453344397
 20
510.02
 10
374.92369453344395
 20
510.00000000000006
 10
404.883694533444
 20
510.00000000000006
 10
404.883694533444
 20
510.01000000000005
 10
404.8775141935565
 20
510.01381966011246
 10
404.90369453344397
 20
510.02
 10
404.90369453344397
 20
510.93262794416285
 10
404.883694533444
 20
510.9526279441628
 10
374.92369453344395
 20
510.9526279441628
 10
374.90369453344397
 20
510.9326279441629
 10
374.90369453344397
 20
511.4475477134571
 10
374.7330587200819
 20
511.41360613986484
 10
374.73253360168405
 20
511.4133886287026
 10
374.5704857124741
 20
511.3051116908172
 10
374.5512107867902
 20
511.2858367651333
 10
374.4429338489106
 20
511.1237888759385
 10
374.44271633774844
 20
511.12326375754077
 10
374.404694533444
 20
510.93211523919723
 10
374.404694533444
 20
510.72510694941377
 10
374.92369453344395
 20
510.5101301105419
 10
374.92369453344395
 20
510.50000000000006
 10
374.9808776632839
 20
510.4763139720814
 10
374.92369453344395
 20
510.4526279441628
 10
374.92369453344395
 20
510.44249783362096
 10
374.404694533444
 20
510.2275209947491
  0
LWPOLYLINE
  5
56
330
17
100
AcDbEntity
  8
0
100
AcDbPolyline
 90
32
 70
0
 10
525.4026945334439
 20
675.7251069494139
 10
525.4026945334439
 20
675.9321152391972
 10
525.3646727291394
 20
676.1232637575406
 10
525.3644552179771
 20
676.1237888759384
 10
525.2561782800974
 20
676.2858367651336
 10
525.2369033544135
 20
676.3051116908175
 10
525.0748554652051
 20
676.4133886287023
 10
525.0743303468075
 20
676.4136061398643
 10
524.9036945334439
 20
676.4475477134571
 10
524.9036945334439
 20
675.9326279441628
 10
524.8836945334439
 20
675.9526279441628
 10
494.9236945334439
 20
675.9526279441628
 10
494.9036945334439
 20
675.9326279441628
 10
494.9036945334439
 20
675.02
 10
494.9236945334439
 20
675.0
 10
524.8836945334439
 20
675.0
 10
524.9036945334439
 20
675.02
 10
524.9036945334439
 20
674.5050802307057
 10
525.0743303468075
 20
674.5390218042985
 10
525.0748554652051
 20
674.5392393154606
 10
525.2369033544135
 20
674.6475162533453
 10
525.2561782800974
 20
674.6667911790292
 10
525.3644552179771
 20
674.8288390682244
 10
525.3646727291394
 20
674.8293641866222
 10
525.4026945334439
 20
675.0205127049657
 10
525.4026945334439
 20
675.2275209947489
 10
524.8836945334439
 20
675.4424978336207
 10
524.8836945334439
 20
675.4526279441628
 10
524.8265114036041
 20
675.4763139720814
 10
524.8836945334439
 20
675.5
 10
524.8836945334439
 20
675.5101301105421
 10
525.4026945334439
 20
675.7251069494139
  0
LWPOLYLINE
  5
57
330
17
100
AcDbEntity
  8
0
100
AcDbPolyline
 90
33
 70
0
 10
525.4026945334439
 20
510.7251069494139
 10
525.4026945334439
 20
510.93211523919706
 10
525.3646727291394
 20
511.1232637575406
 10
525.3644552179771
 20
511.12378887593843
 10
525.256178280098
 20
511.2858367651329
 10
525.2369033544139
 20
511.3051116908169
 10
525.0748554652054
 20
511.4133886287019
 10
525.0743303468075
 20
511.41360613986416
 10
524.9036945334439
 20
511.447547713457
 10
524.9036945334439
 20
510.93262794416285
 10
524.8836945334439
 20
510.9526279441628
 10
494.9236945334439
 20
510.9526279441628
 10
494.9036945334439
 20
510.93262794416285
 10
494.9036945334439
 20
510.02000000000004
 10
494.9236945334439
 20
510.00000000000006
 10
524.8836945334439
 20
510.00000000000006
 10
524.9036945334439
 20
510.02000000000004
 10
524.9036945334439
 20
510.0
 10
524.9036945334439
 20
509.50508023070586
 10
525.0743303468075
 20
509.5390218042987
 10
525.0748554652054
 20
509.539239315461
 10
525.2369033544139
 20
509.647516253346
 10
525.256178280098
 20
509.66679117903
 10
525.3644552179771
 20
509.82883906822445
 10
525.3646727291394
 20
509.8293641866223
 10
525.4026945334439
 20
510.0205127049658
 10
525.4026945334439
 20
510.227520994749
 10
524.8836945334439
 20
510.4424978336207
 10
524.8836945334439
 20
510.4526279441628
 10
524.826511403604
 20
510.47631397208147
 10
524.8836945334439
 20
510.50000000000006
 10
524.8836945334439
 20
510.5101301105422
 10
525.4026945334439
 20
510.7251069494139
  0
LWPOLYLINE
  5
58
330
17
100
AcDbEntity
  8
0
100
AcDbPolyline
 90
33
 70
0
 10
525.402694533444
 20
345.7251069494138
 10
525.402694533444
 20
345.932115239197
 10
525.3646727291396
 20
346.12326375754054
 10
525.3644552179773
 20
346.1237888759384
 10
525.2561782800981
 20
346.28583676513284
 10
525.236903354414
 20
346.30511169081683
 10
525.0748554652055
 20
346.41338862870185
 10
525.0743303468076
 20
346.4136061398641
 10
524.903694533444
 20
346.44754771345697
 10
524.903694533444
 20
345.9326279441628
 10
524.883694533444
 20
345.95262794416277
 10
494.92369453344395
 20
345.95262794416277
 10
494.90369453344397
 20
345.9326279441628
 10
494.90369453344397
 20
345.02
 10
494.92369453344395
 20
345.0
 10
524.883694533444
 20
345.0
 10
524.903694533444
 20
345.02
 10
524.903694533444
 20
344.99999999999994
 10
524.903694533444
 20
344.5050802307058
 10
525.0743303468076
 20
344.53902180429867
 10
525.0748554652055
 20
344.5392393154609
 10
525.236903354414
 20
344.64751625334594
 10
525.2561782800981
 20
344.66679117902993
 10
525.3644552179773
 20
344.8288390682244
 10
525.3646727291396
 20
344.82936418662223
 10
525.402694533444
 20
345.02051270496577
 10
525.402694533444
 20
345.22752099474894
 10
524.883694533444
 20
345.4424978336206
 10
524.883694533444
 20
345.45262794416277
 10
524.8265114036041
 20
345.47631397208136
 10
524.883694533444
 20
345.5
 10
524.883694533444
 20
345.51013011054215
 10
525.402694533444
 20
345.7251069494138
  0
LWPOLYLINE
  5
59
330
17
100
AcDbEntity
  8
0
100
AcDbPolyline
 90
33
 70
0
 10
302.40369453344397
 20
-10.000000000000028
 10
302.4517313324359
 20
-10.487725805040348
 10
302.5939957021657
 20
-10.956708580912752
 10
302.8250205026876
 20
-11.388925582549033
 10
303.1359275804776
 20
-11.767766952966396
 10
303.51476895089496
 20
-12.07867403075639
 10
303.94698595253124
 20
-12.309698831278244
 10
304.41596872840364
 20
-12.451963201008104
 10
304.90369453344397
 20
-12.500000000000028
 10
305.3914203384843
 20
-12.451963201008105
 10
305.8604031143567
 20
-12.309698831278247
 10
306.292620115993
 20
-12.078674030756394
 10
306.67146148641035
 20
-11.7677669529664
 10
306.9823685642003
 20
-11.388925582549039
 10
307.2133933647222
 20
-10.956708580912759
 10
307.35565773445205
 20
-10.487725805040357
 10
307.40369453344397
 20
-10.000000000000037
 10
307.35565773445205
 20
-9.512274194959716
 10
307.2133933647222
 20
-9.043291419087312
 10
306.9823685642003
 20
-8.61107441745103
 10
306.67146148641035
 20
-8.232233047033667
 10
306.292620115993
 20
-7.9213259692436715
 10
305.8604031143567
 20
-7.690301168721815
 10
305.3914203384843
 20
-7.548036798991954
 10
304.90369453344397
 20
-7.500000000000028
 10
304.41596872840364
 20
-7.548036798991951
 10
303.94698595253124
 20
-7.690301168721808
 10
303.51476895089496
 20
-7.921325969243661
 10
303.1359275804776
 20
-8.232233047033654
 10
302.8250205026876
 20
-8.611074417451018
 10
302.5939957021657
 20
-9.043291419087298
 10
302.4517313324359
 20
-9.512274194959701
 10
302.40369453344397
 20
-10.000000000000028
  0
LWPOLYLINE
  5
5A
330
17
100
AcDbEntity
  8
0
100
AcDbPolyline
 90
33
 70
0
 10
582.403694533444
 20
-10.000000000000028
 10
582.4517313324359
 20
-10.487725805040348
 10
582.5939957021658
 20
-10.956708580912752
 10
582.8250205026876
 20
-11.388925582549033
 10
583.1359275804776
 20
-11.767766952966396
 10
583.5147689508949
 20
-12.07867403075639
 10
583.9469859525312
 20
-12.309698831278244
 10
584.4159687284036
 20
-12.451963201008104
 10
584.903694533444
 20
-12.500000000000028
 10
585.3914203384843
 20
-12.451963201008105
 10
585.8604031143567
 20
-12.309698831278247
 10
586.2926201159929
 20
-12.078674030756394
 10
586.6714614864103
 20
-11.7677669529664
 10
586.9823685642003
 20
-11.388925582549039
 10
587.2133933647222
 20
-10.956708580912759
 10
587.355657734452
 20
-10.487725805040357
 10
587.403694533444
 20
-10.000000000000037
 10
587.355657734452
 20
-9.512274194959716
 10
587.2133933647222
 20
-9.043291419087312
 10
586.9823685642003
 20
-8.61107441745103
 10
586.6714614864103
 20
-8.232233047033667
 10
586.292620115993
 20
-7.9213259692436715
 10
585.8604031143567
 20
-7.690301168721815
 10
585.3914203384843
 20
-7.548036798991954
 10
584.903694533444
 20
-7.500000000000028
 10
584.4159687284036
 20
-7.548036798991951
 10
583.9469859525312
 20
-7.690301168721808
 10
583.514768950895
 20
-7.921325969243661
 10
583.1359275804776
 20
-8.232233047033654
 10
582.8250205026876
 20
-8.611074417451018
 10
582.5939957021658
 20
-9.043291419087298
 10
582.4517313324359
 20
-9.512274194959701
 10
582.403694533444
 20
-10.000000000000028
  0
LWPOLYLINE
  5
5B
330
17
100
AcDbEntity
  8
0
100
AcDbPolyline
 90
33
 70
0
 10
302.40369453344397
 20
730.0
 10
302.4517313324359
 20
729.5122741949597
 10
302.5939957021657
 20
729.0432914190873
 10
302.8250205026876
 20
728.611074417451
 10
303.1359275804776
 20
728.2322330470337
 10
303.51476895089496
 20
727.9213259692436
 10
303.94698595253124
 20
727.6903011687218
 10
304.41596872840364
 20
727.5480367989919
 10
304.90369453344397
 20
727.5
 10
305.3914203384843
 20
727.5480367989919
 10
305.8604031143567
 20
727.6903011687218
 10
306.292620115993
 20
727.9213259692436
 10
306.67146148641035
 20
728.2322330470337
 10
306.9823685642003
 20
728.6110744174509
 10
307.2133933647222
 20
729.0432914190873
 10
307.35565773445205
 20
729.5122741949597
 10
307.40369453344397
 20
730.0
 10
307.35565773445205
 20
730.4877258050403
 10
307.2133933647222
 20
730.9567085809127
 10
306.9823685642003
 20
731.388925582549
 10
306.67146148641035
 20
731.7677669529663
 10
306.292620115993
 20
732.0786740307564
 10
305.8604031143567
 20
732.3096988312782
 10
305.3914203384843
 20
732.4519632010081
 10
304.90369453344397
 20
732.5
 10
304.41596872840364
 20
732.4519632010081
 10
303.94698595253124
 20
732.3096988312782
 10
303.51476895089496
 20
732.0786740307564
 10
303.1359275804776
 20
731.7677669529663
 10
302.8250205026876
 20
731.3889255825491
 10
302.5939957021657
 20
730.9567085809127
 10
302.4517313324359
 20
730.4877258050403
 10
302.40369453344397
 20
730.0
  0
LWPOLYLINE
  5
5C
330
17
100
AcDbEntity
  8
0
100
AcDbPolyline
 90
33
 70
0
 10
582.403694533444
 20
730.0
 10
582.4517313324359
 20
729.5122741949597
 10
582.5939957021658
 20
729.0432914190873
 10
582.8250205026876
 20
728.611074417451
 10
583.1359275804776
 20
728.2322330470337
 10
583.5147689508949
 20
727.9213259692436
 10
583.9469859525312
 20
727.6903011687218
 10
584.4159687284036
 20
727.5480367989919
 10
584.903694533444
 20
727.5
 10
585.3914203384843
 20
727.5480367989919
 10
585.8604031143567
 20
727.6903011687218
 10
586.2926201159929
 20
727.9213259692436
 10
586.6714614864103
 20
728.2322330470337
 10
586.9823685642003
 20
728.6110744174509
 10
587.2133933647222
 20
729.0432914190873
 10
587.355657734452
 20
729.5122741949597
 10
587.403694533444
 20
730.0
 10
587.355657734452
 20
730.4877258050403
 10
587.2133933647222
 20
730.9567085809127
 10
586.9823685642003
 20
731.388925582549
 10
586.6714614864103
 20
731.7677669529663
 10
586.292620115993
 20
732.0786740307564
 10
585.8604031143567
 20
732.3096988312782
 10
585.3914203384843
 20
732.4519632010081
 10
584.903694533444
 20
732.5
 10
584.4159687284036
 20
732.4519632010081
 10
583.9469859525312
 20
732.3096988312782
 10
583.514768950895
 20
732.0786740307564
 10
583.1359275804776
 20
731.7677669529663
 10
582.8250205026876
 20
731.3889255825491
 10
582.5939957021658
 20
730.9567085809127
 10
582.4517313324359
 20
730.4877258050403
 10
582.403694533444
 20
730.0
  0
LWPOLYLINE
  5
5D
330
17
100
AcDbEntity
  8
0
100
AcDbPolyline
 90
274
 70
0
 10
565.797053908444
 20
-11.555468750000028
 10
565.3579914084439
 20
-11.496875000000028
 10
565.3417726584439
 20
-11.569476562500029
 10
565.3234289084439
 20
-11.637906250000029
 10
565.302960158444
 20
-11.702164062500028
 10
565.2803664084439
 20
-11.762250000000028
 10
565.255647658444
 20
-11.818164062500028
 10
565.228803908444
 20
-11.869906250000028
 10
565.199835158444
 20
-11.917476562500028
 10
565.168741408444
 20
-11.960875000000028
 10
565.135522658444
 20
-12.000101562500028
 10
565.1001789084439
 20
-12.035156250000028
 10
565.0629835959439
 20
-12.066476562500029
 10
565.0242101584439
 20
-12.094500000000028
 10
564.983858595944
 20
-12.119226562500028
 10
564.941928908444
 20
-12.140656250000028
 10
564.898421095944
 20
-12.158789062500029
 10
564.853335158444
 20
-12.173625000000028
 10
564.806671095944
 20
-12.185164062500029
 10
564.758428908444
 20
-12.193406250000029
 10
564.7086085959439
 20
-12.198351562500028
 10
564.657210158444
 20
-12.200000000000028
 10
564.596147658444
 20
-12.197851562500029
 10
564.537022658444
 20
-12.191406250000028
 10
564.479835158444
 20
-12.180664062500028
 10
564.424585158444
 20
-12.165625000000029
 10
564.371272658444
 20
-12.146289062500028
 10
564.319897658444
 20
-12.122656250000029
 10
564.2704601584439
 20
-12.094726562500028
 10
564.2229601584439
 20
-12.062500000000028
 10
564.177397658444
 20
-12.025976562500029
 10
564.133772658444
 20
-11.985156250000028
 10
564.093100783444
 20
-11.941156250000029
 10
564.0567101584439
 20
-11.895093750000028
 10
564.0246007834439
 20
-11.846968750000029
 10
563.996772658444
 20
-11.796781250000029
 10
563.9732257834439
 20
-11.744531250000028
 10
563.9539601584439
 20
-11.690218750000028
 10
563.938975783444
 20
-11.633843750000029
 10
563.9282726584439
 20
-11.575406250000029
 10
563.9218507834439
 20
-11.514906250000028
 10
563.919710158444
 20
-11.45234375000003
 10
563.921686720944
 20
-11.392937500000029
 10
563.927616408444
 20
-11.335656250000028
 10
563.937499220944
 20
-11.280500000000028
 10
563.951335158444
 20
-11.227468750000028
 10
563.969124220944
 20
-11.176562500000028
 10
563.9908664084439
 20
-11.127781250000028
 10
564.016561720944
 20
-11.081125000000029
 10
564.046210158444
 20
-11.036593750000028
 10
564.079811720944
 20
-10.994187500000029
 10
564.117366408444
 20
-10.953906250000028
 10
564.1579757834439
 20
-10.916500000000028
 10
564.200741408444
 20
-10.883031250000029
 10
564.245663283444
 20
-10.853500000000029
 10
564.2927414084439
 20
-10.827906250000028
 10
564.341975783444
 20
-10.806250000000029
 10
564.393366408444
 20
-10.788531250000029
 10
564.446913283444
 20
-10.774750000000028
 10
564.5026164084439
 20
-10.764906250000028
 10
564.560475783444
 20
-10.759000000000029
 10
564.620491408444
 20
-10.75703125000003
 10
564.645952345944
 20
-10.757515625000028
 10
564.672647658444
 20
-10.758968750000028
 10
564.700577345944
 20
-10.761390625000029
 10
564.7297414084439
 20
-10.764781250000029
 10
564.760139845944
 20
-10.769140625000029
 10
564.791772658444
 20
-10.774468750000029
 10
564.8246398459439
 20
-10.78076562500003
 10
564.858741408444
 20
-10.788031250000028
 10
564.894077345944
 20
-10.796265625000029
 10
564.930647658444
 20
-10.805468750000028
 10
564.8814289084439
 20
-10.419531250000029
 10
564.8728507834439
 20
-10.420570312500029
 10
564.8646164084439
 20
-10.421500000000028
 10
564.856725783444
 20
-10.422320312500029
 10
564.849178908444
 20
-10.42303125000003
 10
564.841975783444
 20
-10.423632812500028
 10
564.8351164084439
 20
-10.424125000000029
 10
564.828600783444
 20
-10.424507812500028
 10
564.822428908444
 20
-10.424781250000027
 10
564.816600783444
 20
-10.424945312500029
 10
564.8111164084439
 20
-10.42500000000003
 10
564.755436720944
 20
-10.423539062500028
 10
564.700897658444
 20
-10.419156250000029
 10
564.6474992209439
 20
-10.41185156250003
 10
564.5952414084439
 20
-10.401625000000028
 10
564.544124220944
 20
-10.388476562500028
 10
564.4941476584439
 20
-10.372406250000028
 10
564.445311720944
 20
-10.353414062500029
 10
564.3976164084439
 20
-10.331500000000029
 10
564.351061720944
 20
-10.306664062500028
 10
564.305647658444
 20
-10.278906250000029
 10
564.262897658444
 20
-10.247945312500029
 10
564.2246476584439
 20
-10.213812500000028
 10
564.190897658444
 20
-10.176507812500027
 10
564.1616476584439
 20
-10.136031250000029
 10
564.136897658444
 20
-10.092382812500029
 10
564.116647658444
 20
-10.045562500000027
 10
564.100897658444
 20
-9.995570312500028
 10
564.0896476584439
 20
-9.942406250000028
 10
564.0828976584439
 20
-9.886070312500028
 10
564.0806476584439
 20
-9.826562500000028
 10
564.082288283444
 20
-9.779109375000028
 10
564.087210158444
 20
-9.733312500000029
 10
564.0954132834439
 20
-9.689171875000028
 10
564.1068976584439
 20
-9.646687500000029
 10
564.1216632834439
 20
-9.605859375000028
 10
564.139710158444
 20
-9.566687500000029
 10
564.161038283444
 20
-9.529171875000028
 10
564.1856476584439
 20
-9.493312500000028
 10
564.213538283444
 20
-9.459109375000029
 10
564.2447101584439
 20
-9.426562500000028
 10
564.278319533444
 20
-9.396281250000028
 10
564.3138351584439
 20
-9.369187500000027
 10
564.351257033444
 20
-9.345281250000028
 10
564.390585158444
 20
-9.324562500000027
 10
564.431819533444
 20
-9.307031250000028
 10
564.474960158444
 20
-9.292687500000028
 10
564.520007033444
 20
-9.281531250000029
 10
564.566960158444
 20
-9.273562500000029
 10
564.615819533444
 20
-9.268781250000028
 10
564.6665851584439
 20
-9.267187500000029
 10
564.7169835959439
 20
-9.268804687500028
 10
564.765678908444
 20
-9.273656250000029
 10
564.812671095944
 20
-9.28174218750003
 10
564.8579601584439
 20
-9.293062500000028
 10
564.901546095944
 20
-9.307617187500028
 10
564.9434289084439
 20
-9.325406250000029
 10
564.983608595944
 20
-9.346429687500027
 10
565.0220851584439
 20
-9.370687500000027
 10
565.058858595944
 20
-9.39817968750003
 10
565.093928908444
 20
-9.42890625000003
 10
565.126921095944
 20
-9.462703125000028
 10
565.157460158444
 20
-9.499718750000028
 10
565.185546095944
 20
-9.539953125000029
 10
565.211178908444
 20
-9.583406250000028
 10
565.234358595944
 20
-9.63007812500003
 10
565.255085158444
 20
-9.679968750000029
 10
565.2733585959439
 20
-9.733078125000029
 10
565.289178908444
 20
-9.789406250000027
 10
565.302546095944
 20
-9.848953125000028
 10
565.313460158444
 20
-9.911718750000029
 10
565.753303908444
 20
-9.833593750000029
 10
565.735163283444
 20
-9.747296875000028
 10
565.7129289084439
 20
-9.664968750000028
 10
565.686600783444
 20
-9.586609375000029
 10
565.656178908444
 20
-9.512218750000027
 10
565.6216632834439
 20
-9.441796875000028
 10
565.583053908444
 20
-9.375343750000027
 10
565.540350783444
 20
-9.312859375000027
 10
565.4935539084439
 20
-9.254343750000029
 10
565.442663283444
 20
-9.199796875000029
 10
565.387678908444
 20
-9.149218750000028
 10
565.329100783444
 20
-9.103054687500027
 10
565.267741408444
 20
-9.061750000000028
 10
565.203600783444
 20
-9.025304687500029
 10
565.136678908444
 20
-8.993718750000028
 10
565.0669757834439
 20
-8.96699218750003
 10
564.994491408444
 20
-8.94512500000003
 10
564.919225783444
 20
-8.928117187500028
 10
564.8411789084439
 20
-8.91596875000003
 10
564.760350783444
 20
-8.908679687500028
 10
564.676741408444
 20
-8.906250000000028
 10
564.6186164084439
 20
-8.907507812500029
 10
564.561428908444
 20
-8.911281250000028
 10
564.505178908444
 20
-8.917570312500029
 10
564.449866408444
 20
-8.926375000000029
 10
564.395491408444
 20
-8.93769531250003
 10
564.342053908444
 20
-8.951531250000027
 10
564.289553908444
 20
-8.96788281250003
 10
564.2379914084439
 20
-8.986750000000029
 10
564.187366408444
 20
-9.008132812500028
 10
564.137678908444
 20
-9.032031250000028
 10
564.0894679709439
 20
-9.058101562500028
 10
564.043585158444
 20
-9.086000000000027
 10
564.000030470944
 20
-9.11572656250003
 10
563.958803908444
 20
-9.147281250000027
 10
563.919905470944
 20
-9.180664062500028
 10
563.883335158444
 20
-9.215875000000029
 10
563.849092970944
 20
-9.252914062500029
 10
563.817178908444
 20
-9.291781250000028
 10
563.7875929709439
 20
-9.332476562500029
 10
563.7603351584439
 20
-9.375000000000028
 10
563.735397658444
 20
-9.418710937500029
 10
563.713085158444
 20
-9.462968750000027
 10
563.6933976584439
 20
-9.507773437500028
 10
563.676335158444
 20
-9.553125000000028
 10
563.661897658444
 20
-9.599023437500028
 10
563.650085158444
 20
-9.645468750000028
 10
563.6408976584439
 20
-9.692460937500028
 10
563.634335158444
 20
-9.740000000000027
 10
563.6303976584439
 20
-9.788085937500028
 10
563.629085158444
 20
-9.836718750000028
 10
563.6303351584439
 20
-9.882562500000027
 10
563.634085158444
 20
-9.927593750000028
 10
563.6403351584439
 20
-9.971812500000027
 10
563.649085158444
 20
-10.015218750000027
 10
563.660335158444
 20
-10.05781250000003
 10
563.674085158444
 20
-10.099593750000029
 10
563.690335158444
 20
-10.140562500000028
 10
563.7090851584439
 20
-10.180718750000029
 10
563.730335158444
 20
-10.220062500000028
 10
563.754085158444
 20
-10.258593750000028
 10
563.780124220944
 20
-10.29593750000003
 10
563.808553908444
 20
-10.331718750000029
 10
563.8393742209439
 20
-10.365937500000028
 10
563.8725851584439
 20
-10.398593750000028
 10
563.908186720944
 20
-10.429687500000028
 10
563.9461789084439
 20
-10.459218750000028
 10
563.986561720944
 20
-10.48718750000003
 10
564.0293351584439
 20
-10.513593750000028
 10
564.074499220944
 20
-10.538437500000029
 10
564.122053908444
 20
-10.56171875000003
 10
564.060030470944
 20
-10.577835937500028
 10
564.0008351584439
 20
-10.597125000000029
 10
563.944467970944
 20
-10.619585937500029
 10
563.8909289084439
 20
-10.645218750000028
 10
563.840217970944
 20
-10.67402343750003
 10
563.792335158444
 20
-10.706000000000028
 10
563.747280470944
 20
-10.741148437500028
 10
563.7050539084439
 20
-10.779468750000028
 10
563.665655470944
 20
-10.820960937500029
 10
563.629085158444
 20
-10.865625000000028
 10
563.595686720944
 20
-10.912882812500028
 10
563.565803908444
 20
-10.962468750000028
 10
563.539436720944
 20
-11.014382812500028
 10
563.516585158444
 20
-11.06862500000003
 10
563.497249220944
 20
-11.12519531250003
 10
563.481428908444
 20
-11.184093750000027
 10
563.469124220944
 20
-11.245320312500029
 10
563.460335158444
 20
-11.308875000000029
 10
563.455061720944
 20
-11.374757812500029
 10
563.453303908444
 20
-11.442968750000029
 10
563.456725783444
 20
-11.535289062500029
 10
563.466991408444
 20
-11.624750000000029
 10
563.484100783444
 20
-11.711351562500028
 10
563.5080539084439
 20
-11.795093750000028
 10
563.538850783444
 20
-11.875976562500028
 10
563.576491408444
 20
-11.954000000000029
 10
563.620975783444
 20
-12.029164062500028
 10
563.672303908444
 20
-12.101468750000029
 10
563.7304757834439
 20
-12.170914062500028
 10
563.7954914084439
 20
-12.23750000000003
 10
563.865585158444
 20
-12.29939843750003
 10
563.939303908444
 20
-12.354781250000029
 10
564.016647658444
 20
-12.403648437500028
 10
564.097616408444
 20
-12.446000000000028
 10
564.1822101584439
 20
-12.481835937500028
 10
564.2704289084439
 20
-12.51115625000003
 10
564.362272658444
 20
-12.533960937500028
 10
564.457741408444
 20
-12.550250000000029
 10
564.556835158444
 20
-12.560023437500028
 10
564.659553908444
 20
-12.563281250000028
 10
564.752178908444
 20
-12.560476562500028
 10
564.841616408444
 20
-12.552062500000028
 10
564.927866408444
 20
-12.538039062500028
 10
565.0109289084439
 20
-12.518406250000028
 10
565.090803908444
 20
-12.493164062500028
 10
565.167491408444
 20
-12.462312500000028
 10
565.240991408444
 20
-12.425851562500029
 10
565.311303908444
 20
-12.383781250000029
 10
565.378428908444
 20
-12.336101562500028
 10
565.442366408444
 20
-12.282812500000029
 10
565.501882033444
 20
-12.224914062500028
 10
565.5560539084439
 20
-12.163718750000028
 10
565.6048820334439
 20
-12.099226562500029
 10
565.648366408444
 20
-12.031437500000028
 10
565.686507033444
 20
-11.960351562500028
 10
565.719303908444
 20
-11.885968750000028
 10
565.7467570334439
 20
-11.808289062500029
 10
565.768866408444
 20
-11.727312500000028
 10
565.785632033444
 20
-11.643039062500028
 10
565.797053908444
 20
-11.555468750000028
  0
LWPOLYLINE
  5
5E
330
17
100
AcDbEntity
  8
0
100
AcDbPolyline
 90
7
 70
0
 10
579.537288283444
 20
-12.500000000000028
 10
579.537288283444
 20
-8.92109375000003
 10
579.063850783444
 20
-8.92109375000003
 10
579.063850783444
 20
-12.07734375000003
 10
577.3013507834439
 20
-12.07734375000003
 10
577.3013507834439
 20
-12.500000000000028
 10
579.537288283444
 20
-12.500000000000028
  0
LWPOLYLINE
  5
5F
330
17
100
AcDbEntity
  8
0
100
AcDbPolyline
 90
77
 70
0
 10
568.7364093771939
 20
-12.500000000000028
 10
568.7364093771939
 20
-9.907031250000028
 10
568.341096877194
 20
-9.907031250000028
 10
568.341096877194
 20
-10.30000000000003
 10
568.311018752194
 20
-10.246726562500028
 10
568.281409377194
 20
-10.197218750000028
 10
568.2522687521939
 20
-10.15147656250003
 10
568.2235968771939
 20
-10.109500000000029
 10
568.1953937521939
 20
-10.071289062500028
 10
568.167659377194
 20
-10.036843750000028
 10
568.140393752194
 20
-10.006164062500028
 10
568.1135968771939
 20
-9.979250000000029
 10
568.087268752194
 20
-9.956101562500027
 10
568.061409377194
 20
-9.93671875000003
 10
568.035526564694
 20
-9.919945312500028
 10
568.009128127194
 20
-9.904937500000027
 10
567.982214064694
 20
-9.891695312500028
 10
567.954784377194
 20
-9.880218750000028
 10
567.9268390646939
 20
-9.870507812500028
 10
567.898378127194
 20
-9.862562500000028
 10
567.8694015646939
 20
-9.856382812500028
 10
567.839909377194
 20
-9.851968750000028
 10
567.809901564694
 20
-9.849320312500028
 10
567.7793781271939
 20
-9.848437500000028
 10
567.734925002194
 20
-9.849851562500028
 10
567.690315627194
 20
-9.854093750000029
 10
567.645550002194
 20
-9.861164062500027
 10
567.600628127194
 20
-9.87106250000003
 10
567.555550002194
 20
-9.883789062500028
 10
567.510315627194
 20
-9.899343750000028
 10
567.4649250021939
 20
-9.917726562500029
 10
567.419378127194
 20
-9.938937500000028
 10
567.373675002194
 20
-9.962976562500028
 10
567.327815627194
 20
-9.989843750000029
 10
567.479378127194
 20
-10.39765625000003
 10
567.5115656271939
 20
-10.379546875000027
 10
567.543753127194
 20
-10.363343750000027
 10
567.575940627194
 20
-10.349046875000028
 10
567.6081281271939
 20
-10.33665625000003
 10
567.640315627194
 20
-10.326171875000028
 10
567.672503127194
 20
-10.317593750000029
 10
567.7046906271939
 20
-10.310921875000028
 10
567.736878127194
 20
-10.30615625000003
 10
567.769065627194
 20
-10.30329687500003
 10
567.801253127194
 20
-10.302343750000029
 10
567.8298625021939
 20
-10.303210937500028
 10
567.857878127194
 20
-10.305812500000028
 10
567.885300002194
 20
-10.310148437500029
 10
567.9121281271939
 20
-10.31621875000003
 10
567.938362502194
 20
-10.324023437500028
 10
567.964003127194
 20
-10.333562500000028
 10
567.989050002194
 20
-10.34483593750003
 10
568.013503127194
 20
-10.357843750000029
 10
568.037362502194
 20
-10.372585937500029
 10
568.0606281271939
 20
-10.389062500000028
 10
568.082932814694
 20
-10.407078125000028
 10
568.103909377194
 20
-10.426437500000027
 10
568.123557814694
 20
-10.447140625000028
 10
568.141878127194
 20
-10.469187500000029
 10
568.158870314694
 20
-10.492578125000028
 10
568.1745343771939
 20
-10.517312500000028
 10
568.188870314694
 20
-10.543390625000029
 10
568.2018781271939
 20
-10.570812500000027
 10
568.213557814694
 20
-10.59957812500003
 10
568.223909377194
 20
-10.629687500000028
 10
568.2378625021939
 20
-10.677000000000028
 10
568.2503468771939
 20
-10.725187500000029
 10
568.261362502194
 20
-10.774250000000029
 10
568.270909377194
 20
-10.82418750000003
 10
568.278987502194
 20
-10.875000000000028
 10
568.2855968771939
 20
-10.926687500000028
 10
568.290737502194
 20
-10.979250000000029
 10
568.2944093771939
 20
-11.032687500000028
 10
568.296612502194
 20
-11.087000000000028
 10
568.297346877194
 20
-11.142187500000029
 10
568.297346877194
 20
-12.500000000000028
 10
568.7364093771939
 20
-12.500000000000028
  0
LWPOLYLINE
  5
60
330
17
100
AcDbEntity
  8
0
100
AcDbPolyline
 90
133
 70
0
 10
569.737483595944
 20
-11.664843750000028
 10
569.283577345944
 20
-11.721093750000028
 10
569.306819533444
 20
-11.798851562500028
 10
569.333733595944
 20
-11.873062500000028
 10
569.364319533444
 20
-11.943726562500029
 10
569.398577345944
 20
-12.010843750000028
 10
569.436507033444
 20
-12.07441406250003
 10
569.4781085959439
 20
-12.134437500000029
 10
569.523382033444
 20
-12.190914062500028
 10
569.572327345944
 20
-12.243843750000028
 10
569.624944533444
 20
-12.293226562500028
 10
569.6812335959439
 20
-12.33906250000003
 10
569.740967970944
 20
-12.380773437500029
 10
569.803921095944
 20
-12.418093750000029
 10
569.8700929709439
 20
-12.451023437500028
 10
569.939483595944
 20
-12.479562500000029
 10
570.012092970944
 20
-12.503710937500028
 10
570.087921095944
 20
-12.523468750000028
 10
570.1669679709439
 20
-12.538835937500028
 10
570.249233595944
 20
-12.549812500000028
 10
570.334717970944
 20
-12.556398437500029
 10
570.4234210959439
 20
-12.558593750000028
 10
570.534819533444
 20
-12.555093750000028
 10
570.641514845944
 20
-12.544593750000029
 10
570.743507033444
 20
-12.527093750000029
 10
570.8407960959439
 20
-12.50259375000003
 10
570.933382033444
 20
-12.471093750000028
 10
571.021264845944
 20
-12.432593750000029
 10
571.1044445334439
 20
-12.387093750000028
 10
571.1829210959439
 20
-12.334593750000028
 10
571.2566945334439
 20
-12.275093750000028
 10
571.3257648459439
 20
-12.208593750000029
 10
571.389147658444
 20
-12.135625000000028
 10
571.445858595944
 20
-12.057031250000028
 10
571.4958976584439
 20
-11.972812500000028
 10
571.539264845944
 20
-11.882968750000028
 10
571.575960158444
 20
-11.787500000000028
 10
571.6059835959439
 20
-11.686406250000028
 10
571.629335158444
 20
-11.579687500000029
 10
571.6460148459439
 20
-11.467343750000028
 10
571.6560226584439
 20
-11.349375000000029
 10
571.659358595944
 20
-11.22578125000003
 10
571.6559914084439
 20
-11.097781250000029
 10
571.645889845944
 20
-10.975656250000029
 10
571.629053908444
 20
-10.859406250000028
 10
571.605483595944
 20
-10.749031250000028
 10
571.575178908444
 20
-10.644531250000028
 10
571.538139845944
 20
-10.545906250000028
 10
571.494366408444
 20
-10.453156250000028
 10
571.443858595944
 20
-10.366281250000029
 10
571.386616408444
 20
-10.285281250000029
 10
571.322639845944
 20
-10.21015625000003
 10
571.2531476584439
 20
-10.141429687500029
 10
571.179671095944
 20
-10.079937500000028
 10
571.102210158444
 20
-10.025679687500029
 10
571.020764845944
 20
-9.978656250000029
 10
570.935335158444
 20
-9.938867187500028
 10
570.8459210959439
 20
-9.906312500000027
 10
570.7525226584439
 20
-9.880992187500027
 10
570.655139845944
 20
-9.862906250000028
 10
570.553772658444
 20
-9.85205468750003
 10
570.448421095944
 20
-9.848437500000028
 10
570.346264845944
 20
-9.851976562500028
 10
570.247921095944
 20
-9.862593750000027
 10
570.1533898459439
 20
-9.880289062500028
 10
570.062671095944
 20
-9.905062500000028
 10
569.975764845944
 20
-9.936914062500028
 10
569.892671095944
 20
-9.975843750000028
 10
569.813389845944
 20
-10.021851562500029
 10
569.737921095944
 20
-10.07493750000003
 10
569.6662648459439
 20
-10.13510156250003
 10
569.598421095944
 20
-10.20234375000003
 10
569.535780470944
 20
-10.276007812500028
 10
569.4797335959439
 20
-10.35543750000003
 10
569.430280470944
 20
-10.440632812500029
 10
569.387421095944
 20
-10.531593750000027
 10
569.3511554709439
 20
-10.628320312500028
 10
569.321483595944
 20
-10.730812500000027
 10
569.298405470944
 20
-10.839070312500029
 10
569.281921095944
 20
-10.95309375000003
 10
569.272030470944
 20
-11.072882812500028
 10
569.268733595944
 20
-11.19843750000003
 10
569.268757033444
 20
-11.206640625000029
 10
569.2688273459439
 20
-11.215625000000028
 10
569.2689445334439
 20
-11.225390625000028
 10
569.269108595944
 20
-11.235937500000029
 10
569.269319533444
 20
-11.24726562500003
 10
569.269577345944
 20
-11.259375000000029
 10
569.269882033444
 20
-11.272265625000028
 10
569.270233595944
 20
-11.285937500000028
 10
569.2706320334439
 20
-11.300390625000029
 10
569.2710773459439
 20
-11.31562500000003
 10
571.2046710959439
 20
-11.31562500000003
 10
571.1978976584439
 20
-11.399093750000029
 10
571.187264845944
 20
-11.478562500000029
 10
571.1727726584439
 20
-11.554031250000028
 10
571.1544210959439
 20
-11.625500000000029
 10
571.132210158444
 20
-11.692968750000029
 10
571.106139845944
 20
-11.756437500000029
 10
571.0762101584439
 20
-11.815906250000028
 10
571.042421095944
 20
-11.871375000000029
 10
571.0047726584439
 20
-11.922843750000029
 10
570.963264845944
 20
-11.970312500000029
 10
570.9187492209439
 20
-12.013359375000029
 10
570.8720773459439
 20
-12.051875000000027
 10
570.8232492209439
 20
-12.085859375000028
 10
570.7722648459439
 20
-12.115312500000028
 10
570.719124220944
 20
-12.140234375000029
 10
570.663827345944
 20
-12.160625000000028
 10
570.606374220944
 20
-12.176484375000028
 10
570.5467648459439
 20
-12.187812500000028
 10
570.484999220944
 20
-12.194609375000029
 10
570.421077345944
 20
-12.196875000000029
 10
570.3734992209439
 20
-12.195609375000029
 10
570.327327345944
 20
-12.191812500000028
 10
570.2825617209439
 20
-12.185484375000028
 10
570.239202345944
 20
-12.176625000000028
 10
570.197249220944
 20
-12.16523437500003
 10
570.1567023459439
 20
-12.151312500000028
 10
570.117561720944
 20
-12.134859375000028
 10
570.079827345944
 20
-12.115875000000027
 10
570.043499220944
 20
-12.094359375000028
 10
570.008577345944
 20
-12.070312500000028
 10
569.975069533444
 20
-12.043335937500029
 10
569.9429835959439
 20
-12.013343750000029
 10
569.912319533444
 20
-11.980335937500028
 10
569.883077345944
 20
-11.944312500000029
 10
569.855257033444
 20
-11.905273437500028
 10
569.828858595944
 20
-11.863218750000028
 10
569.803882033444
 20
-11.818148437500028
 10
569.780327345944
 20
-11.770062500000028
 10
569.758194533444
 20
-11.718960937500029
 10
569.737483595944
 20
-11.664843750000028
  0
LWPOLYLINE
  5
61
330
17
100
AcDbEntity
  8
0
100
AcDbPolyline
 90
244
 70
0
 10
575.101057814694
 20
-12.180468750000028
 10
575.149776564694
 20
-12.220664062500028
 10
575.1981203146939
 20
-12.258437500000028
 10
575.2460890646939
 20
-12.293789062500029
 10
575.293682814694
 20
-12.326718750000028
 10
575.3409015646939
 20
-12.357226562500028
 10
575.3877453146939
 20
-12.385312500000028
 10
575.434214064694
 20
-12.410976562500029
 10
575.480307814694
 20
-12.434218750000028
 10
575.526026564694
 20
-12.455039062500028
 10
575.5713703146939
 20
-12.473437500000028
 10
575.6168546896939
 20
-12.489617187500029
 10
575.662995314694
 20
-12.504093750000028
 10
575.709792189694
 20
-12.51686718750003
 10
575.7572453146939
 20
-12.527937500000029
 10
575.805354689694
 20
-12.53730468750003
 10
575.854120314694
 20
-12.544968750000029
 10
575.903542189694
 20
-12.550929687500028
 10
575.9536203146939
 20
-12.555187500000029
 10
576.004354689694
 20
-12.557742187500029
 10
576.0557453146939
 20
-12.558593750000028
 10
576.139237502194
 20
-12.556507812500028
 10
576.2187765646939
 20
-12.550250000000029
 10
576.294362502194
 20
-12.539820312500028
 10
576.3659953146939
 20
-12.525218750000029
 10
576.4336750021939
 20
-12.506445312500029
 10
576.497401564694
 20
-12.483500000000028
 10
576.557175002194
 20
-12.456382812500028
 10
576.612995314694
 20
-12.425093750000029
 10
576.664862502194
 20
-12.389632812500029
 10
576.712776564694
 20
-12.350000000000028
 10
576.7564171896939
 20
-12.307117187500028
 10
576.795464064694
 20
-12.261906250000028
 10
576.829917189694
 20
-12.214367187500029
 10
576.859776564694
 20
-12.164500000000029
 10
576.885042189694
 20
-12.112304687500028
 10
576.9057140646939
 20
-12.057781250000028
 10
576.921792189694
 20
-12.000929687500028
 10
576.933276564694
 20
-11.941750000000027
 10
576.940167189694
 20
-11.880242187500029
 10
576.9424640646939
 20
-11.816406250000028
 10
576.941596877194
 20
-11.778617187500029
 10
576.938995314694
 20
-11.741500000000029
 10
576.934659377194
 20
-11.705054687500029
 10
576.9285890646939
 20
-11.669281250000028
 10
576.920784377194
 20
-11.634179687500028
 10
576.9112453146939
 20
-11.599750000000029
 10
576.8999718771939
 20
-11.56599218750003
 10
576.886964064694
 20
-11.532906250000028
 10
576.872221877194
 20
-11.50049218750003
 10
576.855745314694
 20
-11.468750000000028
 10
576.837862502194
 20
-11.437812500000028
 10
576.818901564694
 20
-11.408125000000028
 10
576.798862502194
 20
-11.379687500000028
 10
576.777745314694
 20
-11.352500000000028
 10
576.755550002194
 20
-11.326562500000028
 10
576.732276564694
 20
-11.301875000000027
 10
576.707925002194
 20
-11.278437500000027
 10
576.6824953146939
 20
-11.256250000000028
 10
576.655987502194
 20
-11.235312500000028
 10
576.628401564694
 20
-11.215625000000028
 10
576.5999250021939
 20
-11.197031250000029
 10
576.570745314694
 20
-11.179375000000029
 10
576.5408625021939
 20
-11.162656250000028
 10
576.510276564694
 20
-11.146875000000028
 10
576.478987502194
 20
-11.13203125000003
 10
576.4469953146939
 20
-11.118125000000028
 10
576.414300002194
 20
-11.105156250000029
 10
576.380901564694
 20
-11.093125000000029
 10
576.346800002194
 20
-11.082031250000028
 10
576.311995314694
 20
-11.071875000000029
 10
576.2848859396939
 20
-11.065023437500027
 10
576.255120314694
 20
-11.058218750000028
 10
576.222698439694
 20
-11.051460937500028
 10
576.187620314694
 20
-11.044750000000029
 10
576.149885939694
 20
-11.038085937500028
 10
576.109495314694
 20
-11.031468750000029
 10
576.066448439694
 20
-11.024898437500028
 10
576.020745314694
 20
-11.018375000000027
 10
575.9723859396939
 20
-11.011898437500028
 10
575.921370314694
 20
-11.005468750000029
 10
575.817768752194
 20
-10.992570312500028
 10
575.7197765646939
 20
-10.979187500000029
 10
575.6273937521939
 20
-10.965320312500028
 10
575.540620314694
 20
-10.950968750000028
 10
575.459456252194
 20
-10.936132812500029
 10
575.3839015646939
 20
-10.920812500000029
 10
575.313956252194
 20
-10.905007812500028
 10
575.249620314694
 20
-10.888718750000027
 10
575.1908937521939
 20
-10.871945312500028
 10
575.1377765646939
 20
-10.85468750000003
 10
575.1373312521939
 20
-10.837226562500028
 10
575.136932814694
 20
-10.821093750000028
 10
575.136581252194
 20
-10.806289062500028
 10
575.136276564694
 20
-10.792812500000029
 10
575.136018752194
 20
-10.780664062500028
 10
575.135807814694
 20
-10.769843750000028
 10
575.1356437521939
 20
-10.760351562500029
 10
575.1355265646939
 20
-10.752187500000028
 10
575.135456252194
 20
-10.745351562500028
 10
575.135432814694
 20
-10.739843750000029
 10
575.1366828146939
 20
-10.687679687500028
 10
575.140432814694
 20
-10.638687500000028
 10
575.1466828146939
 20
-10.592867187500028
 10
575.155432814694
 20
-10.550218750000028
 10
575.166682814694
 20
-10.510742187500028
 10
575.180432814694
 20
-10.474437500000029
 10
575.196682814694
 20
-10.441304687500029
 10
575.2154328146939
 20
-10.411343750000029
 10
575.236682814694
 20
-10.384554687500028
 10
575.260432814694
 20
-10.360937500000029
 10
575.295667189694
 20
-10.332734375000028
 10
575.3341828146939
 20
-10.307500000000028
 10
575.375979689694
 20
-10.285234375000028
 10
575.421057814694
 20
-10.265937500000028
 10
575.469417189694
 20
-10.249609375000029
 10
575.521057814694
 20
-10.236250000000028
 10
575.575979689694
 20
-10.225859375000027
 10
575.634182814694
 20
-10.218437500000029
 10
575.695667189694
 20
-10.213984375000027
 10
575.760432814694
 20
-10.212500000000029
 10
575.8208390646939
 20
-10.213585937500028
 10
575.877995314694
 20
-10.216843750000027
 10
575.9319015646939
 20
-10.222273437500029
 10
575.982557814694
 20
-10.229875000000028
 10
576.029964064694
 20
-10.239648437500028
 10
576.0741203146939
 20
-10.251593750000028
 10
576.115026564694
 20
-10.265710937500028
 10
576.152682814694
 20
-10.282000000000028
 10
576.187089064694
 20
-10.300460937500027
 10
576.218245314694
 20
-10.321093750000028
 10
576.247010939694
 20
-10.344484375000029
 10
576.274245314694
 20
-10.371218750000029
 10
576.2999484396939
 20
-10.401296875000028
 10
576.3241203146939
 20
-10.434718750000028
 10
576.3467609396939
 20
-10.471484375000028
 10
576.367870314694
 20
-10.511593750000028
 10
576.3874484396939
 20
-10.555046875000029
 10
576.405495314694
 20
-10.601843750000029
 10
576.422010939694
 20
-10.651984375000028
 10
576.436995314694
 20
-10.705468750000028
 10
576.866682814694
 20
-10.646875000000028
 10
576.854206252194
 20
-10.592781250000028
 10
576.840214064694
 20
-10.540812500000028
 10
576.824706252194
 20
-10.490968750000029
 10
576.807682814694
 20
-10.443250000000027
 10
576.7891437521939
 20
-10.39765625000003
 10
576.769089064694
 20
-10.354187500000029
 10
576.747518752194
 20
-10.312843750000027
 10
576.724432814694
 20
-10.273625000000028
 10
576.6998312521939
 20
-10.236531250000029
 10
576.673714064694
 20
-10.201562500000028
 10
576.645643752194
 20
-10.168437500000028
 10
576.615182814694
 20
-10.136875000000028
 10
576.582331252194
 20
-10.106875000000027
 10
576.547089064694
 20
-10.078437500000028
 10
576.509456252194
 20
-10.051562500000028
 10
576.469432814694
 20
-10.026250000000028
 10
576.4270187521939
 20
-10.002500000000028
 10
576.3822140646939
 20
-9.980312500000029
 10
576.335018752194
 20
-9.959687500000028
 10
576.285432814694
 20
-9.94062500000003
 10
576.233846877194
 20
-9.923109375000028
 10
576.180651564694
 20
-9.907437500000029
 10
576.125846877194
 20
-9.893609375000029
 10
576.069432814694
 20
-9.881625000000028
 10
576.011409377194
 20
-9.871484375000028
 10
575.951776564694
 20
-9.863187500000027
 10
575.890534377194
 20
-9.856734375000029
 10
575.827682814694
 20
-9.852125000000028
 10
575.7632218771939
 20
-9.849359375000027
 10
575.697151564694
 20
-9.848437500000028
 10
575.631995314694
 20
-9.849218750000027
 10
575.569339064694
 20
-9.851562500000028
 10
575.509182814694
 20
-9.855468750000028
 10
575.451526564694
 20
-9.860937500000029
 10
575.396370314694
 20
-9.867968750000028
 10
575.3437140646939
 20
-9.876562500000027
 10
575.2935578146939
 20
-9.886718750000028
 10
575.245901564694
 20
-9.898437500000028
 10
575.200745314694
 20
-9.911718750000029
 10
575.158089064694
 20
-9.926562500000028
 10
575.1176281271939
 20
-9.942593750000029
 10
575.079370314694
 20
-9.959437500000028
 10
575.0433156271939
 20
-9.977093750000028
 10
575.0094640646939
 20
-9.995562500000029
 10
574.977815627194
 20
-10.01484375000003
 10
574.948370314694
 20
-10.034937500000028
 10
574.9211281271939
 20
-10.05584375000003
 10
574.896089064694
 20
-10.077562500000028
 10
574.873253127194
 20
-10.100093750000028
 10
574.8526203146939
 20
-10.123437500000028
 10
574.833675002194
 20
-10.147664062500027
 10
574.815901564694
 20
-10.173156250000028
 10
574.799300002194
 20
-10.199914062500028
 10
574.783870314694
 20
-10.227937500000028
 10
574.7696125021939
 20
-10.257226562500028
 10
574.756526564694
 20
-10.287781250000029
 10
574.744612502194
 20
-10.31960156250003
 10
574.733870314694
 20
-10.352687500000028
 10
574.724300002194
 20
-10.387039062500028
 10
574.7159015646939
 20
-10.422656250000028
 10
574.711745314694
 20
-10.446812500000028
 10
574.7080265646939
 20
-10.474593750000029
 10
574.7047453146939
 20
-10.506000000000029
 10
574.7019015646939
 20
-10.541031250000028
 10
574.699495314694
 20
-10.579687500000029
 10
574.6975265646939
 20
-10.621968750000029
 10
574.695995314694
 20
-10.667875000000029
 10
574.694901564694
 20
-10.717406250000028
 10
574.694245314694
 20
-10.770562500000029
 10
574.694026564694
 20
-10.82734375000003
 10
574.694026564694
 20
-11.41328125000003
 10
574.693745314694
 20
-11.531429687500028
 10
574.692901564694
 20
-11.640562500000028
 10
574.691495314694
 20
-11.740679687500029
 10
574.689526564694
 20
-11.831781250000029
 10
574.686995314694
 20
-11.913867187500028
 10
574.683901564694
 20
-11.986937500000028
 10
574.6802453146939
 20
-12.050992187500029
 10
574.676026564694
 20
-12.10603125000003
 10
574.6712453146939
 20
-12.152054687500028
 10
574.665901564694
 20
-12.189062500000029
 10
574.659721877194
 20
-12.221281250000029
 10
574.652432814694
 20
-12.253250000000028
 10
574.644034377194
 20
-12.28496875000003
 10
574.6345265646939
 20
-12.316437500000028
 10
574.623909377194
 20
-12.347656250000028
 10
574.6121828146939
 20
-12.378625000000028
 10
574.599346877194
 20
-12.409343750000028
 10
574.5854015646939
 20
-12.439812500000029
 10
574.570346877194
 20
-12.470031250000028
 10
574.554182814694
 20
-12.500000000000028
 10
575.013557814694
 20
-12.500000000000028
 10
575.026667189694
 20
-12.472195312500029
 10
575.038807814694
 20
-12.443468750000028
 10
575.0499796896939
 20
-12.413820312500029
 10
575.0601828146939
 20
-12.383250000000029
 10
575.0694171896939
 20
-12.35175781250003
 10
575.077682814694
 20
-12.319343750000028
 10
575.084979689694
 20
-12.286007812500028
 10
575.091307814694
 20
-12.251750000000028
 10
575.096667189694
 20
-12.216570312500028
 10
575.101057814694
 20
-12.180468750000028
  0
LWPOLYLINE
  5
62
330
17
100
AcDbEntity
  8
0
100
AcDbPolyline
 90
118
 70
0
 10
574.032014845944
 20
-13.498437500000028
 10
574.081233595944
 20
-13.085937500000028
 10
574.052702345944
 20
-13.093359375000029
 10
574.0249210959439
 20
-13.100000000000028
 10
573.997889845944
 20
-13.105859375000028
 10
573.971608595944
 20
-13.110937500000029
 10
573.946077345944
 20
-13.115234375000028
 10
573.921296095944
 20
-13.118750000000029
 10
573.8972648459439
 20
-13.121484375000028
 10
573.873983595944
 20
-13.123437500000028
 10
573.8514523459439
 20
-13.124609375000029
 10
573.8296710959439
 20
-13.125000000000028
 10
573.800889845944
 20
-13.124507812500028
 10
573.7732960959439
 20
-13.123031250000029
 10
573.746889845944
 20
-13.120570312500028
 10
573.721671095944
 20
-13.117125000000028
 10
573.697639845944
 20
-13.112695312500028
 10
573.674796095944
 20
-13.107281250000028
 10
573.653139845944
 20
-13.100882812500029
 10
573.6326710959439
 20
-13.093500000000029
 10
573.613389845944
 20
-13.085132812500028
 10
573.5952960959439
 20
-13.075781250000029
 10
573.577960158444
 20
-13.065703125000029
 10
573.5612648459439
 20
-13.054843750000028
 10
573.545210158444
 20
-13.043203125000028
 10
573.529796095944
 20
-13.030781250000029
 10
573.515022658444
 20
-13.017578125000028
 10
573.500889845944
 20
-13.003593750000029
 10
573.487397658444
 20
-12.988828125000028
 10
573.474546095944
 20
-12.973281250000028
 10
573.4623351584439
 20
-12.956953125000028
 10
573.4507648459439
 20
-12.939843750000028
 10
573.441967970944
 20
-12.92461718750003
 10
573.432139845944
 20
-12.905500000000028
 10
573.421280470944
 20
-12.882492187500029
 10
573.409389845944
 20
-12.855593750000029
 10
573.396467970944
 20
-12.824804687500029
 10
573.382514845944
 20
-12.790125000000028
 10
573.367530470944
 20
-12.751554687500029
 10
573.3515148459439
 20
-12.709093750000028
 10
573.3344679709439
 20
-12.662742187500028
 10
573.316389845944
 20
-12.61250000000003
 10
573.313889845944
 20
-12.604812500000028
 10
573.311077345944
 20
-12.596437500000029
 10
573.3079523459439
 20
-12.587375000000028
 10
573.3045148459439
 20
-12.577625000000028
 10
573.300764845944
 20
-12.567187500000028
 10
573.2967023459439
 20
-12.556062500000028
 10
573.2923273459439
 20
-12.544250000000028
 10
573.287639845944
 20
-12.531750000000029
 10
573.282639845944
 20
-12.518562500000028
 10
573.277327345944
 20
-12.504687500000028
 10
574.261702345944
 20
-9.907031250000028
 10
573.788264845944
 20
-9.907031250000028
 10
573.248421095944
 20
-11.408593750000028
 10
573.2276945334439
 20
-11.466070312500028
 10
573.207389845944
 20
-11.524125000000028
 10
573.1875070334439
 20
-11.582757812500029
 10
573.168046095944
 20
-11.641968750000029
 10
573.1490070334439
 20
-11.701757812500029
 10
573.1303898459439
 20
-11.762125000000028
 10
573.1121945334439
 20
-11.823070312500029
 10
573.094421095944
 20
-11.884593750000029
 10
573.0770695334439
 20
-11.946695312500028
 10
573.0601398459439
 20
-12.009375000000029
 10
573.0446945334439
 20
-11.948906250000029
 10
573.028671095944
 20
-11.888750000000028
 10
573.012069533444
 20
-11.828906250000028
 10
572.9948898459439
 20
-11.769375000000029
 10
572.9771320334439
 20
-11.71015625000003
 10
572.958796095944
 20
-11.651250000000028
 10
572.939882033444
 20
-11.592656250000028
 10
572.920389845944
 20
-11.53437500000003
 10
572.900319533444
 20
-11.476406250000029
 10
572.879671095944
 20
-11.418750000000028
 10
572.3257648459439
 20
-9.907031250000028
 10
571.885921095944
 20
-9.907031250000028
 10
572.8726398459439
 20
-12.543750000000028
 10
572.903647658444
 20
-12.626554687500029
 10
572.933233595944
 20
-12.704031250000028
 10
572.961397658444
 20
-12.77617968750003
 10
572.9881398459439
 20
-12.843000000000028
 10
573.013460158444
 20
-12.90449218750003
 10
573.0373585959439
 20
-12.960656250000028
 10
573.059835158444
 20
-13.011492187500028
 10
573.080889845944
 20
-13.057000000000029
 10
573.100522658444
 20
-13.097179687500029
 10
573.1187335959439
 20
-13.13203125000003
 10
573.142514845944
 20
-13.174453125000028
 10
573.166983595944
 20
-13.214531250000029
 10
573.192139845944
 20
-13.252265625000028
 10
573.217983595944
 20
-13.287656250000028
 10
573.244514845944
 20
-13.320703125000028
 10
573.2717335959439
 20
-13.351406250000029
 10
573.299639845944
 20
-13.37976562500003
 10
573.328233595944
 20
-13.405781250000029
 10
573.357514845944
 20
-13.429453125000029
 10
573.387483595944
 20
-13.450781250000029
 10
573.418382033444
 20
-13.470078125000029
 10
573.450452345944
 20
-13.48734375000003
 10
573.483694533444
 20
-13.502578125000028
 10
573.518108595944
 20
-13.515781250000028
 10
573.553694533444
 20
-13.526953125000029
 10
573.590452345944
 20
-13.536093750000028
 10
573.6283820334439
 20
-13.543203125000028
 10
573.667483595944
 20
-13.548281250000029
 10
573.707757033444
 20
-13.551328125000028
 10
573.749202345944
 20
-13.552343750000029
 10
573.774811720944
 20
-13.551804687500029
 10
573.801014845944
 20
-13.550187500000028
 10
573.8278117209439
 20
-13.547492187500028
 10
573.855202345944
 20
-13.543718750000028
 10
573.883186720944
 20
-13.538867187500028
 10
573.9117648459439
 20
-13.532937500000028
 10
573.940936720944
 20
-13.525929687500028
 10
573.970702345944
 20
-13.51784375000003
 10
574.001061720944
 20
-13.50867968750003
 10
574.032014845944
 20
-13.498437500000028
  0
LWPOLYLINE
  5
63
330
17
100
AcDbEntity
  8
0
100
AcDbPolyline
 90
16
 70
0
 10
494.90369453344397
 20
344.9799999999999
 10
494.883694533444
 20
344.9999999999999
 10
464.9319788046914
 20
344.9999999999999
 10
464.90369453344397
 20
345.0282842712474
 10
464.90369453344397
 20
345.45109350054133
 10
464.90350503811
 20
345.45093707959506
 10
464.7141652252592
 20
345.4874781557136
 10
464.7130157564857
 20
345.48700203015807
 10
464.40469453344394
 20
345.02556671100143
 10
464.40469453344394
 20
344.06898518176683
 10
464.46348457312433
 20
344.06898518176683
 10
464.4644669327158
 20
344.0677981800742
 10
464.4605786215104
 20
344.0473720558371
 10
494.883694533444
 20
344.0473720558371
 10
494.90369453344397
 20
344.0673720558371
 10
494.90369453344397
 20
344.9799999999999
  0
LWPOLYLINE
  5
64
330
17
100
AcDbEntity
  8
0
100
AcDbPolyline
 90
18
 70
0
 10
435.3451869326659
 20
344.0473720558371
 10
435.34129432580835
 20
344.06694151202004
 10
435.3422746589757
 20
344.0681366022398
 10
435.4031275758342
 20
344.0681641146399
 10
435.40269461953574
 20
345.02579243886476
 10
435.09437342443186
 20
345.48700198292534
 10
435.09322671520533
 20
345.48747696543904
 10
434.90388962376596
 20
345.44981547634814
 10
434.90369453344397
 20
345.44997558283774
 10
434.90369453344397
 20
345.02828427124734
 10
434.8754102621965
 20
344.9999999999999
 10
404.92369453344395
 20
344.9999999999999
 10
404.92369453344395
 20
344.9899999999999
 10
404.9298748733314
 20
344.9861803398874
 10
404.90369453344397
 20
344.97999999999996
 10
404.90369453344397
 20
344.0673720558371
 10
404.92369453344395
 20
344.0473720558371
 10
435.3451869326659
 20
344.0473720558371
  0
LWPOLYLINE
  5
65
330
17
100
AcDbEntity
  8
0
100
AcDbPolyline
 90
16
 70
0
 10
494.90369453344385
 20
674.98
 10
494.8836945334439
 20
675.0
 10
464.93197880469137
 20
675.0
 10
464.9036945334439
 20
675.0282842712475
 10
464.9036945334439
 20
675.4510935005413
 10
464.9035050381099
 20
675.4509370795951
 10
464.7141652252591
 20
675.4874781557138
 10
464.7130157564857
 20
675.4870020301582
 10
464.4046945334439
 20
675.0255667110015
 10
464.4046945334439
 20
674.0689851817668
 10
464.46348457312445
 20
674.0689851817668
 10
464.4644669327159
 20
674.0677981800742
 10
464.4605786215105
 20
674.0473720558372
 10
494.8836945334439
 20
674.0473720558372
 10
494.90369453344385
 20
674.0673720558372
 10
494.90369453344385
 20
674.98
  0
LWPOLYLINE
  5
66
330
17
100
AcDbEntity
  8
0
100
AcDbPolyline
 90
24
 70
0
 10
435.3451869326659
 20
674.0473720558372
 10
435.3412943258083
 20
674.0669415120201
 10
435.34227465897567
 20
674.0681366022399
 10
435.4031275758341
 20
674.06816411464
 10
435.40269461953574
 20
675.025792438865
 10
435.09437342443175
 20
675.4870019829257
 10
435.09322671520545
 20
675.4874769654393
 10
434.9038896237659
 20
675.4498154763484
 10
434.90369453344385
 20
675.449975582838
 10
434.90369453344385
 20
675.0282842712475
 10
434.8754102621964
 20
675.0
 10
404.9319788046914
 20
675.0
 10
404.90369453344397
 20
675.0282842712475
 10
404.90369453344397
 20
675.9326279441628
 10
404.883694533444
 20
675.9526279441628
 10
374.92369453344395
 20
675.9526279441628
 10
374.90369453344397
 20
675.9326279441628
 10
374.90369453344397
 20
675.02
 10
374.92369453344395
 20
675.0
 10
404.8754102621965
 20
675.0
 10
404.90369453344397
 20
674.9717157287525
 10
404.90369453344397
 20
674.0673720558372
 10
404.92369453344395
 20
674.0473720558372
 10
435.3451869326659
 20
674.0473720558372
  0
LWPOLYLINE
  5
67
330
17
100
AcDbEntity
  8
0
100
AcDbPolyline
 90
16
 70
0
 10
494.90369453344385
 20
509.97999999999996
 10
494.8836945334439
 20
509.99999999999994
 10
464.93197880469137
 20
509.99999999999994
 10
464.9036945334439
 20
510.02828427124746
 10
464.9036945334439
 20
510.4510935005414
 10
464.9035050381099
 20
510.4509370795951
 10
464.7141652252591
 20
510.48747815571363
 10
464.7130157564856
 20
510.4870020301581
 10
464.4046945334439
 20
510.0255667110015
 10
464.4046945334439
 20
509.0689851817669
 10
464.4634845731243
 20
509.0689851817669
 10
464.46446693271577
 20
509.06779818007425
 10
464.4605786215103
 20
509.0473720558372
 10
494.8836945334439
 20
509.0473720558372
 10
494.90369453344385
 20
509.06737205583715
 10
494.90369453344385
 20
509.97999999999996
  0
LWPOLYLINE
  5
68
330
17
100
AcDbEntity
  8
0
100
AcDbPolyline
 90
18
 70
0
 10
435.34518693266585
 20
509.0473720558372
 10
435.34129432580824
 20
509.0669415120201
 10
435.3422746589756
 20
509.06813660223986
 10
435.4031275758341
 20
509.06816411463996
 10
435.40269461953574
 20
510.0257924388648
 10
435.09437342443186
 20
510.4870019829254
 10
435.09322671520533
 20
510.4874769654391
 10
434.9038896237659
 20
510.4498154763482
 10
434.90369453344385
 20
510.4499755828378
 10
434.90369453344385
 20
510.0282842712474
 10
434.8754102621964
 20
509.99999999999994
 10
404.92369453344395
 20
509.99999999999994
 10
404.92369453344395
 20
509.98999999999995
 10
404.92987487333147
 20
509.9861803398875
 10
404.90369453344397
 20
509.98
 10
404.90369453344397
 20
509.06737205583715
 10
404.92369453344395
 20
509.0473720558372
 10
435.34518693266585
 20
509.0473720558372
  0
ENDSEC
  0
SECTION
  2
OBJECTS
  0
DICTIONARY
  5
A
330
0
100
AcDbDictionary
281
1
  3
ACAD_COLOR
350
B
  3
ACAD_GROUP
350
C
  3
ACAD_LAYOUT
350
D
  3
ACAD_MATERIAL
350
E
  3
ACAD_MLEADERSTYLE
350
F
  3
ACAD_MLINESTYLE
350
10
  3
ACAD_PLOTSETTINGS
350
11
  3
ACAD_PLOTSTYLENAME
350
12
  3
ACAD_SCALELIST
350
14
  3
ACAD_TABLESTYLE
350
15
  3
ACAD_VISUALSTYLE
350
16
  0
DICTIONARY
  5
B
330
A
100
AcDbDictionary
281
1
  0
DICTIONARY
  5
C
330
A
100
AcDbDictionary
281
1
  0
DICTIONARY
  5
D
330
A
100
AcDbDictionary
281
1
  3
Model
350
1A
  3
Layout1
350
1E
  0
DICTIONARY
  5
E
330
A
100
AcDbDictionary
281
1
  3
ByBlock
350
1F
  3
ByLayer
350
20
  3
Global
350
21
  0
DICTIONARY
  5
F
330
A
100
AcDbDictionary
281
1
  3
Standard
350
2C
  0
DICTIONARY
  5
10
330
A
100
AcDbDictionary
281
1
  3
Standard
350
22
  0
DICTIONARY
  5
11
330
A
100
AcDbDictionary
281
1
  0
ACDBDICTIONARYWDFLT
  5
12
330
A
100
AcDbDictionary
281
1
  3
Normal
350
13
100
AcDbDictionaryWithDefault
340
13
  0
ACDBPLACEHOLDER
  5
13
330
12
  0
DICTIONARY
  5
14
330
A
100
AcDbDictionary
281
1
  0
DICTIONARY
  5
15
330
A
100
AcDbDictionary
281
1
  0
DICTIONARY
  5
16
330
A
100
AcDbDictionary
281
1
  0
LAYOUT
  5
1A
330
D
100
AcDbPlotSettings
  1

  2
Adobe PDF
  4
A4
  6

 40
3.175
 41
3.175
 42
3.175
 43
3.175
 44
209.91
 45
297.03
 46
0.0
 47
0.0
 48
0.0
 49
0.0
140
0.0
141
0.0
142
1.0
143
1.0
 70
1024
 72
0
 73
1
 74
5
  7

 75
16
 76
0
 77
2
 78
300
147
1.0
148
0.0
149
0.0
100
AcDbLayout
  1
Model
 70
1
 71
0
 10
-3.175
 20
-3.175
 11
293.857
 21
206.735
 12
0.0
 22
0.0
 32
0.0
 14
29.068
 24
20.356
 34
0.0
 15
261.614
 25
183.204
 35
0.0
146
0.0
 13
0.0
 23
0.0
 33
0.0
 16
1.0
 26
0.0
 36
0.0
 17
0.0
 27
1.0
 37
0.0
 76
1
330
17
  0
LAYOUT
  5
1E
330
D
100
AcDbPlotSettings
  1

  2
Adobe PDF
  4
A4
  6

 40
3.175
 41
3.175
 42
3.175
 43
3.175
 44
209.91
 45
297.03
 46
0.0
 47
0.0
 48
0.0
 49
0.0
140
0.0
141
0.0
142
1.0
143
1.0
 70
0
 72
0
 73
1
 74
5
  7

 75
16
 76
0
 77
2
 78
300
147
1.0
148
0.0
149
0.0
100
AcDbLayout
  1
Layout1
 70
1
 71
1
 10
-3.175
 20
-3.175
 11
293.857
 21
206.735
 12
0.0
 22
0.0
 32
0.0
 14
29.068
 24
20.356
 34
0.0
 15
261.614
 25
183.204
 35
0.0
146
0.0
 13
0.0
 23
0.0
 33
0.0
 16
1.0
 26
0.0
 36
0.0
 17
0.0
 27
1.0
 37
0.0
 76
1
330
1B
  0
MATERIAL
  5
1F
102
{ACAD_REACTORS
330
E
102
}
330
E
100
AcDbMaterial
  1
ByBlock
  2

 70
0
 40
1.0
 71
1
 41
1.0
 91
-1023410177
 42
1.0
 72
1
  3

 73
1
 74
1
 75
1
 44
0.5
 73
0
 45
1.0
 46
1.0
 77
1
  4

 78
1
 79
1
170
1
 48
1.0
171
1
  6

172
1
173
1
174
1
140
1.0
141
1.0
175
1
  7

176
1
177
1
178
1
143
1.0
179
1
  8

270
1
271
1
272
1
145
1.0
146
1.0
273
1
  9

274
1
275
1
276
1
 42
1.0
 72
1
  3

 73
1
 74
1
 75
1
 94
63
  0
MATERIAL
  5
20
102
{ACAD_REACTORS
330
E
102
}
330
E
100
AcDbMaterial
  1
ByLayer
  2

 70
0
 40
1.0
 71
1
 41
1.0
 91
-1023410177
 42
1.0
 72
1
  3

 73
1
 74
1
 75
1
 44
0.5
 73
0
 45
1.0
 46
1.0
 77
1
  4

 78
1
 79
1
170
1
 48
1.0
171
1
  6

172
1
173
1
174
1
140
1.0
141
1.0
175
1
  7

176
1
177
1
178
1
143
1.0
179
1
  8

270
1
271
1
272
1
145
1.0
146
1.0
273
1
  9

274
1
275
1
276
1
 42
1.0
 72
1
  3

 73
1
 74
1
 75
1
 94
63
  0
MATERIAL
  5
21
102
{ACAD_REACTORS
330
E
102
}
330
E
100
AcDbMaterial
  1
Global
  2

 70
0
 40
1.0
 71
1
 41
1.0
 91
-1023410177
 42
1.0
 72
1
  3

 73
1
 74
1
 75
1
 44
0.5
 73
0
 45
1.0
 46
1.0
 77
1
  4

 78
1
 79
1
170
1
 48
1.0
171
1
  6

172
1
173
1
174
1
140
1.0
141
1.0
175
1
  7

176
1
177
1
178
1
143
1.0
179
1
  8

270
1
271
1
272
1
145
1.0
146
1.0
273
1
  9

274
1
275
1
276
1
 42
1.0
 72
1
  3

 73
1
 74
1
 75
1
 94
63
  0
MLINESTYLE
  5
22
102
{ACAD_REACTORS
330
10
102
}
330
10
100
AcDbMlineStyle
  2
Standard
 70
0
  3

 62
256
 51
90.0
 52
90.0
 71
2
 49
0.5
 62
256
  6
BYLAYER
 49
-0.5
 62
256
  6
BYLAYER
  0
MLEADERSTYLE
  5
2C
102
{ACAD_REACTORS
330
F
102
}
330
F
100
AcDbMLeaderStyle
179
2
170
2
171
1
172
0
 90
2
 40
0.0
 41
0.0
173
1
 91
-1056964608
 92
-2
290
1
 42
2.0
291
1
 43
8.0
  3
Standard
 44
4.0
300

342
29
174
1
175
1
176
0
178
1
 93
-1056964608
 45
4.0
292
0
297
0
 46
4.0
 94
-1056964608
 47
1.0
 49
1.0
140
1.0
294
1
141
0.0
177
0
142
1.0
295
0
296
0
143
3.75
271
0
272
9
273
9
  0
ENDSEC
  0
EOF
