  0
SECTION
  2
HEADER
  9
$ACADVER
  1
AC1024
  9
$ACADMAINTVER
 70
6
  9
$DWGCODEPAGE
  3
ANSI_1252
  9
$LASTSAVEDBY
  1
ezdxf
  9
$INSBASE
 10
0.0
 20
0.0
 30
0.0
  9
$EXTMIN
 10
-100
 20
-100
 30
-100
  9
$EXTMAX
 10
100
 20
100
 30
100
  9
$LIMMIN
 10
0.0
 20
0.0
  9
$LIMMAX
 10
420.0
 20
297.0
  9
$ORTHOMODE
 70
0
  9
$REGENMODE
 70
1
  9
$FILLMODE
 70
1
  9
$QTEXTMODE
 70
0
  9
$MIRRTEXT
 70
1
  9
$LTSCALE
 40
1.0
  9
$ATTMODE
 70
1
  9
$TEXTSIZE
 40
2.5
  9
$TRACEWID
 40
1.0
  9
$TEXTSTYLE
  7
Standard
  9
$CLAYER
  8
0
  9
$CELTYPE
  6
ByLayer
  9
$CECOLOR
 62
256
  9
$CELTSCALE
 40
1.0
  9
$DISPSILH
 70
0
  9
$DIMSCALE
 40
1.0
  9
$DIMASZ
 40
2.5
  9
$DIMEXO
 40
0.625
  9
$DIMDLI
 40
3.75
  9
$DIMRND
 40
0.0
  9
$DIMDLE
 40
0.0
  9
$DIMEXE
 40
1.25
  9
$DIMTP
 40
0.0
  9
$DIMTM
 40
0.0
  9
$DIMTXT
 40
2.5
  9
$DIMCEN
 40
2.5
  9
$DIMTSZ
 40
0.0
  9
$DIMTOL
 70
0
  9
$DIMLIM
 70
0
  9
$DIMTIH
 70
0
  9
$DIMTOH
 70
0
  9
$DIMSE1
 70
0
  9
$DIMSE2
 70
0
  9
$DIMTAD
 70
1
  9
$DIMZIN
 70
8
  9
$DIMBLK
  1

  9
$DIMASO
 70
1
  9
$DIMSHO
 70
1
  9
$DIMPOST
  1

  9
$DIMAPOST
  1

  9
$DIMALT
 70
0
  9
$DIMALTD
 70
3
  9
$DIMALTF
 40
0.03937007874
  9
$DIMLFAC
 40
1.0
  9
$DIMTOFL
 70
1
  9
$DIMTVP
 40
0.0
  9
$DIMTIX
 70
0
  9
$DIMSOXD
 70
0
  9
$DIMSAH
 70
0
  9
$DIMBLK1
  1

  9
$DIMBLK2
  1

  9
$DIMSTYLE
  2
ISO-25
  9
$DIMCLRD
 70
0
  9
$DIMCLRE
 70
0
  9
$DIMCLRT
 70
0
  9
$DIMTFAC
 40
1.0
  9
$DIMGAP
 40
0.625
  9
$DIMJUST
 70
0
  9
$DIMSD1
 70
0
  9
$DIMSD2
 70
0
  9
$DIMTOLJ
 70
0
  9
$DIMTZIN
 70
8
  9
$DIMALTZ
 70
0
  9
$DIMALTTZ
 70
0
  9
$DIMUPT
 70
0
  9
$DIMDEC
 70
2
  9
$DIMTDEC
 70
2
  9
$DIMALTU
 70
2
  9
$DIMALTTD
 70
3
  9
$DIMTXSTY
  7
Standard
  9
$DIMAUNIT
 70
0
  9
$DIMADEC
 70
0
  9
$DIMALTRND
 40
0.0
  9
$DIMAZIN
 70
0
  9
$DIMDSEP
 70
44
  9
$DIMATFIT
 70
3
  9
$DIMFRAC
 70
0
  9
$DIMLDRBLK
  1

  9
$DIMLUNIT
 70
2
  9
$DIMLWD
 70
-2
  9
$DIMLWE
 70
-2
  9
$DIMTMOVE
 70
0
  9
$DIMFXL
 40
1.0
  9
$DIMFXLON
 70
0
  9
$DIMJOGANG
 40
0.785398163397
  9
$DIMTFILL
 70
0
  9
$DIMTFILLCLR
 70
0
  9
$DIMARCSYM
 70
0
  9
$DIMLTYPE
  6

  9
$DIMLTEX1
  6

  9
$DIMLTEX2
  6

  9
$DIMTXTDIRECTION
 70
0
  9
$LUNITS
 70
2
  9
$LUPREC
 70
4
  9
$SKETCHINC
 40
1.0
  9
$FILLETRAD
 40
10.0
  9
$AUNITS
 70
0
  9
$AUPREC
 70
2
  9
$MENU
  1
.
  9
$ELEVATION
 40
0.0
  9
$PELEVATION
 40
0.0
  9
$THICKNESS
 40
0.0
  9
$LIMCHECK
 70
0
  9
$CHAMFERA
 40
0.0
  9
$CHAMFERB
 40
0.0
  9
$CHAMFERC
 40
0.0
  9
$CHAMFERD
 40
0.0
  9
$SKPOLY
 70
0
  9
$TDCREATE
 40
2459330.7578935185
  9
$TDUCREATE
 40
2458532.153996898
  9
$TDUPDATE
 40
2459330.7578935185
  9
$TDUUPDATE
 40
2458532.1544311
  9
$TDINDWG
 40
0.0
  9
$TDUSRTIMER
 40
0.0
  9
$USRTIMER
 70
1
  9
$ANGBASE
 50
0.0
  9
$ANGDIR
 70
0
  9
$PDMODE
 70
0
  9
$PDSIZE
 40
0.0
  9
$PLINEWID
 40
0.0
  9
$SPLFRAME
 70
0
  9
$SPLINETYPE
 70
6
  9
$SPLINESEGS
 70
8
  9
$HANDSEED
  5
3B
  9
$SURFTAB1
 70
6
  9
$SURFTAB2
 70
6
  9
$SURFTYPE
 70
6
  9
$SURFU
 70
6
  9
$SURFV
 70
6
  9
$UCSBASE
  2

  9
$UCSNAME
  2

  9
$UCSORG
 10
0.0
 20
0.0
 30
0.0
  9
$UCSXDIR
 10
1.0
 20
0.0
 30
0.0
  9
$UCSYDIR
 10
0.0
 20
1.0
 30
0.0
  9
$UCSORTHOREF
  2

  9
$UCSORTHOVIEW
 70
0
  9
$UCSORGTOP
 10
0.0
 20
0.0
 30
0.0
  9
$UCSORGBOTTOM
 10
0.0
 20
0.0
 30
0.0
  9
$UCSORGLEFT
 10
0.0
 20
0.0
 30
0.0
  9
$UCSORGRIGHT
 10
0.0
 20
0.0
 30
0.0
  9
$UCSORGFRONT
 10
0.0
 20
0.0
 30
0.0
  9
$UCSORGBACK
 10
0.0
 20
0.0
 30
0.0
  9
$PUCSBASE
  2

  9
$PUCSNAME
  2

  9
$PUCSORG
 10
0.0
 20
0.0
 30
0.0
  9
$PUCSXDIR
 10
1.0
 20
0.0
 30
0.0
  9
$PUCSYDIR
 10
0.0
 20
1.0
 30
0.0
  9
$PUCSORTHOREF
  2

  9
$PUCSORTHOVIEW
 70
0
  9
$PUCSORGTOP
 10
0.0
 20
0.0
 30
0.0
  9
$PUCSORGBOTTOM
 10
0.0
 20
0.0
 30
0.0
  9
$PUCSORGLEFT
 10
0.0
 20
0.0
 30
0.0
  9
$PUCSORGRIGHT
 10
0.0
 20
0.0
 30
0.0
  9
$PUCSORGFRONT
 10
0.0
 20
0.0
 30
0.0
  9
$PUCSORGBACK
 10
0.0
 20
0.0
 30
0.0
  9
$USERI1
 70
0
  9
$USERI2
 70
0
  9
$USERI3
 70
0
  9
$USERI4
 70
0
  9
$USERI5
 70
0
  9
$USERR1
 40
0.0
  9
$USERR2
 40
0.0
  9
$USERR3
 40
0.0
  9
$USERR4
 40
0.0
  9
$USERR5
 40
0.0
  9
$WORLDVIEW
 70
1
  9
$SHADEDGE
 70
3
  9
$SHADEDIF
 70
70
  9
$TILEMODE
 70
1
  9
$MAXACTVP
 70
64
  9
$PINSBASE
 10
0.0
 20
0.0
 30
0.0
  9
$PLIMCHECK
 70
0
  9
$PEXTMIN
 10
1e+20
 20
1e+20
 30
1e+20
  9
$PEXTMAX
 10
-1e+20
 20
-1e+20
 30
-1e+20
  9
$PLIMMIN
 10
0.0
 20
0.0
  9
$PLIMMAX
 10
420.0
 20
297.0
  9
$UNITMODE
 70
0
  9
$VISRETAIN
 70
1
  9
$PLINEGEN
 70
0
  9
$PSLTSCALE
 70
1
  9
$TREEDEPTH
 70
3020
  9
$CMLSTYLE
  2
Standard
  9
$CMLJUST
 70
0
  9
$CMLSCALE
 40
20.0
  9
$PROXYGRAPHICS
 70
1
  9
$MEASUREMENT
 70
1
  9
$CELWEIGHT
370
-1
  9
$ENDCAPS
280
0
  9
$JOINSTYLE
280
0
  9
$LWDISPLAY
290
0
  9
$INSUNITS
 70
6
  9
$HYPERLINKBASE
  1

  9
$STYLESHEET
  1

  9
$XEDIT
290
1
  9
$CEPSNTYPE
380
0
  9
$PSTYLEMODE
290
1
  9
$FINGERPRINTGUID
  2
50B5B4F4-A62C-11EB-88D2-EF04984CF350
  9
$VERSIONGUID
  2
50B82442-A62C-11EB-93F4-EF04984CF350
  9
$EXTNAMES
290
1
  9
$PSVPSCALE
 40
0.0
  9
$OLESTARTUP
290
0
  9
$SORTENTS
280
127
  9
$INDEXCTL
280
0
  9
$HIDETEXT
280
1
  9
$XCLIPFRAME
280
2
  9
$HALOGAP
280
0
  9
$OBSCOLOR
 70
257
  9
$OBSLTYPE
280
0
  9
$INTERSECTIONDISPLAY
280
0
  9
$INTERSECTIONCOLOR
 70
257
  9
$DIMASSOC
280
2
  9
$PROJECTNAME
  1

  9
$CAMERADISPLAY
290
0
  9
$LENSLENGTH
 40
50.0
  9
$CAMERAHEIGHT
 40
0.0
  9
$STEPSPERSEC
 40
24.0
  9
$STEPSIZE
 40
100.0
  9
$3DDWFPREC
 40
2.0
  9
$PSOLWIDTH
 40
0.005
  9
$PSOLHEIGHT
 40
0.08
  9
$LOFTANG1
 40
1.570796326795
  9
$LOFTANG2
 40
1.570796326795
  9
$LOFTMAG1
 40
0.0
  9
$LOFTMAG2
 40
0.0
  9
$LOFTPARAM
 70
7
  9
$LOFTNORMALS
280
1
  9
$LATITUDE
 40
37.795
  9
$LONGITUDE
 40
-122.394
  9
$NORTHDIRECTION
 40
0.0
  9
$TIMEZONE
 70
-8000
  9
$LIGHTGLYPHDISPLAY
280
1
  9
$TILEMODELIGHTSYNCH
280
1
  9
$CMATERIAL
347
20
  9
$SOLIDHIST
280
0
  9
$SHOWHIST
280
1
  9
$DWFFRAME
280
2
  9
$DGNFRAME
280
2
  9
$REALWORLDSCALE
290
1
  9
$INTERFERECOLOR
 62
256
  9
$CSHADOW
280
0
  9
$SHADOWPLANELOCATION
 40
0.0
  0
ENDSEC
  0
SECTION
  2
CLASSES
  0
CLASS
  1
ACDBDICTIONARYWDFLT
  2
AcDbDictionaryWithDefault
  3
ObjectDBX Classes
 90
0
 91
0
280
0
281
0
  0
CLASS
  1
SUN
  2
AcDbSun
  3
SCENEOE
 90
1153
 91
0
280
0
281
0
  0
CLASS
  1
VISUALSTYLE
  2
AcDbVisualStyle
  3
ObjectDBX Classes
 90
4095
 91
0
280
0
281
0
  0
CLASS
  1
MATERIAL
  2
AcDbMaterial
  3
ObjectDBX Classes
 90
1153
 91
0
280
0
281
0
  0
CLASS
  1
SCALE
  2
AcDbScale
  3
ObjectDBX Classes
 90
1153
 91
0
280
0
281
0
  0
CLASS
  1
TABLESTYLE
  2
AcDbTableStyle
  3
ObjectDBX Classes
 90
4095
 91
0
280
0
281
0
  0
CLASS
  1
MLEADERSTYLE
  2
AcDbMLeaderStyle
  3
ACDB_MLEADERSTYLE_CLASS
 90
4095
 91
0
280
0
281
0
  0
CLASS
  1
DICTIONARYVAR
  2
AcDbDictionaryVar
  3
ObjectDBX Classes
 90
0
 91
0
280
0
281
0
  0
CLASS
  1
CELLSTYLEMAP
  2
AcDbCellStyleMap
  3
ObjectDBX Classes
 90
1152
 91
0
280
0
281
0
  0
CLASS
  1
MENTALRAYRENDERSETTINGS
  2
AcDbMentalRayRenderSettings
  3
SCENEOE
 90
1024
 91
0
280
0
281
0
  0
CLASS
  1
ACDBDETAILVIEWSTYLE
  2
AcDbDetailViewStyle
  3
ObjectDBX Classes
 90
1025
 91
0
280
0
281
0
  0
CLASS
  1
ACDBSECTIONVIEWSTYLE
  2
AcDbSectionViewStyle
  3
ObjectDBX Classes
 90
1025
 91
0
280
0
281
0
  0
CLASS
  1
RASTERVARIABLES
  2
AcDbRasterVariables
  3
ISM
 90
0
 91
0
280
0
281
0
  0
CLASS
  1
ACDBPLACEHOLDER
  2
AcDbPlaceHolder
  3
ObjectDBX Classes
 90
0
 91
0
280
0
281
0
  0
CLASS
  1
LAYOUT
  2
AcDbLayout
  3
ObjectDBX Classes
 90
0
 91
0
280
0
281
0
  0
ENDSEC
  0
SECTION
  2
TABLES
  0
TABLE
  2
VPORT
  5
8
330
0
100
AcDbSymbolTable
 70
1
  0
VPORT
  5
23
330
8
100
AcDbSymbolTableRecord
100
AcDbViewportTableRecord
  2
*Active
 70
0
 10
0.0
 20
0.0
 11
1.0
 21
1.0
 12
70.0
 22
50.0
 13
0.0
 23
0.0
 14
0.5
 24
0.5
 15
0.5
 25
0.5
 16
0.0
 26
0.0
 36
1.0
 17
0.0
 27
0.0
 37
0.0
 40
1.0
 41
1.34
 42
50.0
 43
0.0
 44
0.0
 50
0.0
 51
0.0
 71
0
 72
1000
 73
1
 74
3
 75
0
 76
0
 77
0
 78
0
281
0
 65
0
146
0.0
  0
ENDTAB
  0
TABLE
  2
LTYPE
  5
2
330
0
100
AcDbSymbolTable
 70
3
  0
LTYPE
  5
24
330
2
100
AcDbSymbolTableRecord
100
AcDbLinetypeTableRecord
  2
ByBlock
 70
0
  3

 72
65
 73
0
 40
0.0
  0
LTYPE
  5
25
330
2
100
AcDbSymbolTableRecord
100
AcDbLinetypeTableRecord
  2
ByLayer
 70
0
  3

 72
65
 73
0
 40
0.0
  0
LTYPE
  5
26
330
2
100
AcDbSymbolTableRecord
100
AcDbLinetypeTableRecord
  2
Continuous
 70
0
  3

 72
65
 73
0
 40
0.0
  0
ENDTAB
  0
TABLE
  2
LAYER
  5
1
330
0
100
AcDbSymbolTable
 70
2
  0
LAYER
  5
27
330
1
100
AcDbSymbolTableRecord
100
AcDbLayerTableRecord
  2
0
 70
0
 62
7
  6
Continuous
370
-3
390
13
347
21
  0
LAYER
  5
28
330
1
100
AcDbSymbolTableRecord
100
AcDbLayerTableRecord
  2
Defpoints
 70
0
 62
7
  6
Continuous
290
0
370
-3
390
13
347
21
  0
ENDTAB
  0
TABLE
  2
STYLE
  5
5
330
0
100
AcDbSymbolTable
 70
1
  0
STYLE
  5
29
330
5
100
AcDbSymbolTableRecord
100
AcDbTextStyleTableRecord
  2
Standard
 70
0
 40
0.0
 41
1.0
 50
0.0
 71
0
 42
2.5
  3
txt
  4

  0
ENDTAB
  0
TABLE
  2
VIEW
  5
7
330
0
100
AcDbSymbolTable
 70
0
  0
ENDTAB
  0
TABLE
  2
UCS
  5
6
330
0
100
AcDbSymbolTable
 70
0
  0
ENDTAB
  0
TABLE
  2
APPID
  5
3
330
0
100
AcDbSymbolTable
 70
2
  0
APPID
  5
2A
330
3
100
AcDbSymbolTableRecord
100
AcDbRegAppTableRecord
  2
ACAD
 70
0
  0
APPID
  5
3A
330
3
100
AcDbSymbolTableRecord
100
AcDbRegAppTableRecord
  2
HATCHBACKGROUNDCOLOR
 70
0
  0
ENDTAB
  0
TABLE
  2
DIMSTYLE
  5
4
330
0
100
AcDbSymbolTable
 70
1
100
AcDbDimStyleTable
  0
DIMSTYLE
105
2B
330
4
100
AcDbSymbolTableRecord
100
AcDbDimStyleTableRecord
  2
Standard
 70
0
 40
1.0
 41
2.5
 42
0.625
 43
3.75
 44
1.25
 45
0.0
 46
0.0
 47
0.0
 48
0.0
 49
2.5
140
2.5
141
2.5
142
0.0
143
0.03937007874
144
1.0
145
0.0
146
1.0
147
0.625
148
0.0
 69
0
 70
0
 71
0
 72
0
 73
0
 74
0
 75
0
 76
0
 77
1
 78
8
 79
0
170
0
171
3
172
1
173
0
174
0
175
0
176
0
177
0
178
0
179
0
271
0
272
2
273
2
274
3
275
0
276
0
277
2
278
44
279
0
280
0
281
0
282
0
283
0
284
8
285
0
286
0
288
0
289
3
290
0
371
-2
372
-2
  0
ENDTAB
  0
TABLE
  2
BLOCK_RECORD
  5
9
330
0
100
AcDbSymbolTable
 70
2
  0
BLOCK_RECORD
  5
17
330
9
100
AcDbSymbolTableRecord
100
AcDbBlockTableRecord
  2
*Model_Space
340
1A
 70
0
280
1
281
0
  0
BLOCK_RECORD
  5
1B
330
9
100
AcDbSymbolTableRecord
100
AcDbBlockTableRecord
  2
*Paper_Space
340
1E
 70
0
280
1
281
0
  0
ENDTAB
  0
ENDSEC
  0
SECTION
  2
BLOCKS
  0
BLOCK
  5
18
330
17
100
AcDbEntity
  8
0
100
AcDbBlockBegin
  2
*Model_Space
 70
0
 10
0.0
 20
0.0
 30
0.0
  3
*Model_Space
  1

  0
ENDBLK
  5
19
330
17
100
AcDbEntity
  8
0
100
AcDbBlockEnd
  0
BLOCK
  5
1C
330
1B
100
AcDbEntity
  8
0
100
AcDbBlockBegin
  2
*Paper_Space
 70
0
 10
0.0
 20
0.0
 30
0.0
  3
*Paper_Space
  1

  0
ENDBLK
  5
1D
330
1B
100
AcDbEntity
  8
0
100
AcDbBlockEnd
  0
ENDSEC
  0
SECTION
  2
ENTITIES
  0
LWPOLYLINE
  5
2D
330
17
100
AcDbEntity
  8
0
100
AcDbPolyline
 90
42
 70
0
 10
3.7232421875000004
 20
-10.954687500000029
 10
3.7294609375000007
 20
-10.888093750000028
 10
3.739367187500001
 20
-10.824250000000028
 10
3.7529609374999993
 20
-10.763156250000028
 10
3.770242187500001
 20
-10.704812500000028
 10
3.7912109375000007
 20
-10.649218750000028
 10
3.8158671875000003
 20
-10.596375000000029
 10
3.8442109375000015
 20
-10.546281250000028
 10
3.876242187500001
 20
-10.498937500000029
 10
3.9119609375000017
 20
-10.454343750000028
 10
3.9513671875000007
 20
-10.412500000000028
 10
3.9935859375000007
 20
-10.374054687500028
 10
4.037742187500001
 20
-10.33965625000003
 10
4.0838359375
 20
-10.309304687500028
 10
4.131867187500001
 20
-10.283000000000028
 10
4.181835937500001
 20
-10.260742187500028
 10
4.233742187500001
 20
-10.242531250000027
 10
4.287585937500001
 20
-10.228367187500028
 10
4.343367187500002
 20
-10.218250000000028
 10
4.401085937500001
 20
-10.212179687500027
 10
4.460742187500001
 20
-10.21015625000003
 10
4.526375000000002
 20
-10.212695312500028
 10
4.589523437500002
 20
-10.220312500000027
 10
4.650187500000001
 20
-10.233007812500029
 10
4.7083671875
 20
-10.250781250000028
 10
4.764062500000001
 20
-10.27363281250003
 10
4.817273437500001
 20
-10.301562500000028
 10
4.868
 20
-10.334570312500029
 10
4.9162421875000035
 20
-10.372656250000027
 10
4.9620000000000015
 20
-10.415820312500028
 10
5.005273437500001
 20
-10.46406250000003
 10
5.031539062500002
 20
-10.498359375000028
 10
5.055648437500002
 20
-10.535937500000028
 10
5.077601562500002
 20
-10.576796875000028
 10
5.0973984375000025
 20
-10.620937500000029
 10
5.115039062500001
 20
-10.668359375000028
 10
5.130523437500001
 20
-10.719062500000028
 10
5.143851562500002
 20
-10.773046875000029
 10
5.155023437500002
 20
-10.830312500000028
 10
5.1640390625000006
 20
-10.890859375000028
 10
5.1708984375
 20
-10.954687500000029
 10
3.7232421875000004
 20
-10.954687500000029
  0
LWPOLYLINE
  5
2E
330
17
100
AcDbEntity
  8
0
100
AcDbPolyline
 90
92
 70
0
 10
-0.23408203124999982
 20
-11.19843750000003
 10
-0.23408203124999982
 20
-11.360156250000028
 10
-0.2347929687499999
 20
-11.416718750000028
 10
-0.2369257812499992
 20
-11.470468750000029
 10
-0.2404804687500004
 20
-11.521406250000028
 10
-0.24545703124999996
 20
-11.56953125000003
 10
-0.25185546874999964
 20
-11.614843750000029
 10
-0.25967578125000035
 20
-11.657343750000027
 10
-0.2689179687500003
 20
-11.697031250000029
 10
-0.2795820312499986
 20
-11.733906250000029
 10
-0.2916679687499997
 20
-11.767968750000028
 10
-0.30517578125
 20
-11.799218750000028
 10
-0.3248164062500001
 20
-11.836992187500028
 10
-0.3465507812499995
 20
-11.873125000000028
 10
-0.37037890625000003
 20
-11.907617187500028
 10
-0.3963007812499999
 20
-11.94046875000003
 10
-0.42431640625
 20
-11.971679687500028
 10
-0.4544257812500003
 20
-12.001250000000029
 10
-0.48662890625
 20
-12.029179687500028
 10
-0.520925781249999
 20
-12.055468750000028
 10
-0.5573164062499991
 20
-12.08011718750003
 10
-0.5958007812499995
 20
-12.103125000000029
 10
-0.6358945312499991
 20
-12.124203125000028
 10
-0.6771132812499996
 20
-12.143062500000028
 10
-0.7194570312500002
 20
-12.159703125000028
 10
-0.7629257812499999
 20
-12.174125000000029
 10
-0.8075195312499996
 20
-12.186328125000028
 10
-0.8532382812500003
 20
-12.196312500000028
 10
-0.9000820312500002
 20
-12.204078125000029
 10
-0.9480507812499992
 20
-12.209625000000027
 10
-0.99714453125
 20
-12.212953125000029
 10
-1.04736328125
 20
-12.21406250000003
 10
-1.0973867187499997
 20
-12.212890625000028
 10
-1.1449570312499997
 20
-12.209375000000028
 10
-1.1900742187499995
 20
-12.203515625000028
 10
-1.23273828125
 20
-12.195312500000028
 10
-1.27294921875
 20
-12.18476562500003
 10
-1.3107070312499998
 20
-12.171875000000028
 10
-1.3460117187499998
 20
-12.156640625000028
 10
-1.3788632812499988
 20
-12.139062500000028
 10
-1.4092617187499994
 20
-12.119140625000028
 10
-1.4372070312499998
 20
-12.09687500000003
 10
-1.4624414062499995
 20
-12.072851562500029
 10
-1.4850195312499994
 20
-12.047656250000028
 10
-1.50494140625
 20
-12.021289062500028
 10
-1.5222070312499998
 20
-11.993750000000029
 10
-1.5368164062499998
 20
-11.96503906250003
 10
-1.5487695312499996
 20
-11.935156250000029
 10
-1.5580664062499996
 20
-11.904101562500028
 10
-1.5647070312499989
 20
-11.871875000000028
 10
-1.5686914062499997
 20
-11.838476562500029
 10
-1.5700195312499998
 20
-11.80390625000003
 10
-1.56941015625
 20
-11.781148437500029
 10
-1.5675820312499993
 20
-11.758812500000028
 10
-1.5645351562499998
 20
-11.73689843750003
 10
-1.5602695312499995
 20
-11.71540625000003
 10
-1.5547851562499995
 20
-11.694335937500028
 10
-1.5480820312499994
 20
-11.673687500000028
 10
-1.5401601562499998
 20
-11.653460937500029
 10
-1.5310195312499992
 20
-11.633656250000028
 10
-1.5206601562499995
 20
-11.614273437500028
 10
-1.5090820312499997
 20
-11.595312500000029
 10
-1.4962382812499997
 20
-11.577015625000028
 10
-1.4823945312499998
 20
-11.559625000000029
 10
-1.46755078125
 20
-11.543140625000028
 10
-1.4517070312499998
 20
-11.527562500000029
 10
-1.4348632812499997
 20
-11.51289062500003
 10
-1.4170195312499998
 20
-11.499125000000028
 10
-1.39817578125
 20
-11.486265625000028
 10
-1.3783320312499994
 20
-11.474312500000028
 10
-1.3574882812499998
 20
-11.463265625000028
 10
-1.3356445312499998
 20
-11.453125000000028
 10
-1.31155859375
 20
-11.443382812500028
 10
-1.2843007812499998
 20
-11.433843750000028
 10
-1.25387109375
 20
-11.424507812500028
 10
-1.2202695312499996
 20
-11.41537500000003
 10
-1.1834960937499996
 20
-11.40644531250003
 10
-1.14355078125
 20
-11.397718750000028
 10
-1.10043359375
 20
-11.389195312500028
 10
-1.054144531249999
 20
-11.380875000000028
 10
-1.0046835937499994
 20
-11.372757812500028
 10
-0.9520507812499996
 20
-11.364843750000029
 10
-0.8588085937500001
 20
-11.350804687500029
 10
-0.7703320312499997
 20
-11.336187500000028
 10
-0.6866210937500004
 20
-11.320992187500028
 10
-0.6076757812500002
 20
-11.305218750000028
 10
-0.5334960937499993
 20
-11.288867187500028
 10
-0.46408203125000025
 20
-11.271937500000028
 10
-0.39943359374999954
 20
-11.254429687500028
 10
-0.33955078124999893
 20
-11.236343750000028
 10
-0.2844335937499993
 20
-11.217679687500029
 10
-0.23408203124999982
 20
-11.19843750000003
  0
LWPOLYLINE
  5
2F
330
17
100
AcDbEntity
  8
0
100
AcDbPolyline
 90
5
 70
0
 10
282.451847266722
 20
-22.451847266721998
 10
-22.45184726672197
 20
-22.451847266721998
 10
-22.45184726672197
 20
742.451847266722
 10
282.451847266722
 20
742.451847266722
 10
282.451847266722
 20
-22.451847266721998
  0
LWPOLYLINE
  5
30
330
17
100
AcDbEntity
  8
0
100
AcDbPolyline
 90
33
 70
0
 10
272.5
 20
-10.000000000000028
 10
272.4519632010081
 20
-9.512274194959701
 10
272.30969883127824
 20
-9.043291419087298
 10
272.07867403075636
 20
-8.611074417451018
 10
271.7677669529664
 20
-8.232233047033654
 10
271.388925582549
 20
-7.921325969243661
 10
270.95670858091273
 20
-7.690301168721808
 10
270.4877258050403
 20
-7.548036798991951
 10
270.0
 20
-7.500000000000028
 10
269.5122741949597
 20
-7.548036798991954
 10
269.04329141908727
 20
-7.690301168721815
 10
268.611074417451
 20
-7.9213259692436715
 10
268.2322330470336
 20
-8.232233047033667
 10
267.92132596924364
 20
-8.61107441745103
 10
267.69030116872176
 20
-9.043291419087312
 10
267.5480367989919
 20
-9.512274194959716
 10
267.5
 20
-10.000000000000037
 10
267.5480367989919
 20
-10.487725805040357
 10
267.69030116872176
 20
-10.956708580912759
 10
267.92132596924364
 20
-11.388925582549039
 10
268.2322330470336
 20
-11.7677669529664
 10
268.611074417451
 20
-12.078674030756394
 10
269.04329141908727
 20
-12.309698831278247
 10
269.5122741949597
 20
-12.451963201008105
 10
270.0
 20
-12.500000000000028
 10
270.4877258050403
 20
-12.451963201008104
 10
270.95670858091273
 20
-12.309698831278244
 10
271.388925582549
 20
-12.07867403075639
 10
271.7677669529664
 20
-11.767766952966396
 10
272.07867403075636
 20
-11.388925582549033
 10
272.30969883127824
 20
-10.956708580912752
 10
272.4519632010081
 20
-10.487725805040348
 10
272.5
 20
-10.000000000000028
  0
LWPOLYLINE
  5
31
330
17
100
AcDbEntity
  8
0
100
AcDbPolyline
 90
33
 70
0
 10
-7.5
 20
-10.000000000000028
 10
-7.548036798991925
 20
-9.512274194959701
 10
-7.690301168721785
 20
-9.043291419087298
 10
-7.92132596924364
 20
-8.611074417451018
 10
-8.232233047033636
 20
-8.232233047033654
 10
-8.611074417451
 20
-7.921325969243661
 10
-9.043291419087284
 20
-7.690301168721808
 10
-9.512274194959687
 20
-7.548036798991951
 10
-10.000000000000009
 20
-7.500000000000028
 10
-10.48772580504033
 20
-7.548036798991954
 10
-10.956708580912734
 20
-7.690301168721815
 10
-11.388925582549014
 20
-7.9213259692436715
 10
-11.767766952966376
 20
-8.232233047033667
 10
-12.078674030756368
 20
-8.61107441745103
 10
-12.30969883127822
 20
-9.043291419087312
 10
-12.451963201008077
 20
-9.512274194959716
 10
-12.5
 20
-10.000000000000037
 10
-12.451963201008075
 20
-10.487725805040357
 10
-12.309698831278215
 20
-10.956708580912759
 10
-12.07867403075636
 20
-11.388925582549039
 10
-11.767766952966365
 20
-11.7677669529664
 10
-11.388925582549001
 20
-12.078674030756394
 10
-10.95670858091272
 20
-12.309698831278247
 10
-10.487725805040316
 20
-12.451963201008105
 10
-9.999999999999996
 20
-12.500000000000028
 10
-9.512274194959677
 20
-12.451963201008104
 10
-9.043291419087273
 20
-12.309698831278244
 10
-8.611074417450993
 20
-12.07867403075639
 10
-8.23223304703363
 20
-11.767766952966396
 10
-7.921325969243636
 20
-11.388925582549033
 10
-7.690301168721783
 20
-10.956708580912752
 10
-7.548036798991923
 20
-10.487725805040348
 10
-7.5
 20
-10.000000000000028
  0
LWPOLYLINE
  5
32
330
17
100
AcDbEntity
  8
0
100
AcDbPolyline
 90
33
 70
0
 10
272.5
 20
730.0
 10
272.4519632010081
 20
730.4877258050403
 10
272.30969883127824
 20
730.9567085809127
 10
272.07867403075636
 20
731.3889255825491
 10
271.7677669529664
 20
731.7677669529663
 10
271.388925582549
 20
732.0786740307564
 10
270.95670858091273
 20
732.3096988312782
 10
270.4877258050403
 20
732.4519632010081
 10
270.0
 20
732.5
 10
269.5122741949597
 20
732.4519632010081
 10
269.04329141908727
 20
732.3096988312782
 10
268.611074417451
 20
732.0786740307564
 10
268.2322330470336
 20
731.7677669529663
 10
267.92132596924364
 20
731.388925582549
 10
267.69030116872176
 20
730.9567085809127
 10
267.5480367989919
 20
730.4877258050403
 10
267.5
 20
730.0
 10
267.5480367989919
 20
729.5122741949597
 10
267.69030116872176
 20
729.0432914190873
 10
267.92132596924364
 20
728.6110744174509
 10
268.2322330470336
 20
728.2322330470337
 10
268.611074417451
 20
727.9213259692436
 10
269.04329141908727
 20
727.6903011687218
 10
269.5122741949597
 20
727.5480367989919
 10
270.0
 20
727.5
 10
270.4877258050403
 20
727.5480367989919
 10
270.95670858091273
 20
727.6903011687218
 10
271.388925582549
 20
727.9213259692436
 10
271.7677669529664
 20
728.2322330470337
 10
272.07867403075636
 20
728.611074417451
 10
272.30969883127824
 20
729.0432914190873
 10
272.4519632010081
 20
729.5122741949597
 10
272.5
 20
730.0
  0
LWPOLYLINE
  5
33
330
17
100
AcDbEntity
  8
0
100
AcDbPolyline
 90
33
 70
0
 10
-7.5
 20
730.0
 10
-7.548036798991925
 20
730.4877258050403
 10
-7.690301168721785
 20
730.9567085809127
 10
-7.92132596924364
 20
731.3889255825491
 10
-8.232233047033636
 20
731.7677669529663
 10
-8.611074417451
 20
732.0786740307564
 10
-9.043291419087284
 20
732.3096988312782
 10
-9.512274194959687
 20
732.4519632010081
 10
-10.000000000000009
 20
732.5
 10
-10.48772580504033
 20
732.4519632010081
 10
-10.956708580912734
 20
732.3096988312782
 10
-11.388925582549014
 20
732.0786740307564
 10
-11.767766952966376
 20
731.7677669529663
 10
-12.078674030756368
 20
731.388925582549
 10
-12.30969883127822
 20
730.9567085809127
 10
-12.451963201008077
 20
730.4877258050403
 10
-12.5
 20
730.0
 10
-12.451963201008075
 20
729.5122741949597
 10
-12.309698831278215
 20
729.0432914190873
 10
-12.07867403075636
 20
728.6110744174509
 10
-11.767766952966365
 20
728.2322330470337
 10
-11.388925582549001
 20
727.9213259692436
 10
-10.95670858091272
 20
727.6903011687218
 10
-10.487725805040316
 20
727.5480367989919
 10
-9.999999999999996
 20
727.5
 10
-9.512274194959677
 20
727.5480367989919
 10
-9.043291419087273
 20
727.6903011687218
 10
-8.611074417450993
 20
727.9213259692436
 10
-8.23223304703363
 20
728.2322330470337
 10
-7.921325969243636
 20
728.611074417451
 10
-7.690301168721783
 20
729.0432914190873
 10
-7.548036798991923
 20
729.5122741949597
 10
-7.5
 20
730.0
  0
LWPOLYLINE
  5
34
330
17
100
AcDbEntity
  8
0
100
AcDbPolyline
 90
7
 70
0
 10
-4.63359375
 20
-12.500000000000028
 10
-2.39765625
 20
-12.500000000000028
 10
-2.39765625
 20
-12.07734375000003
 10
-4.16015625
 20
-12.07734375000003
 10
-4.16015625
 20
-8.92109375000003
 10
-4.63359375
 20
-8.92109375000003
 10
-4.63359375
 20
-12.500000000000028
  0
LWPOLYLINE
  5
35
330
17
100
AcDbEntity
  8
0
100
AcDbPolyline
 90
185
 70
0
 10
11.413671875000002
 20
-12.07734375000003
 10
9.658203125
 20
-12.07734375000003
 10
9.6732734375
 20
-12.05345312500003
 10
9.689109375000001
 20
-12.029593750000029
 10
9.705710937500001
 20
-12.005765625000029
 10
9.723078125
 20
-11.981968750000028
 10
9.7412109375
 20
-11.95820312500003
 10
9.760109375
 20
-11.934468750000029
 10
9.7797734375
 20
-11.910765625000028
 10
9.800203125000003
 20
-11.887093750000028
 10
9.821398437500003
 20
-11.863453125000028
 10
9.843359375
 20
-11.839843750000028
 10
9.868695312500002
 20
-11.813960937500028
 10
9.899703125000002
 20
-11.783812500000028
 10
9.936382812500002
 20
-11.749398437500028
 10
9.978734375000002
 20
-11.710718750000028
 10
10.0267578125
 20
-11.667773437500028
 10
10.080453125000002
 20
-11.620562500000029
 10
10.139820312500001
 20
-11.569085937500029
 10
10.204859375000003
 20
-11.513343750000029
 10
10.275570312500001
 20
-11.453335937500029
 10
10.351953125000001
 20
-11.389062500000028
 10
10.4439453125
 20
-11.310765625000029
 10
10.530546875000002
 20
-11.235875000000028
 10
10.611757812500002
 20
-11.164390625000028
 10
10.687578125000002
 20
-11.096312500000028
 10
10.7580078125
 20
-11.031640625000028
 10
10.823046875000001
 20
-10.970375000000029
 10
10.882695312500001
 20
-10.912515625000028
 10
10.936953125000004
 20
-10.858062500000027
 10
10.985820312500001
 20
-10.807015625000028
 10
11.029296875
 20
-10.759375000000029
 10
11.0689140625
 20
-10.713664062500028
 10
11.106203125
 20
-10.668406250000029
 10
11.1411640625
 20
-10.623601562500028
 10
11.173796875
 20
-10.579250000000028
 10
11.2041015625
 20
-10.53535156250003
 10
11.232078125000001
 20
-10.491906250000028
 10
11.2577265625
 20
-10.448914062500029
 10
11.281046875000005
 20
-10.406375000000029
 10
11.3020390625
 20
-10.364289062500028
 10
11.320703125000001
 20
-10.322656250000028
 10
11.337476562500001
 20
-10.281023437500028
 10
11.352484375000003
 20
-10.239250000000029
 10
11.3657265625
 20
-10.197335937500029
 10
11.377203125000001
 20
-10.155281250000028
 10
11.386914062499997
 20
-10.113085937500028
 10
11.394859375
 20
-10.070750000000029
 10
11.4010390625
 20
-10.028273437500028
 10
11.405453125000001
 20
-9.985656250000028
 10
11.4081015625
 20
-9.942898437500029
 10
11.408984375
 20
-9.900000000000029
 10
11.405976562500001
 20
-9.816843750000029
 10
11.396953125
 20
-9.73643750000003
 10
11.381914062500002
 20
-9.658781250000029
 10
11.360859374999997
 20
-9.583875000000027
 10
11.3337890625
 20
-9.511718750000028
 10
11.300703124999998
 20
-9.442312500000028
 10
11.261601562499997
 20
-9.375656250000029
 10
11.216484375000004
 20
-9.311750000000028
 10
11.1653515625
 20
-9.250593750000029
 10
11.108203125
 20
-9.192187500000028
 10
11.0460546875
 20
-9.137859375000028
 10
10.979609375
 20
-9.089250000000028
 10
10.9088671875
 20
-9.046359375000028
 10
10.833828125
 20
-9.009187500000028
 10
10.754492187500002
 20
-8.97773437500003
 10
10.670859375000003
 20
-8.952000000000028
 10
10.5829296875
 20
-8.931984375000027
 10
10.490703125000003
 20
-8.917687500000028
 10
10.394179687500003
 20
-8.909109375000028
 10
10.293359375000001
 20
-8.906250000000028
 10
10.193250000000003
 20
-8.908898437500028
 10
10.097296875000001
 20
-8.916843750000028
 10
10.005500000000001
 20
-8.930085937500028
 10
9.917859375
 20
-8.948625000000028
 10
9.834375000000001
 20
-8.972460937500028
 10
9.755046875000001
 20
-9.001593750000028
 10
9.679875000000003
 20
-9.036023437500027
 10
9.608859375000005
 20
-9.075750000000028
 10
9.542000000000002
 20
-9.120773437500027
 10
9.479296875000001
 20
-9.17109375000003
 10
9.421390625
 20
-9.226468750000027
 10
9.368609375000002
 20
-9.286656250000028
 10
9.320953125
 20
-9.351656250000028
 10
9.278421875
 20
-9.421468750000027
 10
9.241015625000001
 20
-9.496093750000028
 10
9.208734375000002
 20
-9.57553125000003
 10
9.181578125000001
 20
-9.659781250000028
 10
9.159546875000002
 20
-9.748843750000027
 10
9.142640625000002
 20
-9.842718750000028
 10
9.130859375
 20
-9.941406250000028
 10
9.582421875000001
 20
-9.98750000000003
 10
9.5847734375
 20
-9.921625000000027
 10
9.590890625000002
 20
-9.858687500000029
 10
9.600773437500001
 20
-9.798687500000028
 10
9.614421875000003
 20
-9.741625000000028
 10
9.631835937500002
 20
-9.687500000000028
 10
9.653015625000002
 20
-9.636312500000027
 10
9.677960937500002
 20
-9.588062500000028
 10
9.706671875000003
 20
-9.542750000000028
 10
9.739148437500003
 20
-9.500375000000028
 10
9.775390625
 20
-9.460937500000028
 10
9.814781250000001
 20
-9.424718750000029
 10
9.856703125000003
 20
-9.392312500000028
 10
9.90115625
 20
-9.363718750000029
 10
9.948140625
 20
-9.338937500000029
 10
9.99765625
 20
-9.317968750000029
 10
10.049703125000002
 20
-9.300812500000028
 10
10.104281250000001
 20
-9.287468750000029
 10
10.161390625000003
 20
-9.277937500000029
 10
10.22103125
 20
-9.272218750000029
 10
10.283203125
 20
-9.270312500000028
 10
10.342070312499999
 20
-9.272109375000028
 10
10.398671875000002
 20
-9.277500000000028
 10
10.453007812500001
 20
-9.286484375000029
 10
10.505078125
 20
-9.299062500000028
 10
10.5548828125
 20
-9.315234375000028
 10
10.602421875000001
 20
-9.33500000000003
 10
10.6476953125
 20
-9.358359375000028
 10
10.690703125000002
 20
-9.385312500000028
 10
10.731445312500002
 20
-9.415859375000029
 10
10.769921875000001
 20
-9.450000000000028
 10
10.805546875000001
 20
-9.486601562500027
 10
10.837421875000002
 20
-9.524843750000027
 10
10.865546875000001
 20
-9.564726562500027
 10
10.889921874999999
 20
-9.606250000000028
 10
10.910546875000001
 20
-9.649414062500028
 10
10.927421875000002
 20
-9.694218750000028
 10
10.940546874999999
 20
-9.740664062500027
 10
10.949921875000003
 20
-9.788750000000029
 10
10.955546875000003
 20
-9.838476562500027
 10
10.957421875000001
 20
-9.88984375000003
 10
10.955367187500002
 20
-9.939992187500028
 10
10.949203125000004
 20
-9.990750000000029
 10
10.938929687500002
 20
-10.042117187500029
 10
10.924546875
 20
-10.094093750000027
 10
10.906054687500001
 20
-10.14667968750003
 10
10.883453125000003
 20
-10.199875000000029
 10
10.8567421875
 20
-10.253679687500028
 10
10.825921875000004
 20
-10.308093750000028
 10
10.790992187500002
 20
-10.363117187500027
 10
10.751953125
 20
-10.418750000000028
 10
10.7072265625
 20
-10.476671875000028
 10
10.654921875000001
 20
-10.538562500000028
 10
10.595039062500001
 20
-10.604421875000028
 10
10.527578125000002
 20
-10.674250000000029
 10
10.452539062500001
 20
-10.748046875000028
 10
10.369921875000001
 20
-10.825812500000028
 10
10.279726562500002
 20
-10.907546875000028
 10
10.181953125000003
 20
-10.993250000000028
 10
10.076601562500002
 20
-11.082921875000029
 10
9.963671875000001
 20
-11.176562500000028
 10
9.890132812500003
 20
-11.237390625000028
 10
9.820140625
 20
-11.296750000000028
 10
9.7536953125
 20
-11.354640625000028
 10
9.690796875
 20
-11.411062500000028
 10
9.631445312500002
 20
-11.46601562500003
 10
9.575640625000002
 20
-11.51950000000003
 10
9.5233828125
 20
-11.571515625000028
 10
9.474671875000002
 20
-11.622062500000029
 10
9.4295078125
 20
-11.671140625000028
 10
9.387890625
 20
-11.718750000000028
 10
9.34928125
 20
-11.765695312500029
 10
9.312828125
 20
-11.812781250000029
 10
9.27853125
 20
-11.860007812500028
 10
9.246390625
 20
-11.907375000000028
 10
9.216406249999999
 20
-11.954882812500028
 10
9.188578125
 20
-12.002531250000029
 10
9.162906250000002
 20
-12.050320312500029
 10
9.139390625000003
 20
-12.098250000000029
 10
9.118031250000001
 20
-12.146320312500029
 10
9.098828125
 20
-12.19453125000003
 10
9.088335937500002
 20
-12.224023437500028
 10
9.079046875000001
 20
-12.253750000000029
 10
9.0709609375
 20
-12.283710937500029
 10
9.064078125000002
 20
-12.313906250000029
 10
9.0583984375
 20
-12.344335937500029
 10
9.053921875000002
 20
-12.375000000000028
 10
9.0506484375
 20
-12.405898437500028
 10
9.048578125000002
 20
-12.437031250000029
 10
9.0477109375
 20
-12.468398437500028
 10
9.048046875
 20
-12.500000000000028
 10
11.413671875000002
 20
-12.500000000000028
 10
11.413671875000002
 20
-12.07734375000003
  0
LWPOLYLINE
  5
36
330
17
100
AcDbEntity
  8
0
100
AcDbPolyline
 90
77
 70
0
 10
6.167285156250001
 20
-12.500000000000028
 10
6.606347656250001
 20
-12.500000000000028
 10
6.606347656250001
 20
-11.142187500000029
 10
6.607082031250002
 20
-11.087000000000028
 10
6.609285156250003
 20
-11.032687500000028
 10
6.6129570312500014
 20
-10.979250000000029
 10
6.618097656250001
 20
-10.926687500000028
 10
6.624707031250001
 20
-10.875000000000028
 10
6.632785156250003
 20
-10.82418750000003
 10
6.64233203125
 20
-10.774250000000029
 10
6.653347656250004
 20
-10.725187500000029
 10
6.665832031250002
 20
-10.677000000000028
 10
6.67978515625
 20
-10.629687500000028
 10
6.690136718750001
 20
-10.59957812500003
 10
6.70181640625
 20
-10.570812500000027
 10
6.71482421875
 20
-10.543390625000029
 10
6.729160156250002
 20
-10.517312500000028
 10
6.744824218750001
 20
-10.492578125000028
 10
6.76181640625
 20
-10.469187500000029
 10
6.780136718750001
 20
-10.447140625000028
 10
6.799785156250003
 20
-10.426437500000027
 10
6.820761718750001
 20
-10.407078125000028
 10
6.843066406250001
 20
-10.389062500000028
 10
6.866332031250002
 20
-10.372585937500029
 10
6.890191406250002
 20
-10.357843750000029
 10
6.914644531250001
 20
-10.34483593750003
 10
6.939691406250002
 20
-10.333562500000028
 10
6.965332031250002
 20
-10.324023437500028
 10
6.991566406250001
 20
-10.31621875000003
 10
7.018394531250001
 20
-10.310148437500029
 10
7.045816406250005
 20
-10.305812500000028
 10
7.073832031250001
 20
-10.303210937500028
 10
7.102441406250001
 20
-10.302343750000029
 10
7.134628906250001
 20
-10.30329687500003
 10
7.166816406250003
 20
-10.30615625000003
 10
7.199003906250001
 20
-10.310921875000028
 10
7.231191406250002
 20
-10.317593750000029
 10
7.263378906250001
 20
-10.326171875000028
 10
7.295566406250002
 20
-10.33665625000003
 10
7.327753906250001
 20
-10.349046875000028
 10
7.359941406250002
 20
-10.363343750000027
 10
7.392128906250001
 20
-10.379546875000027
 10
7.42431640625
 20
-10.39765625000003
 10
7.575878906250001
 20
-9.989843750000029
 10
7.530019531250002
 20
-9.962976562500028
 10
7.484316406250002
 20
-9.938937500000028
 10
7.438769531249999
 20
-9.917726562500029
 10
7.39337890625
 20
-9.899343750000028
 10
7.34814453125
 20
-9.883789062500028
 10
7.30306640625
 20
-9.87106250000003
 10
7.25814453125
 20
-9.861164062500027
 10
7.2133789062500036
 20
-9.854093750000029
 10
7.1687695312500015
 20
-9.849851562500028
 10
7.124316406250001
 20
-9.848437500000028
 10
7.093792968750002
 20
-9.849320312500028
 10
7.0637851562500025
 20
-9.851968750000028
 10
7.034292968750002
 20
-9.856382812500028
 10
7.0053164062499995
 20
-9.862562500000028
 10
6.976855468750001
 20
-9.870507812500028
 10
6.948910156250001
 20
-9.880218750000028
 10
6.921480468750001
 20
-9.891695312500028
 10
6.894566406250004
 20
-9.904937500000027
 10
6.868167968750001
 20
-9.919945312500028
 10
6.84228515625
 20
-9.93671875000003
 10
6.81642578125
 20
-9.956101562500027
 10
6.790097656250001
 20
-9.979250000000029
 10
6.763300781250001
 20
-10.006164062500028
 10
6.736035156250001
 20
-10.036843750000028
 10
6.708300781250001
 20
-10.071289062500028
 10
6.68009765625
 20
-10.109500000000029
 10
6.6514257812499995
 20
-10.15147656250003
 10
6.622285156250003
 20
-10.197218750000028
 10
6.592675781250001
 20
-10.246726562500028
 10
6.56259765625
 20
-10.30000000000003
 10
6.56259765625
 20
-9.907031250000028
 10
6.167285156250001
 20
-9.907031250000028
 10
6.167285156250001
 20
-12.500000000000028
  0
LWPOLYLINE
  5
37
330
17
100
AcDbEntity
  8
0
100
AcDbPolyline
 90
133
 70
0
 10
5.166210937500001
 20
-11.664843750000028
 10
5.1455
 20
-11.718960937500029
 10
5.123367187500001
 20
-11.770062500000028
 10
5.0998125000000005
 20
-11.818148437500028
 10
5.074835937500001
 20
-11.863218750000028
 10
5.048437500000002
 20
-11.905273437500028
 10
5.020617187500001
 20
-11.944312500000029
 10
4.991375
 20
-11.980335937500028
 10
4.960710937500002
 20
-12.013343750000029
 10
4.928625000000002
 20
-12.043335937500029
 10
4.8951171875
 20
-12.070312500000028
 10
4.8601953125
 20
-12.094359375000028
 10
4.823867187500001
 20
-12.115875000000027
 10
4.7861328125
 20
-12.134859375000028
 10
4.746992187500002
 20
-12.151312500000028
 10
4.706445312500001
 20
-12.16523437500003
 10
4.6644921875000005
 20
-12.176625000000028
 10
4.621132812500001
 20
-12.185484375000028
 10
4.5763671875000025
 20
-12.191812500000028
 10
4.530195312500002
 20
-12.195609375000029
 10
4.482617187500001
 20
-12.196875000000029
 10
4.418695312500001
 20
-12.194609375000029
 10
4.356929687500001
 20
-12.187812500000028
 10
4.2973203125
 20
-12.176484375000028
 10
4.2398671875
 20
-12.160625000000028
 10
4.1845703125
 20
-12.140234375000029
 10
4.131429687499999
 20
-12.115312500000028
 10
4.0804453125
 20
-12.085859375000028
 10
4.0316171875
 20
-12.051875000000027
 10
3.9849453125000007
 20
-12.013359375000029
 10
3.9404296875
 20
-11.970312500000029
 10
3.898921874999999
 20
-11.922843750000029
 10
3.8612734374999995
 20
-11.871375000000029
 10
3.827484375000001
 20
-11.815906250000028
 10
3.7975546875
 20
-11.756437500000029
 10
3.771484375
 20
-11.692968750000029
 10
3.749273437500001
 20
-11.625500000000029
 10
3.7309218750000017
 20
-11.554031250000028
 10
3.7164296875000034
 20
-11.478562500000029
 10
3.7057968750000008
 20
-11.399093750000029
 10
3.699023437500001
 20
-11.31562500000003
 10
5.632617187500001
 20
-11.31562500000003
 10
5.633062500000001
 20
-11.300390625000029
 10
5.633460937500001
 20
-11.285937500000028
 10
5.633812500000001
 20
-11.272265625000028
 10
5.634117187500001
 20
-11.259375000000029
 10
5.634375
 20
-11.24726562500003
 10
5.6345859375000025
 20
-11.235937500000029
 10
5.63475
 20
-11.225390625000028
 10
5.634867187500003
 20
-11.215625000000028
 10
5.634937500000003
 20
-11.206640625000029
 10
5.634960937500001
 20
-11.19843750000003
 10
5.6316640625000005
 20
-11.072882812500028
 10
5.621773437500002
 20
-10.95309375000003
 10
5.605289062500001
 20
-10.839070312500029
 10
5.582210937500001
 20
-10.730812500000027
 10
5.552539062499999
 20
-10.628320312500028
 10
5.516273437500002
 20
-10.531593750000027
 10
5.4734140625
 20
-10.440632812500029
 10
5.423960937500002
 20
-10.35543750000003
 10
5.367914062500002
 20
-10.276007812500028
 10
5.3052734375
 20
-10.20234375000003
 10
5.237429687500001
 20
-10.13510156250003
 10
5.1657734375
 20
-10.07493750000003
 10
5.0903046875
 20
-10.021851562500029
 10
5.0110234375000005
 20
-9.975843750000028
 10
4.927929687500001
 20
-9.936914062500028
 10
4.8410234375000005
 20
-9.905062500000028
 10
4.7503046875
 20
-9.880289062500028
 10
4.655773437500002
 20
-9.862593750000027
 10
4.557429687500001
 20
-9.851976562500028
 10
4.455273437500001
 20
-9.848437500000028
 10
4.3499218750000015
 20
-9.85205468750003
 10
4.248554687500002
 20
-9.862906250000028
 10
4.151171874999999
 20
-9.880992187500027
 10
4.0577734375
 20
-9.906312500000027
 10
3.9683593750000004
 20
-9.938867187500028
 10
3.882929687500001
 20
-9.978656250000029
 10
3.801484375000001
 20
-10.025679687500029
 10
3.7240234375000014
 20
-10.079937500000028
 10
3.650546875
 20
-10.141429687500029
 10
3.5810546875
 20
-10.21015625000003
 10
3.5170781249999994
 20
-10.285281250000029
 10
3.459835937500001
 20
-10.366281250000029
 10
3.409328125
 20
-10.453156250000028
 10
3.3655546875000013
 20
-10.545906250000028
 10
3.3285156250000014
 20
-10.644531250000028
 10
3.2982109375000004
 20
-10.749031250000028
 10
3.2746406250000017
 20
-10.859406250000028
 10
3.257804687500002
 20
-10.975656250000029
 10
3.247703125000001
 20
-11.097781250000029
 10
3.2443359375000007
 20
-11.22578125000003
 10
3.247671875
 20
-11.349375000000029
 10
3.2576796875000014
 20
-11.467343750000028
 10
3.2743593749999995
 20
-11.579687500000029
 10
3.2977109374999998
 20
-11.686406250000028
 10
3.327734375000002
 20
-11.787500000000028
 10
3.3644296875000013
 20
-11.882968750000028
 10
3.4077968750000007
 20
-11.972812500000028
 10
3.4578359375000023
 20
-12.057031250000028
 10
3.5145468750000024
 20
-12.135625000000028
 10
3.577929687500001
 20
-12.208593750000029
 10
3.647000000000002
 20
-12.275093750000028
 10
3.7207734375
 20
-12.334593750000028
 10
3.7992500000000007
 20
-12.387093750000028
 10
3.8824296875
 20
-12.432593750000029
 10
3.9703125000000004
 20
-12.471093750000028
 10
4.0628984374999995
 20
-12.50259375000003
 10
4.160187499999999
 20
-12.527093750000029
 10
4.262179687500003
 20
-12.544593750000029
 10
4.368875000000001
 20
-12.555093750000028
 10
4.480273437500001
 20
-12.558593750000028
 10
4.568976562500001
 20
-12.556398437500029
 10
4.6544609375000014
 20
-12.549812500000028
 10
4.736726562500001
 20
-12.538835937500028
 10
4.815773437500001
 20
-12.523468750000028
 10
4.891601562500002
 20
-12.503710937500028
 10
4.964210937499999
 20
-12.479562500000029
 10
5.033601562500003
 20
-12.451023437500028
 10
5.0997734375000014
 20
-12.418093750000029
 10
5.162726562500001
 20
-12.380773437500029
 10
5.222460937500001
 20
-12.33906250000003
 10
5.278750000000002
 20
-12.293226562500028
 10
5.3313671875000015
 20
-12.243843750000028
 10
5.3803125000000005
 20
-12.190914062500028
 10
5.425585937500001
 20
-12.134437500000029
 10
5.467187500000001
 20
-12.07441406250003
 10
5.5051171875
 20
-12.010843750000028
 10
5.5393750000000015
 20
-11.943726562500029
 10
5.569960937500001
 20
-11.873062500000028
 10
5.596875000000001
 20
-11.798851562500028
 10
5.6201171875
 20
-11.721093750000028
 10
5.166210937500001
 20
-11.664843750000028
  0
LWPOLYLINE
  5
38
330
17
100
AcDbEntity
  8
0
100
AcDbPolyline
 90
244
 70
0
 10
-0.19736328124999947
 20
-12.180468750000028
 10
-0.19297265624999937
 20
-12.216570312500028
 10
-0.1876132812499991
 20
-12.251750000000028
 10
-0.18128515624999952
 20
-12.286007812500028
 10
-0.17398828124999888
 20
-12.319343750000028
 10
-0.16572265624999982
 20
-12.35175781250003
 10
-0.1564882812499988
 20
-12.383250000000029
 10
-0.14628515624999938
 20
-12.413820312500029
 10
-0.13511328124999888
 20
-12.443468750000028
 10
-0.12297265624999909
 20
-12.472195312500029
 10
-0.10986328125
 20
-12.500000000000028
 10
0.34951171875000053
 20
-12.500000000000028
 10
0.33334765625000085
 20
-12.470031250000028
 10
0.3182929687500007
 20
-12.439812500000029
 10
0.30434765625000004
 20
-12.409343750000028
 10
0.2915117187500007
 20
-12.378625000000028
 10
0.27978515625
 20
-12.347656250000028
 10
0.2691679687499997
 20
-12.316437500000028
 10
0.25966015624999983
 20
-12.28496875000003
 10
0.25126171875000125
 20
-12.253250000000028
 10
0.2439726562500013
 20
-12.221281250000029
 10
0.23779296875
 20
-12.189062500000029
 10
0.23244921875000024
 20
-12.152054687500028
 10
0.2276679687500005
 20
-12.10603125000003
 10
0.2234492187500008
 20
-12.050992187500029
 10
0.2197929687500002
 20
-11.986937500000028
 10
0.21669921875000053
 20
-11.913867187500028
 10
0.21416796875000088
 20
-11.831781250000029
 10
0.21219921875000125
 20
-11.740679687500029
 10
0.21079296875000164
 20
-11.640562500000028
 10
0.20994921875000117
 20
-11.531429687500028
 10
0.2096679687500007
 20
-11.41328125000003
 10
0.2096679687500007
 20
-10.82734375000003
 10
0.20944921875000055
 20
-10.770562500000029
 10
0.20879296875000097
 20
-10.717406250000028
 10
0.20769921875000108
 20
-10.667875000000029
 10
0.20616796875000087
 20
-10.621968750000029
 10
0.20419921875000036
 20
-10.579687500000029
 10
0.2017929687500013
 20
-10.541031250000028
 10
0.19894921875000104
 20
-10.506000000000029
 10
0.19566796875000136
 20
-10.474593750000029
 10
0.19194921875000048
 20
-10.446812500000028
 10
0.18779296875000018
 20
-10.422656250000028
 10
0.1793945312500007
 20
-10.387039062500028
 10
0.16982421875000053
 20
-10.352687500000028
 10
0.15908203124999964
 20
-10.31960156250003
 10
0.1471679687500007
 20
-10.287781250000029
 10
0.13408203125000018
 20
-10.257226562500028
 10
0.11982421874999982
 20
-10.227937500000028
 10
0.10439453124999964
 20
-10.199914062500028
 10
0.08779296875000142
 20
-10.173156250000028
 10
0.07001953124999982
 20
-10.147664062500027
 10
0.05107421875000018
 20
-10.123437500000028
 10
0.03044140625000047
 20
-10.100093750000028
 10
0.007605468750000455
 20
-10.077562500000028
 10
-0.017433593749999865
 20
-10.05584375000003
 10
-0.0446757812499996
 20
-10.034937500000028
 10
-0.07412109374999964
 20
-10.01484375000003
 10
-0.10576953124999999
 20
-9.995562500000029
 10
-0.13962109374999887
 20
-9.977093750000028
 10
-0.17567578124999983
 20
-9.959437500000028
 10
-0.2139335937500002
 20
-9.942593750000029
 10
-0.25439453125
 20
-9.926562500000028
 10
-0.2970507812500003
 20
-9.911718750000029
 10
-0.34220703125000007
 20
-9.898437500000028
 10
-0.38986328124999936
 20
-9.886718750000028
 10
-0.44001953124999993
 20
-9.876562500000027
 10
-0.49267578125
 20
-9.867968750000028
 10
-0.5478320312499996
 20
-9.860937500000029
 10
-0.6054882812499995
 20
-9.855468750000028
 10
-0.665644531249999
 20
-9.851562500000028
 10
-0.7283007812499998
 20
-9.849218750000027
 10
-0.79345703125
 20
-9.848437500000028
 10
-0.85952734375
 20
-9.849359375000027
 10
-0.9239882812499998
 20
-9.852125000000028
 10
-0.9868398437499994
 20
-9.856734375000029
 10
-1.0480820312499999
 20
-9.863187500000027
 10
-1.1077148437499997
 20
-9.871484375000028
 10
-1.16573828125
 20
-9.881625000000028
 10
-1.2221523437499995
 20
-9.893609375000029
 10
-1.276957031249999
 20
-9.907437500000029
 10
-1.33015234375
 20
-9.923109375000028
 10
-1.3817382812499996
 20
-9.94062500000003
 10
-1.43132421875
 20
-9.959687500000028
 10
-1.4785195312499995
 20
-9.980312500000029
 10
-1.52332421875
 20
-10.002500000000028
 10
-1.5657382812499998
 20
-10.026250000000028
 10
-1.6057617187499997
 20
-10.051562500000028
 10
-1.6433945312499998
 20
-10.078437500000028
 10
-1.6786367187499995
 20
-10.106875000000027
 10
-1.711488281249999
 20
-10.136875000000028
 10
-1.7419492187499999
 20
-10.168437500000028
 10
-1.77001953125
 20
-10.201562500000028
 10
-1.7961367187499997
 20
-10.236531250000029
 10
-1.8207382812499997
 20
-10.273625000000028
 10
-1.84382421875
 20
-10.312843750000027
 10
-1.8653945312499998
 20
-10.354187500000029
 10
-1.8854492187499998
 20
-10.39765625000003
 10
-1.9039882812499997
 20
-10.443250000000027
 10
-1.92101171875
 20
-10.490968750000029
 10
-1.9365195312499992
 20
-10.540812500000028
 10
-1.95051171875
 20
-10.592781250000028
 10
-1.96298828125
 20
-10.646875000000028
 10
-1.53330078125
 20
-10.705468750000028
 10
-1.5183164062499999
 20
-10.651984375000028
 10
-1.5018007812499996
 20
-10.601843750000029
 10
-1.4837539062499996
 20
-10.555046875000029
 10
-1.4641757812499998
 20
-10.511593750000028
 10
-1.4430664062499998
 20
-10.471484375000028
 10
-1.4204257812499996
 20
-10.434718750000028
 10
-1.3962539062500001
 20
-10.401296875000028
 10
-1.370550781249999
 20
-10.371218750000029
 10
-1.3433164062499996
 20
-10.344484375000029
 10
-1.31455078125
 20
-10.321093750000028
 10
-1.28339453125
 20
-10.300460937500027
 10
-1.2489882812499995
 20
-10.282000000000028
 10
-1.2113320312499996
 20
-10.265710937500028
 10
-1.1704257812499996
 20
-10.251593750000028
 10
-1.1262695312499997
 20
-10.239648437500028
 10
-1.0788632812499999
 20
-10.229875000000028
 10
-1.0282070312499996
 20
-10.222273437500029
 10
-0.9743007812499993
 20
-10.216843750000027
 10
-0.91714453125
 20
-10.213585937500028
 10
-0.8567382812500002
 20
-10.212500000000029
 10
-0.7919726562500005
 20
-10.213984375000027
 10
-0.7304882812500004
 20
-10.218437500000029
 10
-0.6722851562500001
 20
-10.225859375000027
 10
-0.6173632812500003
 20
-10.236250000000028
 10
-0.5657226562500002
 20
-10.249609375000029
 10
-0.5173632812499998
 20
-10.265937500000028
 10
-0.4722851562500008
 20
-10.285234375000028
 10
-0.4304882812500006
 20
-10.307500000000028
 10
-0.3919726562500001
 20
-10.332734375000028
 10
-0.3567382812500002
 20
-10.360937500000029
 10
-0.3329882812499996
 20
-10.384554687500028
 10
-0.31173828125000025
 20
-10.411343750000029
 10
-0.2929882812500004
 20
-10.441304687500029
 10
-0.2767382812500001
 20
-10.474437500000029
 10
-0.2629882812500002
 20
-10.510742187500028
 10
-0.25173828124999975
 20
-10.550218750000028
 10
-0.2429882812500006
 20
-10.592867187500028
 10
-0.23673828125000007
 20
-10.638687500000028
 10
-0.23298828125000082
 20
-10.687679687500028
 10
-0.23173828125000018
 20
-10.739843750000029
 10
-0.2317617187500005
 20
-10.745351562500028
 10
-0.23183203125000063
 20
-10.752187500000028
 10
-0.23194921874999963
 20
-10.760351562500029
 10
-0.2321132812500002
 20
-10.769843750000028
 10
-0.23232421874999964
 20
-10.780664062500028
 10
-0.23258203125000065
 20
-10.792812500000029
 10
-0.23288671874999967
 20
-10.806289062500028
 10
-0.23323828124999935
 20
-10.821093750000028
 10
-0.2336367187499997
 20
-10.837226562500028
 10
-0.23408203124999982
 20
-10.85468750000003
 10
-0.28719921874999965
 20
-10.871945312500028
 10
-0.3459257812499992
 20
-10.888718750000027
 10
-0.41026171875000017
 20
-10.905007812500028
 10
-0.48020703124999997
 20
-10.920812500000029
 10
-0.5557617187500004
 20
-10.936132812500029
 10
-0.6369257812500004
 20
-10.950968750000028
 10
-0.7236992187500002
 20
-10.965320312500028
 10
-0.8160820312499988
 20
-10.979187500000029
 10
-0.9140742187499997
 20
-10.992570312500028
 10
-1.01767578125
 20
-11.005468750000029
 10
-1.0686914062500001
 20
-11.011898437500028
 10
-1.1170507812499997
 20
-11.018375000000027
 10
-1.1627539062499999
 20
-11.024898437500028
 10
-1.2058007812499998
 20
-11.031468750000029
 10
-1.24619140625
 20
-11.038085937500028
 10
-1.2839257812499998
 20
-11.044750000000029
 10
-1.3190039062499999
 20
-11.051460937500028
 10
-1.3514257812499992
 20
-11.058218750000028
 10
-1.3811914062499997
 20
-11.065023437500027
 10
-1.40830078125
 20
-11.071875000000029
 10
-1.4431054687499998
 20
-11.082031250000028
 10
-1.4772070312499999
 20
-11.093125000000029
 10
-1.5106054687499997
 20
-11.105156250000029
 10
-1.5433007812500001
 20
-11.118125000000028
 10
-1.57529296875
 20
-11.13203125000003
 10
-1.6065820312500003
 20
-11.146875000000028
 10
-1.63716796875
 20
-11.162656250000028
 10
-1.6670507812499995
 20
-11.179375000000029
 10
-1.69623046875
 20
-11.197031250000029
 10
-1.72470703125
 20
-11.215625000000028
 10
-1.75229296875
 20
-11.235312500000028
 10
-1.7788007812499993
 20
-11.256250000000028
 10
-1.8042304687500001
 20
-11.278437500000027
 10
-1.8285820312499999
 20
-11.301875000000027
 10
-1.8518554687499997
 20
-11.326562500000028
 10
-1.8740507812499998
 20
-11.352500000000028
 10
-1.8951679687499996
 20
-11.379687500000028
 10
-1.9152070312499996
 20
-11.408125000000028
 10
-1.9341679687499993
 20
-11.437812500000028
 10
-1.9520507812499996
 20
-11.468750000000028
 10
-1.96852734375
 20
-11.50049218750003
 10
-1.9832695312499995
 20
-11.532906250000028
 10
-1.99627734375
 20
-11.56599218750003
 10
-2.00755078125
 20
-11.599750000000029
 10
-2.0170898437499996
 20
-11.634179687500028
 10
-2.0248945312499997
 20
-11.669281250000028
 10
-2.0309648437499996
 20
-11.705054687500029
 10
-2.0353007812499992
 20
-11.741500000000029
 10
-2.0379023437499995
 20
-11.778617187500029
 10
-2.03876953125
 20
-11.816406250000028
 10
-2.0364726562499995
 20
-11.880242187500029
 10
-2.0295820312499995
 20
-11.941750000000027
 10
-2.01809765625
 20
-12.000929687500028
 10
-2.00201953125
 20
-12.057781250000028
 10
-1.9813476562499996
 20
-12.112304687500028
 10
-1.9560820312499998
 20
-12.164500000000029
 10
-1.9262226562499998
 20
-12.214367187500029
 10
-1.8917695312499996
 20
-12.261906250000028
 10
-1.8527226562499997
 20
-12.307117187500028
 10
-1.80908203125
 20
-12.350000000000028
 10
-1.7611679687499997
 20
-12.389632812500029
 10
-1.70930078125
 20
-12.425093750000029
 10
-1.6534804687500002
 20
-12.456382812500028
 10
-1.5937070312500001
 20
-12.483500000000028
 10
-1.5299804687499998
 20
-12.506445312500029
 10
-1.4623007812499997
 20
-12.525218750000029
 10
-1.3906679687499994
 20
-12.539820312500028
 10
-1.3150820312499993
 20
-12.550250000000029
 10
-1.235542968749999
 20
-12.556507812500028
 10
-1.1520507812499998
 20
-12.558593750000028
 10
-1.1006601562499996
 20
-12.557742187500029
 10
-1.0499257812499994
 20
-12.555187500000029
 10
-0.99984765625
 20
-12.550929687500028
 10
-0.9504257812499999
 20
-12.544968750000029
 10
-0.9016601562500002
 20
-12.53730468750003
 10
-0.8535507812500001
 20
-12.527937500000029
 10
-0.8060976562499995
 20
-12.51686718750003
 10
-0.7593007812499986
 20
-12.504093750000028
 10
-0.7131601562499998
 20
-12.489617187500029
 10
-0.6676757812499998
 20
-12.473437500000028
 10
-0.62233203125
 20
-12.455039062500028
 10
-0.5766132812499993
 20
-12.434218750000028
 10
-0.5305195312499995
 20
-12.410976562500029
 10
-0.4840507812499997
 20
-12.385312500000028
 10
-0.4372070312499998
 20
-12.357226562500028
 10
-0.38998828124999996
 20
-12.326718750000028
 10
-0.3423945312500001
 20
-12.293789062500029
 10
-0.2944257812499984
 20
-12.258437500000028
 10
-0.2460820312499994
 20
-12.220664062500028
 10
-0.19736328124999947
 20
-12.180468750000028
  0
LWPOLYLINE
  5
39
330
17
100
AcDbEntity
  8
0
100
AcDbPolyline
 90
118
 70
0
 10
0.8716796875000004
 20
-13.498437500000028
 10
0.9026328125000003
 20
-13.50867968750003
 10
0.9329921875
 20
-13.51784375000003
 10
0.9627578125000005
 20
-13.525929687500028
 10
0.9919296875000008
 20
-13.532937500000028
 10
1.0205078125
 20
-13.538867187500028
 10
1.0484921875000017
 20
-13.543718750000028
 10
1.0758828125000006
 20
-13.547492187500028
 10
1.1026796875000011
 20
-13.550187500000028
 10
1.1288828125000014
 20
-13.551804687500029
 10
1.1544921875000007
 20
-13.552343750000029
 10
1.1959375000000012
 20
-13.551328125000028
 10
1.236210937500001
 20
-13.548281250000029
 10
1.2753125
 20
-13.543203125000028
 10
1.313242187500001
 20
-13.536093750000028
 10
1.3500000000000005
 20
-13.526953125000029
 10
1.3855859375000001
 20
-13.515781250000028
 10
1.42
 20
-13.502578125000028
 10
1.4532421875000008
 20
-13.48734375000003
 10
1.485312500000001
 20
-13.470078125000029
 10
1.5162109375000004
 20
-13.450781250000029
 10
1.5461796875000005
 20
-13.429453125000029
 10
1.5754609375000008
 20
-13.405781250000029
 10
1.6040546875000006
 20
-13.37976562500003
 10
1.6319609375000006
 20
-13.351406250000029
 10
1.6591796875
 20
-13.320703125000028
 10
1.6857109375000006
 20
-13.287656250000028
 10
1.7115546875000005
 20
-13.252265625000028
 10
1.7367109375000016
 20
-13.214531250000029
 10
1.7611796875000003
 20
-13.174453125000028
 10
1.7849609375000002
 20
-13.13203125000003
 10
1.8031718750000003
 20
-13.097179687500029
 10
1.8228046874999997
 20
-13.057000000000029
 10
1.843859375000001
 20
-13.011492187500028
 10
1.8663359375000006
 20
-12.960656250000028
 10
1.8902343750000004
 20
-12.90449218750003
 10
1.9155546875000011
 20
-12.843000000000028
 10
1.9422968750000003
 20
-12.77617968750003
 10
1.9704609375000022
 20
-12.704031250000028
 10
2.0000468750000007
 20
-12.626554687500029
 10
2.0310546875
 20
-12.543750000000028
 10
3.0177734375000007
 20
-9.907031250000028
 10
2.5779296875
 20
-9.907031250000028
 10
2.0240234375000004
 20
-11.418750000000028
 10
2.003375
 20
-11.476406250000029
 10
1.9833046875000004
 20
-11.53437500000003
 10
1.9638125000000004
 20
-11.592656250000028
 10
1.944898437500001
 20
-11.651250000000028
 10
1.926562500000001
 20
-11.71015625000003
 10
1.9088046875
 20
-11.769375000000029
 10
1.8916250000000003
 20
-11.828906250000028
 10
1.8750234375000012
 20
-11.888750000000028
 10
1.8590000000000009
 20
-11.948906250000029
 10
1.8435546875000002
 20
-12.009375000000029
 10
1.826625
 20
-11.946695312500028
 10
1.8092734375000008
 20
-11.884593750000029
 10
1.791500000000001
 20
-11.823070312500029
 10
1.7733046875000014
 20
-11.762125000000028
 10
1.7546875000000002
 20
-11.701757812500029
 10
1.735648437500001
 20
-11.641968750000029
 10
1.7161874999999993
 20
-11.582757812500029
 10
1.6963046875000014
 20
-11.524125000000028
 10
1.676000000000001
 20
-11.466070312500028
 10
1.6552734375
 20
-11.408593750000028
 10
1.1154296875000007
 20
-9.907031250000028
 10
0.6419921875000005
 20
-9.907031250000028
 10
1.6263671875000005
 20
-12.504687500000028
 10
1.621054687500001
 20
-12.518562500000028
 10
1.6160546875000001
 20
-12.531750000000029
 10
1.6113671875000009
 20
-12.544250000000028
 10
1.6069921875000013
 20
-12.556062500000028
 10
1.6029296875000005
 20
-12.567187500000028
 10
1.5991796875000013
 20
-12.577625000000028
 10
1.5957421875000009
 20
-12.587375000000028
 10
1.592617187500002
 20
-12.596437500000029
 10
1.5898046875000018
 20
-12.604812500000028
 10
1.5873046875000005
 20
-12.61250000000003
 10
1.5692265625000008
 20
-12.662742187500028
 10
1.5521796875000007
 20
-12.709093750000028
 10
1.536164062500001
 20
-12.751554687500029
 10
1.521179687500001
 20
-12.790125000000028
 10
1.5072265625000005
 20
-12.824804687500029
 10
1.4943046875000006
 20
-12.855593750000029
 10
1.4824140625000002
 20
-12.882492187500029
 10
1.4715546875000012
 20
-12.905500000000028
 10
1.4617265625
 20
-12.92461718750003
 10
1.4529296875000002
 20
-12.939843750000028
 10
1.4413593750000002
 20
-12.956953125000028
 10
1.4291484375000003
 20
-12.973281250000028
 10
1.4162968750000005
 20
-12.988828125000028
 10
1.4028046875000006
 20
-13.003593750000029
 10
1.388671875
 20
-13.017578125000028
 10
1.3738984375000003
 20
-13.030781250000029
 10
1.3584843750000006
 20
-13.043203125000028
 10
1.342429687500001
 20
-13.054843750000028
 10
1.3257343750000006
 20
-13.065703125000029
 10
1.3083984375000002
 20
-13.075781250000029
 10
1.2903046875
 20
-13.085132812500028
 10
1.2710234375000002
 20
-13.093500000000029
 10
1.2505546875000002
 20
-13.100882812500029
 10
1.2288984374999998
 20
-13.107281250000028
 10
1.2060546875
 20
-13.112695312500028
 10
1.1820234375000007
 20
-13.117125000000028
 10
1.1568046875000002
 20
-13.120570312500028
 10
1.1303984375000011
 20
-13.123031250000029
 10
1.1028046875000008
 20
-13.124507812500028
 10
1.0740234375000002
 20
-13.125000000000028
 10
1.052242187500001
 20
-13.124609375000029
 10
1.0297109375000009
 20
-13.123437500000028
 10
1.0064296875000007
 20
-13.121484375000028
 10
0.9823984375000006
 20
-13.118750000000029
 10
0.9576171875000004
 20
-13.115234375000028
 10
0.932085937500001
 20
-13.110937500000029
 10
0.9058046875000008
 20
-13.105859375000028
 10
0.8787734375000023
 20
-13.100000000000028
 10
0.850992187500001
 20
-13.093359375000029
 10
0.8224609375000007
 20
-13.085937500000028
 10
0.8716796875000004
 20
-13.498437500000028
  0
ENDSEC
  0
SECTION
  2
OBJECTS
  0
DICTIONARY
  5
A
330
0
100
AcDbDictionary
281
1
  3
ACAD_COLOR
350
B
  3
ACAD_GROUP
350
C
  3
ACAD_LAYOUT
350
D
  3
ACAD_MATERIAL
350
E
  3
ACAD_MLEADERSTYLE
350
F
  3
ACAD_MLINESTYLE
350
10
  3
ACAD_PLOTSETTINGS
350
11
  3
ACAD_PLOTSTYLENAME
350
12
  3
ACAD_SCALELIST
350
14
  3
ACAD_TABLESTYLE
350
15
  3
ACAD_VISUALSTYLE
350
16
  0
DICTIONARY
  5
B
330
A
100
AcDbDictionary
281
1
  0
DICTIONARY
  5
C
330
A
100
AcDbDictionary
281
1
  0
DICTIONARY
  5
D
330
A
100
AcDbDictionary
281
1
  3
Model
350
1A
  3
Layout1
350
1E
  0
DICTIONARY
  5
E
330
A
100
AcDbDictionary
281
1
  3
ByBlock
350
1F
  3
ByLayer
350
20
  3
Global
350
21
  0
DICTIONARY
  5
F
330
A
100
AcDbDictionary
281
1
  3
Standard
350
2C
  0
DICTIONARY
  5
10
330
A
100
AcDbDictionary
281
1
  3
Standard
350
22
  0
DICTIONARY
  5
11
330
A
100
AcDbDictionary
281
1
  0
ACDBDICTIONARYWDFLT
  5
12
330
A
100
AcDbDictionary
281
1
  3
Normal
350
13
100
AcDbDictionaryWithDefault
340
13
  0
ACDBPLACEHOLDER
  5
13
330
12
  0
DICTIONARY
  5
14
330
A
100
AcDbDictionary
281
1
  0
DICTIONARY
  5
15
330
A
100
AcDbDictionary
281
1
  0
DICTIONARY
  5
16
330
A
100
AcDbDictionary
281
1
  0
LAYOUT
  5
1A
330
D
100
AcDbPlotSettings
  1

  2
Adobe PDF
  4
A4
  6

 40
3.175
 41
3.175
 42
3.175
 43
3.175
 44
209.91
 45
297.03
 46
0.0
 47
0.0
 48
0.0
 49
0.0
140
0.0
141
0.0
142
1.0
143
1.0
 70
1024
 72
0
 73
1
 74
5
  7

 75
16
 76
0
 77
2
 78
300
147
1.0
148
0.0
149
0.0
100
AcDbLayout
  1
Model
 70
1
 71
0
 10
-3.175
 20
-3.175
 11
293.857
 21
206.735
 12
0.0
 22
0.0
 32
0.0
 14
29.068
 24
20.356
 34
0.0
 15
261.614
 25
183.204
 35
0.0
146
0.0
 13
0.0
 23
0.0
 33
0.0
 16
1.0
 26
0.0
 36
0.0
 17
0.0
 27
1.0
 37
0.0
 76
1
330
17
  0
LAYOUT
  5
1E
330
D
100
AcDbPlotSettings
  1

  2
Adobe PDF
  4
A4
  6

 40
3.175
 41
3.175
 42
3.175
 43
3.175
 44
209.91
 45
297.03
 46
0.0
 47
0.0
 48
0.0
 49
0.0
140
0.0
141
0.0
142
1.0
143
1.0
 70
0
 72
0
 73
1
 74
5
  7

 75
16
 76
0
 77
2
 78
300
147
1.0
148
0.0
149
0.0
100
AcDbLayout
  1
Layout1
 70
1
 71
1
 10
-3.175
 20
-3.175
 11
293.857
 21
206.735
 12
0.0
 22
0.0
 32
0.0
 14
29.068
 24
20.356
 34
0.0
 15
261.614
 25
183.204
 35
0.0
146
0.0
 13
0.0
 23
0.0
 33
0.0
 16
1.0
 26
0.0
 36
0.0
 17
0.0
 27
1.0
 37
0.0
 76
1
330
1B
  0
MATERIAL
  5
1F
102
{ACAD_REACTORS
330
E
102
}
330
E
100
AcDbMaterial
  1
ByBlock
  2

 70
0
 40
1.0
 71
1
 41
1.0
 91
-1023410177
 42
1.0
 72
1
  3

 73
1
 74
1
 75
1
 44
0.5
 73
0
 45
1.0
 46
1.0
 77
1
  4

 78
1
 79
1
170
1
 48
1.0
171
1
  6

172
1
173
1
174
1
140
1.0
141
1.0
175
1
  7

176
1
177
1
178
1
143
1.0
179
1
  8

270
1
271
1
272
1
145
1.0
146
1.0
273
1
  9

274
1
275
1
276
1
 42
1.0
 72
1
  3

 73
1
 74
1
 75
1
 94
63
  0
MATERIAL
  5
20
102
{ACAD_REACTORS
330
E
102
}
330
E
100
AcDbMaterial
  1
ByLayer
  2

 70
0
 40
1.0
 71
1
 41
1.0
 91
-1023410177
 42
1.0
 72
1
  3

 73
1
 74
1
 75
1
 44
0.5
 73
0
 45
1.0
 46
1.0
 77
1
  4

 78
1
 79
1
170
1
 48
1.0
171
1
  6

172
1
173
1
174
1
140
1.0
141
1.0
175
1
  7

176
1
177
1
178
1
143
1.0
179
1
  8

270
1
271
1
272
1
145
1.0
146
1.0
273
1
  9

274
1
275
1
276
1
 42
1.0
 72
1
  3

 73
1
 74
1
 75
1
 94
63
  0
MATERIAL
  5
21
102
{ACAD_REACTORS
330
E
102
}
330
E
100
AcDbMaterial
  1
Global
  2

 70
0
 40
1.0
 71
1
 41
1.0
 91
-1023410177
 42
1.0
 72
1
  3

 73
1
 74
1
 75
1
 44
0.5
 73
0
 45
1.0
 46
1.0
 77
1
  4

 78
1
 79
1
170
1
 48
1.0
171
1
  6

172
1
173
1
174
1
140
1.0
141
1.0
175
1
  7

176
1
177
1
178
1
143
1.0
179
1
  8

270
1
271
1
272
1
145
1.0
146
1.0
273
1
  9

274
1
275
1
276
1
 42
1.0
 72
1
  3

 73
1
 74
1
 75
1
 94
63
  0
MLINESTYLE
  5
22
102
{ACAD_REACTORS
330
10
102
}
330
10
100
AcDbMlineStyle
  2
Standard
 70
0
  3

 62
256
 51
90.0
 52
90.0
 71
2
 49
0.5
 62
256
  6
BYLAYER
 49
-0.5
 62
256
  6
BYLAYER
  0
MLEADERSTYLE
  5
2C
102
{ACAD_REACTORS
330
F
102
}
330
F
100
AcDbMLeaderStyle
179
2
170
2
171
1
172
0
 90
2
 40
0.0
 41
0.0
173
1
 91
-1056964608
 92
-2
290
1
 42
2.0
291
1
 43
8.0
  3
Standard
 44
4.0
300

342
29
174
1
175
1
176
0
178
1
 93
-1056964608
 45
4.0
292
0
297
0
 46
4.0
 94
-1056964608
 47
1.0
 49
1.0
140
1.0
294
1
141
0.0
177
0
142
1.0
295
0
296
0
143
3.75
271
0
272
9
273
9
  0
ENDSEC
  0
EOF
